<svg width="35" height="35" viewBox="0 0 35 35" fill="none" xmlns="http://www.w3.org/2000/svg">
<path d="M29.9543 5.09804C26.6919 1.86274 22.2433 0 17.5969 0C7.90872 0 0 7.84314 0 17.451C0 20.7843 0.889731 23.9216 2.66919 26.7647L3.06463 27.451L1.28517 33.9216L7.90872 32.1569L8.50188 32.549C11.1711 34.1176 14.3346 35 17.3992 35C27.0874 35 34.9961 27.1569 34.9961 17.549C35.095 12.7451 33.3155 8.43137 29.9543 5.09804Z" fill="url(#paint0_linear_58_31425)"/>
<path d="M12.259 8.62649C11.8636 7.74414 11.4682 7.74414 11.0727 7.74414C10.7761 7.74414 10.3807 7.74414 10.0841 7.74414C9.68869 7.74414 9.19439 7.84218 8.7001 8.43042C8.2058 8.92061 6.82178 10.1951 6.82178 12.7441C6.82178 15.2932 8.7001 17.8422 8.99668 18.1363C9.29325 18.5285 12.6545 23.9206 17.9929 26.0775C22.4415 27.8422 23.3312 27.45 24.3198 27.352C25.3084 27.2539 27.4833 26.0775 27.8788 24.901C28.2742 23.7245 28.2742 22.6461 28.1753 22.45C28.0765 22.2539 27.681 22.0579 27.1867 21.8618C26.6924 21.5677 24.0233 20.2932 23.529 20.1951C23.0347 19.999 22.7381 19.901 22.3426 20.4892C21.9472 20.9794 20.9586 22.1559 20.662 22.5481C20.3655 22.9402 20.0689 22.9402 19.4757 22.6461C18.9814 22.352 17.202 21.8618 15.2248 19.999C13.6431 18.6265 12.5556 16.8618 12.259 16.3716C11.9624 15.8814 12.259 15.5873 12.4567 15.2932C12.6545 15.0971 12.951 14.7049 13.2476 14.4108C13.5442 14.1167 13.6431 13.9206 13.7419 13.5285C13.9396 13.1363 13.8408 12.8422 13.7419 12.6461C13.7419 12.2539 12.7533 9.70492 12.259 8.62649Z" fill="white"/>
<defs>
<linearGradient id="paint0_linear_58_31425" x1="17.5602" y1="38.0339" x2="17.5602" y2="-2.79137" gradientUnits="userSpaceOnUse">
<stop stop-color="#20B038"/>
<stop offset="1" stop-color="#60D66A"/>
</linearGradient>
</defs>
</svg>
