<svg width="221" height="49" viewBox="0 0 221 49" fill="none" xmlns="http://www.w3.org/2000/svg">
<g clip-path="url(#clip0_684_6756)">
<path d="M0 8.99088H10.7805V12.1377H11.0051C11.9035 11.0138 13.0264 10.1147 14.374 9.44042C15.7215 8.54134 17.2937 8.0918 18.8659 8.0918C21.3364 8.0918 23.5823 8.76611 25.3791 9.88996C27.4004 11.0138 28.748 12.812 29.8709 15.2845C30.9939 17.7569 31.4431 20.679 31.4431 24.2753C31.4431 29.6698 30.3201 33.7157 27.8496 36.4129C25.6037 39.1101 22.4594 40.4588 18.6413 40.4588C15.497 40.4588 12.8018 39.1101 10.5559 36.4129H10.7805V48.7753H0V8.99088ZM12.128 30.1193C13.0264 31.2432 14.374 31.9175 15.9461 31.9175C17.5183 31.9175 18.8659 31.2432 19.7642 29.8946C20.6626 28.5459 21.1118 26.7478 21.1118 24.2753C21.1118 21.8028 20.6626 20.0046 19.7642 18.8808C18.8659 17.7569 17.5183 17.0826 15.7215 17.0826C14.1494 17.0826 12.8018 17.7569 11.9035 19.1056C11.0051 20.2294 10.5559 22.0276 10.5559 24.5001C10.5559 26.9725 11.2297 28.7707 12.128 30.1193Z" fill="#FEFEFE"/>
<path d="M36.6087 38.6606C34.1382 37.312 32.3414 35.5138 30.9939 33.0413C29.6463 30.5689 28.9725 27.6468 28.9725 24.2753C28.9725 20.9037 29.6463 18.2065 30.9939 15.734C32.3414 13.2615 34.1382 11.4634 36.6087 10.1147C39.0792 8.76611 41.7744 8.0918 44.9187 8.0918C48.063 8.0918 50.9827 8.76611 53.4532 10.1147C55.9238 11.4634 57.7205 13.2615 59.0681 15.734C60.4156 18.2065 61.0894 21.1285 61.0894 24.2753C61.0894 27.6468 60.4156 30.5689 59.0681 33.0413C57.7205 35.5138 55.6992 37.312 53.4532 38.6606C50.9827 40.0092 48.2876 40.6835 44.9187 40.6835C41.7744 40.6835 38.8546 40.0092 36.6087 38.6606ZM41.1006 30.1193C41.999 31.4679 43.3465 32.1423 45.1433 32.1423C46.94 32.1423 48.063 31.4679 49.1859 30.1193C50.0843 28.7707 50.5335 26.9725 50.5335 24.5001C50.5335 22.0276 50.0843 20.2294 49.1859 18.8808C48.2876 17.5322 46.94 16.8579 45.1433 16.8579C43.3465 16.8579 41.999 17.5322 41.1006 18.8808C40.2022 20.2294 39.753 22.0276 39.753 24.5001C39.5284 26.7478 39.9776 28.7707 41.1006 30.1193Z" fill="#FEFEFE"/>
<path d="M61.7632 38.211C59.2927 36.6376 57.7205 34.1652 57.2714 31.2431L66.0305 28.9954C66.4797 30.3441 67.1535 31.2431 68.0518 32.1422C68.9502 32.8165 70.2978 33.2661 72.0945 33.2661C73.2175 33.2661 74.3405 33.0413 75.0143 32.5918C75.688 32.1422 76.1372 31.6927 76.1372 31.0184C76.1372 30.3441 75.688 29.8945 75.0143 29.445C74.3405 28.9954 72.9929 28.7707 70.9716 28.3211C66.9289 27.6468 63.7846 26.523 61.5386 24.9496C59.2927 23.3762 58.3943 21.1285 58.3943 17.9817C58.3943 15.0596 59.7419 12.5872 62.2124 10.789C64.6829 8.99084 68.0518 8.31653 72.0945 8.31653C80.1799 8.31653 84.8964 11.2385 86.2439 17.3074L77.4848 19.7798C76.3618 17.0826 74.5651 15.734 71.8699 15.734C70.9716 15.734 70.2978 15.9587 69.624 16.1835C68.9502 16.633 68.7256 17.0826 68.7256 17.5321C68.7256 18.2064 69.1748 18.656 70.0732 19.1055C70.9716 19.5551 72.5437 20.0046 74.7897 20.4541C79.0569 21.1285 81.9767 22.2523 83.998 23.8257C85.7947 25.3991 86.9177 27.6468 86.9177 30.5688C86.9177 33.7156 85.5701 36.1881 83.0996 37.9863C80.6291 39.7844 77.0356 40.6835 72.3191 40.6835C67.6027 40.6835 64.2338 40.0092 61.7632 38.211Z" fill="#FEFEFE"/>
<path d="M85.5701 0H96.126L95.9014 13.0367H96.126C97.0243 11.4633 98.3719 10.3394 100.169 9.44037C101.965 8.54128 103.762 8.09174 105.783 8.09174C109.377 8.09174 112.072 8.99083 113.869 11.0138C115.666 13.0367 116.564 15.9587 116.564 20.2294V25.1743V40.0092H105.783V25.1743V22.2523C105.783 18.8807 104.211 17.3073 101.292 17.3073C99.7195 17.3073 98.3719 17.7569 97.4735 18.8807C96.5752 20.0046 96.126 21.3532 96.126 23.1514V39.7844H85.5701V0Z" fill="#FEFEFE"/>
<path d="M124.649 17.9817V11.6881H129.366C130.938 11.6881 132.061 11.9129 132.959 12.5872C133.858 13.2615 134.307 14.1606 134.307 15.5092C134.307 18.2065 132.735 19.5551 129.366 19.5551H127.12V24.0505H124.649V17.9817ZM129.59 17.9817C131.163 17.9817 132.061 17.3074 132.061 15.9588C132.061 15.2844 131.836 14.8349 131.387 14.3854C130.938 14.1606 130.264 13.9358 129.59 13.9358H127.12V17.9817H129.59Z" fill="#FEFEFE"/>
<path d="M136.104 18.2064L138.35 11.9128H141.045L143.291 18.2064L145.537 24.2752H143.066L142.168 21.3532H139.922H137.676L136.777 24.2752H134.307L136.104 18.2064ZM139.473 19.555H141.269L139.473 14.3853L137.676 19.555H139.473Z" fill="#FEFEFE"/>
<path d="M148.007 23.8257C147.109 23.3761 146.435 22.4771 145.986 21.578C145.537 20.6789 145.312 19.555 145.312 18.2064C145.312 16.8578 145.537 15.7339 145.986 14.8349C146.435 13.9358 147.109 13.0367 148.007 12.5872C148.906 12.1376 149.804 11.9128 150.927 11.9128C152.499 11.9128 153.622 12.3624 154.52 13.0367C155.419 13.711 155.868 14.8349 156.093 16.1835L153.847 16.8578C153.622 15.9587 153.397 15.2844 152.948 14.6101C152.724 13.9358 151.825 13.4862 151.151 13.4862C150.253 13.4862 149.355 13.9358 148.681 14.6101C148.007 15.5092 147.783 16.4083 147.783 17.9816C147.783 19.3303 148.007 20.4541 148.681 21.3532C149.355 22.2523 150.028 22.4771 151.151 22.4771C152.05 22.4771 152.724 22.2523 153.173 21.8028C153.622 21.3532 154.071 20.4541 154.071 19.555L156.317 20.2294C156.093 21.578 155.643 22.7018 154.52 23.3761C153.622 24.2752 152.499 24.5 150.927 24.5C149.804 24.5 148.906 24.2752 148.007 23.8257Z" fill="#FEFEFE"/>
<path d="M157.889 11.9128H160.36V17.7569L165.076 11.9128H167.771L163.729 16.8578L168.221 24.5H165.525L162.157 18.656L160.36 20.9037V24.5H157.889V11.9128Z" fill="#FEFEFE"/>
<path d="M170.916 18.2064L173.162 11.9128H175.857L178.103 18.2064L180.349 24.2752H177.878L176.98 21.3532H174.734H172.488L171.589 24.2752H169.119L170.916 18.2064ZM174.285 19.555H176.081L174.285 14.3853L172.488 19.555H174.285Z" fill="#FEFEFE"/>
<path d="M182.819 23.8257C181.921 23.3761 181.472 22.4771 181.022 21.578C180.573 20.6789 180.349 19.3303 180.349 18.2064C180.349 16.8578 180.573 15.7339 181.022 14.8349C181.472 13.9358 182.145 13.0367 183.044 12.5872C183.942 12.1376 184.84 11.9128 186.188 11.9128C187.76 11.9128 188.883 12.3624 189.782 13.0367C190.455 13.4862 190.905 14.6101 191.129 15.7339L188.883 16.4083C188.659 15.5092 188.434 14.8349 187.76 14.3853C187.086 13.9358 186.637 13.4862 185.963 13.4862C185.065 13.4862 184.167 13.9358 183.493 14.6101C182.819 15.5092 182.595 16.4083 182.595 17.9816C182.595 19.3303 182.819 20.4541 183.493 21.3532C184.167 22.2523 184.841 22.4771 185.963 22.4771C186.862 22.4771 187.76 22.2523 188.209 21.8028C188.659 21.3532 189.108 20.4541 189.108 19.3303H185.514V17.7569H191.129V21.1284V24.2752H189.557L189.332 22.7018C188.883 23.3761 188.434 23.8257 187.76 24.0505C187.086 24.2752 186.413 24.5 185.514 24.5C184.616 24.5 183.718 24.2752 182.819 23.8257Z" fill="#FEFEFE"/>
<path d="M193.6 11.9128H196.07V24.2752H193.6V11.9128Z" fill="#FEFEFE"/>
<path d="M198.316 18.2064V11.9128H201.011L206.177 20.9037V17.3073V11.9128H208.423V18.2064V24.5H205.728L200.562 15.5092V19.1055V24.5H198.316V18.2064Z" fill="#FEFEFE"/>
<path d="M212.69 23.8257C211.792 23.3761 211.342 22.4771 210.893 21.578C210.444 20.6789 210.219 19.3303 210.219 18.2064C210.219 16.8578 210.444 15.7339 210.893 14.8349C211.342 13.9358 212.016 13.0367 212.915 12.5872C213.813 12.1376 214.711 11.9128 216.059 11.9128C217.631 11.9128 218.754 12.3624 219.652 13.0367C220.326 13.4862 220.775 14.6101 221 15.7339L218.754 16.4083C218.529 15.5092 218.305 14.8349 217.631 14.3853C216.957 13.9358 216.733 13.4862 215.834 13.4862C214.936 13.4862 214.038 13.9358 213.364 14.6101C212.69 15.5092 212.465 16.4083 212.465 17.9816C212.465 19.3303 212.69 20.4541 213.364 21.3532C214.038 22.2523 214.711 22.4771 215.834 22.4771C216.733 22.4771 217.631 22.2523 218.08 21.8028C218.529 21.3532 218.979 20.4541 218.979 19.3303H215.385V17.7569H221V21.1284V24.2752H219.428L219.203 22.7018C218.754 23.3761 218.305 23.8257 217.631 24.0505C216.957 24.2752 216.284 24.5 215.385 24.5C214.487 24.5 213.588 24.2752 212.69 23.8257Z" fill="#FEFEFE"/>
<path d="M124.649 33.9403V27.6467H128.468C130.713 27.6467 132.286 28.0963 133.409 29.2201C134.532 30.344 134.981 31.9174 134.981 33.9403C134.981 35.9632 134.532 37.5366 133.409 38.6605C132.286 39.7843 130.713 40.2339 128.468 40.2339H124.649V33.9403ZM128.692 37.9862C131.387 37.9862 132.959 36.6376 132.959 33.7155C132.959 30.7935 131.612 29.4449 128.692 29.4449H127.12V37.9862H128.692Z" fill="#FEFEFE"/>
<path d="M136.777 27.6467H145.312V29.6697H139.248V32.8165H144.638V34.6146H139.248V37.9862H145.537V40.0091H137.002V27.6467H136.777Z" fill="#FEFEFE"/>
<path d="M147.782 39.3348C146.884 38.6605 146.435 37.7614 146.21 36.6376L148.232 35.9633C148.456 36.8624 148.681 37.3119 149.13 37.7614C149.579 38.211 150.253 38.4358 151.151 38.4358C151.825 38.4358 152.499 38.211 152.948 37.9862C153.397 37.7614 153.622 37.3119 153.622 36.8624C153.622 36.4128 153.622 36.1881 153.397 35.9633C153.173 35.7385 152.948 35.5137 152.499 35.289C152.05 35.0642 151.601 35.0642 150.702 34.8394C149.355 34.6147 148.232 34.1651 147.558 33.4908C146.884 32.8165 146.66 32.1422 146.66 31.0183C146.66 29.8945 147.109 28.9954 147.782 28.3211C148.456 27.6468 149.579 27.422 150.927 27.422C152.274 27.422 153.397 27.6468 154.296 28.3211C155.194 28.9954 155.643 29.8945 155.868 30.7936L153.622 31.4679C153.622 30.7936 153.173 30.344 152.724 29.8945C152.274 29.4449 151.601 29.2202 150.927 29.2202C150.253 29.2202 149.804 29.4449 149.355 29.6697C148.905 29.8945 148.905 30.344 148.905 30.7936C148.905 31.2431 148.905 31.4679 149.13 31.6926C149.355 31.9174 149.579 32.1422 150.028 32.367C150.478 32.5917 150.927 32.5917 151.601 32.8165C153.173 33.0413 154.296 33.4908 154.969 34.1651C155.643 34.8394 155.868 35.5137 155.868 36.6376C155.868 37.3119 155.643 37.9862 155.194 38.6605C154.745 39.1101 154.296 39.5596 153.397 40.0092C152.724 40.2339 151.825 40.4587 150.927 40.4587C149.804 40.2339 148.681 40.0092 147.782 39.3348Z" fill="#FEFEFE"/>
<path d="M157.665 27.6467H160.135V40.0091H157.665V27.6467Z" fill="#FEFEFE"/>
<path d="M164.402 39.5596C163.504 39.11 163.055 38.2109 162.606 37.3119C162.156 36.4128 161.932 35.0642 161.932 33.9403C161.932 32.5917 162.156 31.4678 162.606 30.5687C163.055 29.6697 163.729 28.7706 164.627 28.321C165.525 27.8715 166.424 27.6467 167.771 27.6467C169.343 27.6467 170.466 28.0963 171.365 28.7706C172.263 29.4449 172.712 30.5687 172.937 31.9174L170.691 32.5917C170.466 31.6926 170.242 31.0183 169.568 30.5687C169.119 30.1192 168.445 29.8944 167.547 29.8944C166.648 29.8944 165.75 30.344 165.076 31.0183C164.402 31.6926 164.178 32.8165 164.178 34.3898C164.178 35.7385 164.402 36.8623 165.076 37.7614C165.75 38.6605 166.424 38.8853 167.547 38.8853C168.445 38.8853 169.343 38.6605 169.793 38.2109C170.242 37.7614 170.691 36.8623 170.691 35.7385H167.098V33.9403H172.712V37.3119V40.4587H171.14L170.916 38.8853C170.466 39.5596 170.017 40.0091 169.343 40.2339C168.67 40.4587 167.996 40.6834 167.098 40.6834C166.199 40.2339 165.301 40.0091 164.402 39.5596Z" fill="#FEFEFE"/>
<path d="M175.183 33.9403V27.6467H177.878L183.044 36.6376V33.0412V27.6467H185.29V33.9403V40.2339H182.595L177.429 31.2431V34.8394V40.2339H175.183V33.9403Z" fill="#FEFEFE"/>
</g>
<defs>
<clipPath id="clip0_684_6756">
<rect width="221" height="49" fill="white"/>
</clipPath>
</defs>
</svg>
