<svg width="115" height="116" viewBox="0 0 115 116" fill="none" xmlns="http://www.w3.org/2000/svg">
<path fill-rule="evenodd" clip-rule="evenodd" d="M57.5043 114C88.1423 114 113.009 88.9442 113.009 58C113.009 27.0558 88.1423 2 57.5043 2C26.8663 2 2 27.0558 2 58C2 88.9442 26.8663 114 57.5043 114ZM57.5043 116C89.263 116 115.009 90.0325 115.009 58C115.009 25.9675 89.263 0 57.5043 0C25.7455 0 0 25.9675 0 58C0 90.0325 25.7455 116 57.5043 116Z" fill="white"/>
<path fill-rule="evenodd" clip-rule="evenodd" d="M36.9995 29.1343C37.3086 28.9556 37.6895 28.9552 37.999 29.1334L87.499 57.6334C87.8089 57.8119 88 58.1423 88 58.5C88 58.8577 87.8089 59.1881 87.499 59.3666L37.999 87.8666C37.6895 88.0448 37.3086 88.0444 36.9995 87.8657C36.6904 87.687 36.5 87.3571 36.5 87V30C36.5 29.6429 36.6904 29.313 36.9995 29.1343ZM38.5 31.7297V85.2703L84.9958 58.5L38.5 31.7297Z" fill="white"/>
</svg>
