<svg width="204" height="61" viewBox="0 0 204 61" fill="none" xmlns="http://www.w3.org/2000/svg">
<path d="M142.394 9C106.926 4.5 73.4205 5.94714 38.7669 13.0485C29.8808 14.8626 20.9056 17.4288 13.2666 22.4727C6.51851 26.9194 -0.964532 36.3436 3.20014 44.7502C4.55867 47.4934 7.43162 49.1305 10.2378 50.3472C26.8964 57.6035 46.1608 57.2716 63.9776 57.6919C99.2771 58.5547 134.933 61.2316 169.676 54.9487C176.958 53.6435 184.33 51.8737 190.566 47.8695C196.802 43.8653 201.724 37.2949 201.991 29.9502C202.258 21.7869 196.69 14.3095 189.675 10.0398C179.608 3.9561 167.738 1.45624 156.023 2.0978C145.712 2.65087 130.59 5.26133 123.085 12.9821" stroke="#DEEFFF" stroke-width="4" stroke-miterlimit="10" stroke-linecap="round" stroke-linejoin="round"/>
</svg>
