<svg width="279" height="66" viewBox="0 0 279 66" fill="none" xmlns="http://www.w3.org/2000/svg">
<path d="M2.2002 30.0995C0.400196 38.4995 1.9002 47.9995 8.0002 54.3995C16.2002 62.8995 29.7002 63.6995 41.9002 63.6995C60.1002 63.6995 78.2002 63.1995 96.4002 62.6995C148.1 61.2995 199.9 59.8995 251.6 58.5995C257.2 58.3995 263.2 58.1995 267.8 55.0995C272.9 51.5995 275 45.4995 276.3 39.6995C278.3 30.8995 278.5 20.1995 271 14.6995C266.7 11.4995 261 10.8995 255.6 10.4995C219.9 7.49953 184.2 4.39953 148.4 2.79953C112.4 1.19953 76.2002 0.999533 40.2002 3.79953C33.4002 4.29953 18.7002 3.19953 13.4002 7.39953C7.7002 11.6995 3.6002 23.4995 2.2002 30.0995Z" stroke="black" stroke-width="3" stroke-miterlimit="9.999" stroke-linecap="round" stroke-linejoin="round"/>
</svg>
