<svg width="99" height="47" viewBox="0 0 99 47" fill="none" xmlns="http://www.w3.org/2000/svg">
<path d="M33.7379 45.9241C31.1006 45.9948 28.6491 45.3704 26.3487 44.157C26.1744 44.0627 26.0117 43.7447 26.0117 43.5208C25.9885 38.7496 26.093 33.9784 25.942 29.2072C25.8258 25.4374 24.3154 22.2448 21.1669 20.0418C18.6689 18.2864 15.2415 18.4278 12.6855 20.5248C10.0481 22.6807 8.83981 25.6023 8.53773 28.9127C8.22404 32.1995 8.92114 35.2979 10.8846 37.9839C12.5925 40.3282 14.8233 41.7419 17.8092 41.5417C20.098 41.3885 21.8407 40.1869 23.2698 38.4433C23.5486 38.1017 23.8042 37.7247 24.0947 37.3241C24.0947 37.76 24.0947 38.1488 24.0947 38.5493C24.0947 40.6699 24.0947 42.7904 24.1063 44.911C24.1063 45.3468 23.9901 45.5825 23.5835 45.7474C16.7519 48.5748 8.8979 46.5131 4.32027 40.6699C-0.443247 34.6617 -0.48972 26.1206 4.16924 20.03C8.34022 14.5873 15.288 12.1958 21.7478 14.1396C26.976 15.7182 30.6358 19.1346 32.6807 24.2946C33.4707 26.2856 33.7728 28.3708 33.7844 30.5031C33.796 35.5924 33.7844 40.6699 33.7844 45.7592C33.7844 45.7945 33.7612 45.8298 33.7379 45.9241Z" fill="#1A1F35"/>
<path d="M96.7903 18.3565C95.9189 20.053 94.9662 21.5962 93.572 22.8803C93.1189 22.4091 92.6658 21.9261 92.2011 21.4784C90.4699 19.8291 88.3902 19.0634 86.0433 19.0045C85.0209 18.9809 84.1031 19.3108 83.3246 19.9941C81.9769 21.1839 81.9537 23.1866 83.4408 24.188C84.5794 24.9655 85.8574 25.5664 87.1355 26.0965C89.1454 26.9447 91.2832 27.4984 93.177 28.6529C95.2683 29.9252 96.9994 31.5156 97.836 33.9189C99.0326 37.3825 97.7895 41.6118 94.9662 43.909C92.689 45.7704 90.0633 46.5832 87.2052 46.8306C82.3836 47.2547 78.4449 45.3109 74.7852 42.1065C75.8424 40.6104 76.8765 39.1378 78.0151 37.5238C78.7586 38.3131 79.2931 39.0553 79.9902 39.5737C82.6508 41.5646 85.5902 42.2833 88.7969 41.1994C90.8301 40.5044 91.9571 38.0304 91.2135 36.063C90.7488 34.8143 89.7147 34.1074 88.5878 33.6244C86.6243 32.788 84.6143 32.1047 82.6508 31.28C80.513 30.3847 78.5727 29.1713 77.1321 27.2981C74.6922 24.1527 74.9478 19.9352 77.7478 16.8722C79.4906 14.9637 81.6865 13.9387 84.2425 13.7385C88.9828 13.3615 93.0492 14.9755 96.5579 18.1563C96.6393 18.2741 96.7206 18.3094 96.7903 18.3565Z" fill="#1A1F35"/>
<path d="M60.5063 14.6339C59.7628 16.3185 59.0541 17.9443 58.3105 19.6172C57.8341 19.4993 57.381 19.3462 56.9047 19.2637C52.9544 18.5922 50.0615 20.1355 47.9004 23.5284C46.4249 25.8374 45.9021 28.4292 45.9137 31.1505C45.9253 35.2384 45.9369 39.3146 45.9253 43.4025C45.9253 43.5792 45.8091 43.8384 45.6697 43.9091C43.3461 45.1814 40.8365 45.7587 38.1991 45.794C38.1294 45.794 38.0481 45.7587 37.9435 45.7351C37.9319 45.582 37.9087 45.4288 37.9087 45.2756C37.9087 40.3631 37.839 35.4623 37.9203 30.5497C38.0248 24.5651 40.5925 19.8056 45.4722 16.4717C49.9801 13.3851 54.9179 12.7961 60.1113 14.4807C60.2391 14.5161 60.3437 14.575 60.5063 14.6339Z" fill="#1A1F35"/>
<path d="M70.975 14.1038C70.975 14.2688 70.975 14.4219 70.975 14.5751C70.975 24.1882 70.9866 33.813 70.9634 43.4261C70.9634 43.6264 70.8007 43.9209 70.6264 44.0034C68.3492 45.1579 65.9442 45.8059 63.3766 45.7941C62.9119 45.7941 62.9583 45.5113 62.9583 45.2168C62.9699 43.273 62.9816 41.3292 62.9816 39.3853C62.9816 31.8339 62.9816 24.2706 62.9699 16.7192C62.9699 16.3304 63.028 16.0477 63.4114 15.8709C65.7351 14.7164 68.1866 14.0803 70.7775 14.0449C70.8239 14.0449 70.8588 14.0685 70.975 14.1038Z" fill="#1A1F35"/>
<path d="M66.8614 9.15615C64.3286 9.07368 62.4348 7.05918 62.4813 4.49097C62.5162 1.88742 64.561 -0.0799655 67.1403 0.0024998C69.6498 0.0849651 71.6133 2.1466 71.532 4.60878C71.4274 7.30657 69.4523 9.23862 66.8614 9.15615Z" fill="#1A1F35"/>
</svg>
