<svg width="730" height="565" viewBox="0 0 730 565" fill="none" xmlns="http://www.w3.org/2000/svg">
<g clip-path="url(#clip0_27_29416)">
<path d="M152 85.2676H1389" stroke="#FEFEFE" stroke-miterlimit="10" stroke-linecap="round" stroke-linejoin="round"/>
<path d="M152 96.8027H1389" stroke="#FEFEFE" stroke-miterlimit="10" stroke-linecap="round" stroke-linejoin="round"/>
<path d="M152 189.141H1367.71" stroke="#FEFEFE" stroke-miterlimit="10" stroke-linecap="round" stroke-linejoin="round"/>
<path d="M152 201.676H1367.71" stroke="#FEFEFE" stroke-miterlimit="10" stroke-linecap="round" stroke-linejoin="round"/>
<path d="M152 294.434H1384.83" stroke="#FEFEFE" stroke-miterlimit="10" stroke-linecap="round" stroke-linejoin="round"/>
<path d="M152 306.969H1384.83" stroke="#FEFEFE" stroke-miterlimit="10" stroke-linecap="round" stroke-linejoin="round"/>
<path d="M152 388.443H1382.95" stroke="#FEFEFE" stroke-miterlimit="10" stroke-linecap="round" stroke-linejoin="round"/>
<path d="M152 400.979H1382.95" stroke="#FEFEFE" stroke-miterlimit="10" stroke-linecap="round" stroke-linejoin="round"/>
<path d="M152 493.109H1384.83" stroke="#FEFEFE" stroke-miterlimit="10" stroke-linecap="round" stroke-linejoin="round"/>
<path d="M152 514H1384.83" stroke="#FEFEFE" stroke-miterlimit="10" stroke-linecap="round" stroke-linejoin="round"/>
<path d="M197.505 458.012H181.641C178.719 458.012 176.214 460.519 176.214 463.443V492.691H202.933V463.443C202.933 460.519 200.637 458.012 197.505 458.012Z" stroke="#FEFEFE" stroke-miterlimit="10" stroke-linecap="round" stroke-linejoin="round"/>
<path d="M198.967 454.668H180.389V458.219H198.967V454.668Z" stroke="#FEFEFE" stroke-miterlimit="10" stroke-linecap="round" stroke-linejoin="round"/>
<path d="M201.889 450.49H177.258V454.668H201.889V450.49Z" stroke="#FEFEFE" stroke-miterlimit="10" stroke-linecap="round" stroke-linejoin="round"/>
<path d="M200.428 464.07H178.928V487.051H200.428V464.07Z" stroke="#FEFEFE" stroke-miterlimit="10" stroke-linecap="round" stroke-linejoin="round"/>
<path d="M228.19 458.012H212.326C209.403 458.012 206.898 460.519 206.898 463.443V492.691H233.617V463.443C233.617 460.519 231.112 458.012 228.19 458.012Z" stroke="#FEFEFE" stroke-miterlimit="10" stroke-linecap="round" stroke-linejoin="round"/>
<path d="M229.651 454.668H211.073V458.219H229.651V454.668Z" stroke="#FEFEFE" stroke-miterlimit="10" stroke-linecap="round" stroke-linejoin="round"/>
<path d="M232.574 450.49H207.942V454.668H232.574V450.49Z" stroke="#FEFEFE" stroke-miterlimit="10" stroke-linecap="round" stroke-linejoin="round"/>
<path d="M231.113 464.07H209.612V487.051H231.113V464.07Z" stroke="#FEFEFE" stroke-miterlimit="10" stroke-linecap="round" stroke-linejoin="round"/>
<path d="M258.876 458.012H243.011C240.089 458.012 237.584 460.519 237.584 463.443V492.691H264.303V463.443C264.303 460.519 261.798 458.012 258.876 458.012Z" stroke="#FEFEFE" stroke-miterlimit="10" stroke-linecap="round" stroke-linejoin="round"/>
<path d="M260.128 454.668H241.55V458.219H260.128V454.668Z" stroke="#FEFEFE" stroke-miterlimit="10" stroke-linecap="round" stroke-linejoin="round"/>
<path d="M263.259 450.49H238.628V454.668H263.259V450.49Z" stroke="#FEFEFE" stroke-miterlimit="10" stroke-linecap="round" stroke-linejoin="round"/>
<path d="M261.798 464.07H240.298V487.051H261.798V464.07Z" stroke="#FEFEFE" stroke-miterlimit="10" stroke-linecap="round" stroke-linejoin="round"/>
<path d="M289.56 458.012H273.696C270.773 458.012 268.269 460.519 268.269 463.443V492.691H294.987V463.443C294.987 460.519 292.483 458.012 289.56 458.012Z" stroke="#FEFEFE" stroke-miterlimit="10" stroke-linecap="round" stroke-linejoin="round"/>
<path d="M290.812 454.668H272.234V458.219H290.812V454.668Z" stroke="#FEFEFE" stroke-miterlimit="10" stroke-linecap="round" stroke-linejoin="round"/>
<path d="M293.944 450.49H269.312V454.668H293.944V450.49Z" stroke="#FEFEFE" stroke-miterlimit="10" stroke-linecap="round" stroke-linejoin="round"/>
<path d="M292.274 464.07H270.773V487.051H292.274V464.07Z" stroke="#FEFEFE" stroke-miterlimit="10" stroke-linecap="round" stroke-linejoin="round"/>
<path d="M320.037 458.012H304.172C301.25 458.012 298.745 460.519 298.745 463.443V492.691H325.464V463.443C325.673 460.519 323.168 458.012 320.037 458.012Z" stroke="#FEFEFE" stroke-miterlimit="10" stroke-linecap="round" stroke-linejoin="round"/>
<path d="M321.498 454.668H302.92V458.219H321.498V454.668Z" stroke="#FEFEFE" stroke-miterlimit="10" stroke-linecap="round" stroke-linejoin="round"/>
<path d="M324.63 450.49H299.998V454.668H324.63V450.49Z" stroke="#FEFEFE" stroke-miterlimit="10" stroke-linecap="round" stroke-linejoin="round"/>
<path d="M322.959 464.07H301.459V487.051H322.959V464.07Z" stroke="#FEFEFE" stroke-miterlimit="10" stroke-linecap="round" stroke-linejoin="round"/>
<path d="M350.721 458.012H334.857C331.935 458.012 329.43 460.519 329.43 463.443V492.691H356.149V463.443C356.149 460.519 353.852 458.012 350.721 458.012Z" stroke="#FEFEFE" stroke-miterlimit="10" stroke-linecap="round" stroke-linejoin="round"/>
<path d="M352.182 454.668H333.604V458.219H352.182V454.668Z" stroke="#FEFEFE" stroke-miterlimit="10" stroke-linecap="round" stroke-linejoin="round"/>
<path d="M355.105 450.49H330.474V454.668H355.105V450.49Z" stroke="#FEFEFE" stroke-miterlimit="10" stroke-linecap="round" stroke-linejoin="round"/>
<path d="M353.644 464.07H332.144V487.051H353.644V464.07Z" stroke="#FEFEFE" stroke-miterlimit="10" stroke-linecap="round" stroke-linejoin="round"/>
<path d="M381.407 458.012H365.543C362.62 458.012 360.115 460.519 360.115 463.443V492.691H386.834V463.443C386.834 460.519 384.329 458.012 381.407 458.012Z" stroke="#FEFEFE" stroke-miterlimit="10" stroke-linecap="round" stroke-linejoin="round"/>
<path d="M382.659 454.668H364.081V458.219H382.659V454.668Z" stroke="#FEFEFE" stroke-miterlimit="10" stroke-linecap="round" stroke-linejoin="round"/>
<path d="M385.791 450.49H361.159V454.668H385.791V450.49Z" stroke="#FEFEFE" stroke-miterlimit="10" stroke-linecap="round" stroke-linejoin="round"/>
<path d="M384.329 464.07H362.829V487.051H384.329V464.07Z" stroke="#FEFEFE" stroke-miterlimit="10" stroke-linecap="round" stroke-linejoin="round"/>
<path d="M412.091 458.012H396.227C393.305 458.012 390.8 460.519 390.8 463.443V492.691H417.519V463.443C417.519 460.519 415.014 458.012 412.091 458.012Z" stroke="#FEFEFE" stroke-miterlimit="10" stroke-linecap="round" stroke-linejoin="round"/>
<path d="M413.344 454.668H394.766V458.219H413.344V454.668Z" stroke="#FEFEFE" stroke-miterlimit="10" stroke-linecap="round" stroke-linejoin="round"/>
<path d="M416.475 450.49H391.844V454.668H416.475V450.49Z" stroke="#FEFEFE" stroke-miterlimit="10" stroke-linecap="round" stroke-linejoin="round"/>
<path d="M414.805 464.07H393.305V487.051H414.805V464.07Z" stroke="#FEFEFE" stroke-miterlimit="10" stroke-linecap="round" stroke-linejoin="round"/>
<path d="M442.567 458.012H426.912C423.989 458.012 421.484 460.519 421.484 463.443V492.691H448.203V463.443C448.203 460.519 445.698 458.012 442.567 458.012Z" stroke="#FEFEFE" stroke-miterlimit="10" stroke-linecap="round" stroke-linejoin="round"/>
<path d="M444.028 454.668H425.45V458.219H444.028V454.668Z" stroke="#FEFEFE" stroke-miterlimit="10" stroke-linecap="round" stroke-linejoin="round"/>
<path d="M447.16 450.49H422.528V454.668H447.16V450.49Z" stroke="#FEFEFE" stroke-miterlimit="10" stroke-linecap="round" stroke-linejoin="round"/>
<path d="M445.49 464.07H423.989V487.051H445.49V464.07Z" stroke="#FEFEFE" stroke-miterlimit="10" stroke-linecap="round" stroke-linejoin="round"/>
<path d="M473.253 458.012H457.388C454.466 458.012 451.961 460.519 451.961 463.443V492.691H478.68V463.443C478.889 460.519 476.384 458.012 473.253 458.012Z" stroke="#FEFEFE" stroke-miterlimit="10" stroke-linecap="round" stroke-linejoin="round"/>
<path d="M474.714 454.668H456.136V458.219H474.714V454.668Z" stroke="#FEFEFE" stroke-miterlimit="10" stroke-linecap="round" stroke-linejoin="round"/>
<path d="M477.844 450.49H453.213V454.668H477.844V450.49Z" stroke="#FEFEFE" stroke-miterlimit="10" stroke-linecap="round" stroke-linejoin="round"/>
<path d="M476.175 464.07H454.675V487.051H476.175V464.07Z" stroke="#FEFEFE" stroke-miterlimit="10" stroke-linecap="round" stroke-linejoin="round"/>
<path d="M503.938 458.012H488.074C485.151 458.012 482.646 460.519 482.646 463.443V492.691H509.365V463.443C509.365 460.519 507.069 458.012 503.938 458.012Z" stroke="#FEFEFE" stroke-miterlimit="10" stroke-linecap="round" stroke-linejoin="round"/>
<path d="M505.399 454.668H486.821V458.219H505.399V454.668Z" stroke="#FEFEFE" stroke-miterlimit="10" stroke-linecap="round" stroke-linejoin="round"/>
<path d="M508.322 450.49H483.69V454.668H508.322V450.49Z" stroke="#FEFEFE" stroke-miterlimit="10" stroke-linecap="round" stroke-linejoin="round"/>
<path d="M506.861 464.07H485.36V487.051H506.861V464.07Z" stroke="#FEFEFE" stroke-miterlimit="10" stroke-linecap="round" stroke-linejoin="round"/>
<path d="M534.623 458.012H518.758C515.836 458.012 513.331 460.519 513.331 463.443V492.691H540.05V463.443C540.05 460.519 537.545 458.012 534.623 458.012Z" stroke="#FEFEFE" stroke-miterlimit="10" stroke-linecap="round" stroke-linejoin="round"/>
<path d="M535.875 454.668H517.297V458.219H535.875V454.668Z" stroke="#FEFEFE" stroke-miterlimit="10" stroke-linecap="round" stroke-linejoin="round"/>
<path d="M539.006 450.49H514.375V454.668H539.006V450.49Z" stroke="#FEFEFE" stroke-miterlimit="10" stroke-linecap="round" stroke-linejoin="round"/>
<path d="M537.545 464.07H516.045V487.051H537.545V464.07Z" stroke="#FEFEFE" stroke-miterlimit="10" stroke-linecap="round" stroke-linejoin="round"/>
<path d="M565.307 458.012H549.443C546.52 458.012 544.016 460.519 544.016 463.443V492.691H570.734V463.443C570.734 460.519 568.23 458.012 565.307 458.012Z" stroke="#FEFEFE" stroke-miterlimit="10" stroke-linecap="round" stroke-linejoin="round"/>
<path d="M566.559 454.668H547.981V458.219H566.559V454.668Z" stroke="#FEFEFE" stroke-miterlimit="10" stroke-linecap="round" stroke-linejoin="round"/>
<path d="M569.691 450.49H545.06V454.668H569.691V450.49Z" stroke="#FEFEFE" stroke-miterlimit="10" stroke-linecap="round" stroke-linejoin="round"/>
<path d="M568.021 464.07H546.521V487.051H568.021V464.07Z" stroke="#FEFEFE" stroke-miterlimit="10" stroke-linecap="round" stroke-linejoin="round"/>
<path d="M595.784 458.012H579.919C576.997 458.012 574.492 460.519 574.492 463.443V492.691H601.211V463.443C601.42 460.519 598.915 458.012 595.784 458.012Z" stroke="#FEFEFE" stroke-miterlimit="10" stroke-linecap="round" stroke-linejoin="round"/>
<path d="M597.245 454.668H578.667V458.219H597.245V454.668Z" stroke="#FEFEFE" stroke-miterlimit="10" stroke-linecap="round" stroke-linejoin="round"/>
<path d="M600.376 450.49H575.744V454.668H600.376V450.49Z" stroke="#FEFEFE" stroke-miterlimit="10" stroke-linecap="round" stroke-linejoin="round"/>
<path d="M598.706 464.07H577.206V487.051H598.706V464.07Z" stroke="#FEFEFE" stroke-miterlimit="10" stroke-linecap="round" stroke-linejoin="round"/>
<path d="M626.468 458.012H610.604C607.682 458.012 605.177 460.519 605.177 463.443V492.691H631.896V463.443C631.896 460.519 629.599 458.012 626.468 458.012Z" stroke="#FEFEFE" stroke-miterlimit="10" stroke-linecap="round" stroke-linejoin="round"/>
<path d="M627.93 454.668H609.352V458.219H627.93V454.668Z" stroke="#FEFEFE" stroke-miterlimit="10" stroke-linecap="round" stroke-linejoin="round"/>
<path d="M631.061 450.49H606.43V454.668H631.061V450.49Z" stroke="#FEFEFE" stroke-miterlimit="10" stroke-linecap="round" stroke-linejoin="round"/>
<path d="M629.391 464.07H607.891V487.051H629.391V464.07Z" stroke="#FEFEFE" stroke-miterlimit="10" stroke-linecap="round" stroke-linejoin="round"/>
<path d="M657.154 458.012H641.29C638.367 458.012 635.862 460.519 635.862 463.443V492.691H662.581V463.443C662.581 460.519 660.285 458.012 657.154 458.012Z" stroke="#FEFEFE" stroke-miterlimit="10" stroke-linecap="round" stroke-linejoin="round"/>
<path d="M658.615 454.668H640.037V458.219H658.615V454.668Z" stroke="#FEFEFE" stroke-miterlimit="10" stroke-linecap="round" stroke-linejoin="round"/>
<path d="M661.538 450.49H636.906V454.668H661.538V450.49Z" stroke="#FEFEFE" stroke-miterlimit="10" stroke-linecap="round" stroke-linejoin="round"/>
<path d="M660.077 464.07H638.576V487.051H660.077V464.07Z" stroke="#FEFEFE" stroke-miterlimit="10" stroke-linecap="round" stroke-linejoin="round"/>
<path d="M687.838 458.012H671.974C669.052 458.012 666.547 460.519 666.547 463.443V492.691H693.266V463.443C693.266 460.519 690.761 458.012 687.838 458.012Z" stroke="#FEFEFE" stroke-miterlimit="10" stroke-linecap="round" stroke-linejoin="round"/>
<path d="M689.091 454.668H670.513V458.219H689.091V454.668Z" stroke="#FEFEFE" stroke-miterlimit="10" stroke-linecap="round" stroke-linejoin="round"/>
<path d="M692.222 450.49H667.591V454.668H692.222V450.49Z" stroke="#FEFEFE" stroke-miterlimit="10" stroke-linecap="round" stroke-linejoin="round"/>
<path d="M690.761 464.07H669.261V487.051H690.761V464.07Z" stroke="#FEFEFE" stroke-miterlimit="10" stroke-linecap="round" stroke-linejoin="round"/>
<path d="M718.524 458.012H702.66C699.737 458.012 697.232 460.519 697.232 463.443V492.691H723.951V463.443C723.951 460.519 721.446 458.012 718.524 458.012Z" stroke="#FEFEFE" stroke-miterlimit="10" stroke-linecap="round" stroke-linejoin="round"/>
<path d="M719.776 454.668H701.198V458.219H719.776V454.668Z" stroke="#FEFEFE" stroke-miterlimit="10" stroke-linecap="round" stroke-linejoin="round"/>
<path d="M722.908 450.49H698.276V454.668H722.908V450.49Z" stroke="#FEFEFE" stroke-miterlimit="10" stroke-linecap="round" stroke-linejoin="round"/>
<path d="M721.238 464.07H699.737V487.051H721.238V464.07Z" stroke="#FEFEFE" stroke-miterlimit="10" stroke-linecap="round" stroke-linejoin="round"/>
<path d="M210.865 415.186H195.209C192.287 415.186 189.782 417.692 189.782 420.617V449.865H216.501V420.617C216.501 417.692 213.996 415.186 210.865 415.186Z" stroke="#FEFEFE" stroke-miterlimit="10" stroke-linecap="round" stroke-linejoin="round"/>
<path d="M212.326 411.842H193.748V415.393H212.326V411.842Z" stroke="#FEFEFE" stroke-miterlimit="10" stroke-linecap="round" stroke-linejoin="round"/>
<path d="M215.458 407.664H190.826V411.842H215.458V407.664Z" stroke="#FEFEFE" stroke-miterlimit="10" stroke-linecap="round" stroke-linejoin="round"/>
<path d="M213.787 421.244H192.287V444.225H213.787V421.244Z" stroke="#FEFEFE" stroke-miterlimit="10" stroke-linecap="round" stroke-linejoin="round"/>
<path d="M241.549 415.186H225.685C222.763 415.186 220.258 417.692 220.258 420.617V449.865H246.977V420.617C247.185 417.692 244.681 415.186 241.549 415.186Z" stroke="#FEFEFE" stroke-miterlimit="10" stroke-linecap="round" stroke-linejoin="round"/>
<path d="M243.011 411.842H224.433V415.393H243.011V411.842Z" stroke="#FEFEFE" stroke-miterlimit="10" stroke-linecap="round" stroke-linejoin="round"/>
<path d="M246.141 407.664H221.51V411.842H246.141V407.664Z" stroke="#FEFEFE" stroke-miterlimit="10" stroke-linecap="round" stroke-linejoin="round"/>
<path d="M244.472 421.244H222.972V444.225H244.472V421.244Z" stroke="#FEFEFE" stroke-miterlimit="10" stroke-linecap="round" stroke-linejoin="round"/>
<path d="M272.235 415.186H256.371C253.448 415.186 250.943 417.692 250.943 420.617V449.865H277.662V420.617C277.662 417.692 275.366 415.186 272.235 415.186Z" stroke="#FEFEFE" stroke-miterlimit="10" stroke-linecap="round" stroke-linejoin="round"/>
<path d="M273.696 411.842H255.118V415.393H273.696V411.842Z" stroke="#FEFEFE" stroke-miterlimit="10" stroke-linecap="round" stroke-linejoin="round"/>
<path d="M276.619 407.664H251.987V411.842H276.619V407.664Z" stroke="#FEFEFE" stroke-miterlimit="10" stroke-linecap="round" stroke-linejoin="round"/>
<path d="M275.158 421.244H253.657V444.225H275.158V421.244Z" stroke="#FEFEFE" stroke-miterlimit="10" stroke-linecap="round" stroke-linejoin="round"/>
<path d="M302.92 415.186H287.055C284.133 415.186 281.628 417.692 281.628 420.617V449.865H308.347V420.617C308.347 417.692 305.842 415.186 302.92 415.186Z" stroke="#FEFEFE" stroke-miterlimit="10" stroke-linecap="round" stroke-linejoin="round"/>
<path d="M304.172 411.842H285.594V415.393H304.172V411.842Z" stroke="#FEFEFE" stroke-miterlimit="10" stroke-linecap="round" stroke-linejoin="round"/>
<path d="M307.303 407.664H282.672V411.842H307.303V407.664Z" stroke="#FEFEFE" stroke-miterlimit="10" stroke-linecap="round" stroke-linejoin="round"/>
<path d="M305.842 421.244H284.342V444.225H305.842V421.244Z" stroke="#FEFEFE" stroke-miterlimit="10" stroke-linecap="round" stroke-linejoin="round"/>
<path d="M333.605 415.186H317.741C314.818 415.186 312.313 417.692 312.313 420.617V449.865H339.032V420.617C339.032 417.692 336.527 415.186 333.605 415.186Z" stroke="#FEFEFE" stroke-miterlimit="10" stroke-linecap="round" stroke-linejoin="round"/>
<path d="M334.857 411.842H316.279V415.393H334.857V411.842Z" stroke="#FEFEFE" stroke-miterlimit="10" stroke-linecap="round" stroke-linejoin="round"/>
<path d="M337.989 407.664H313.357V411.842H337.989V407.664Z" stroke="#FEFEFE" stroke-miterlimit="10" stroke-linecap="round" stroke-linejoin="round"/>
<path d="M336.319 421.244H314.818V444.225H336.319V421.244Z" stroke="#FEFEFE" stroke-miterlimit="10" stroke-linecap="round" stroke-linejoin="round"/>
<path d="M364.081 415.186H348.216C345.294 415.186 342.789 417.692 342.789 420.617V449.865H369.508V420.617C369.717 417.692 367.212 415.186 364.081 415.186Z" stroke="#FEFEFE" stroke-miterlimit="10" stroke-linecap="round" stroke-linejoin="round"/>
<path d="M365.542 411.842H346.964V415.393H365.542V411.842Z" stroke="#FEFEFE" stroke-miterlimit="10" stroke-linecap="round" stroke-linejoin="round"/>
<path d="M368.672 407.664H344.041V411.842H368.672V407.664Z" stroke="#FEFEFE" stroke-miterlimit="10" stroke-linecap="round" stroke-linejoin="round"/>
<path d="M367.003 421.244H345.503V444.225H367.003V421.244Z" stroke="#FEFEFE" stroke-miterlimit="10" stroke-linecap="round" stroke-linejoin="round"/>
<path d="M394.766 415.186H378.902C375.979 415.186 373.475 417.692 373.475 420.617V449.865H400.193V420.617C400.402 417.692 397.897 415.186 394.766 415.186Z" stroke="#FEFEFE" stroke-miterlimit="10" stroke-linecap="round" stroke-linejoin="round"/>
<path d="M396.227 411.842H377.649V415.393H396.227V411.842Z" stroke="#FEFEFE" stroke-miterlimit="10" stroke-linecap="round" stroke-linejoin="round"/>
<path d="M399.358 407.664H374.727V411.842H399.358V407.664Z" stroke="#FEFEFE" stroke-miterlimit="10" stroke-linecap="round" stroke-linejoin="round"/>
<path d="M397.689 421.244H376.188V444.225H397.689V421.244Z" stroke="#FEFEFE" stroke-miterlimit="10" stroke-linecap="round" stroke-linejoin="round"/>
<path d="M425.451 415.186H409.586C406.664 415.186 404.159 417.692 404.159 420.617V449.865H430.878V420.617C430.878 417.692 428.582 415.186 425.451 415.186Z" stroke="#FEFEFE" stroke-miterlimit="10" stroke-linecap="round" stroke-linejoin="round"/>
<path d="M426.912 411.842H408.334V415.393H426.912V411.842Z" stroke="#FEFEFE" stroke-miterlimit="10" stroke-linecap="round" stroke-linejoin="round"/>
<path d="M429.835 407.664H405.203V411.842H429.835V407.664Z" stroke="#FEFEFE" stroke-miterlimit="10" stroke-linecap="round" stroke-linejoin="round"/>
<path d="M428.373 421.244H406.873V444.225H428.373V421.244Z" stroke="#FEFEFE" stroke-miterlimit="10" stroke-linecap="round" stroke-linejoin="round"/>
<path d="M456.135 415.186H440.271C437.349 415.186 434.844 417.692 434.844 420.617V449.865H461.563V420.617C461.563 417.692 459.058 415.186 456.135 415.186Z" stroke="#FEFEFE" stroke-miterlimit="10" stroke-linecap="round" stroke-linejoin="round"/>
<path d="M457.388 411.842H438.81V415.393H457.388V411.842Z" stroke="#FEFEFE" stroke-miterlimit="10" stroke-linecap="round" stroke-linejoin="round"/>
<path d="M460.519 407.664H435.888V411.842H460.519V407.664Z" stroke="#FEFEFE" stroke-miterlimit="10" stroke-linecap="round" stroke-linejoin="round"/>
<path d="M459.058 421.244H437.558V444.225H459.058V421.244Z" stroke="#FEFEFE" stroke-miterlimit="10" stroke-linecap="round" stroke-linejoin="round"/>
<path d="M486.821 415.186H470.957C468.034 415.186 465.529 417.692 465.529 420.617V449.865H492.248V420.617C492.248 417.692 489.743 415.186 486.821 415.186Z" stroke="#FEFEFE" stroke-miterlimit="10" stroke-linecap="round" stroke-linejoin="round"/>
<path d="M488.073 411.842H469.495V415.393H488.073V411.842Z" stroke="#FEFEFE" stroke-miterlimit="10" stroke-linecap="round" stroke-linejoin="round"/>
<path d="M491.205 407.664H466.573V411.842H491.205V407.664Z" stroke="#FEFEFE" stroke-miterlimit="10" stroke-linecap="round" stroke-linejoin="round"/>
<path d="M489.535 421.244H468.034V444.225H489.535V421.244Z" stroke="#FEFEFE" stroke-miterlimit="10" stroke-linecap="round" stroke-linejoin="round"/>
<path d="M517.297 415.186H501.433C498.511 415.186 496.006 417.692 496.006 420.617V449.865H522.933V420.617C522.933 417.692 520.429 415.186 517.297 415.186Z" stroke="#FEFEFE" stroke-miterlimit="10" stroke-linecap="round" stroke-linejoin="round"/>
<path d="M518.759 411.842H500.181V415.393H518.759V411.842Z" stroke="#FEFEFE" stroke-miterlimit="10" stroke-linecap="round" stroke-linejoin="round"/>
<path d="M521.889 407.664H497.258V411.842H521.889V407.664Z" stroke="#FEFEFE" stroke-miterlimit="10" stroke-linecap="round" stroke-linejoin="round"/>
<path d="M520.22 421.244H498.72V444.225H520.22V421.244Z" stroke="#FEFEFE" stroke-miterlimit="10" stroke-linecap="round" stroke-linejoin="round"/>
<path d="M547.982 415.186H532.118C529.195 415.186 526.69 417.692 526.69 420.617V449.865H553.409V420.617C553.409 417.692 551.113 415.186 547.982 415.186Z" stroke="#FEFEFE" stroke-miterlimit="10" stroke-linecap="round" stroke-linejoin="round"/>
<path d="M549.443 411.842H530.865V415.393H549.443V411.842Z" stroke="#FEFEFE" stroke-miterlimit="10" stroke-linecap="round" stroke-linejoin="round"/>
<path d="M552.366 407.664H527.734V411.842H552.366V407.664Z" stroke="#FEFEFE" stroke-miterlimit="10" stroke-linecap="round" stroke-linejoin="round"/>
<path d="M550.905 421.244H529.404V444.225H550.905V421.244Z" stroke="#FEFEFE" stroke-miterlimit="10" stroke-linecap="round" stroke-linejoin="round"/>
<path d="M578.667 415.186H562.802C559.88 415.186 557.375 417.692 557.375 420.617V449.865H584.094V420.617C584.094 417.692 581.798 415.186 578.667 415.186Z" stroke="#FEFEFE" stroke-miterlimit="10" stroke-linecap="round" stroke-linejoin="round"/>
<path d="M580.128 411.842H561.55V415.393H580.128V411.842Z" stroke="#FEFEFE" stroke-miterlimit="10" stroke-linecap="round" stroke-linejoin="round"/>
<path d="M583.05 407.664H558.419V411.842H583.05V407.664Z" stroke="#FEFEFE" stroke-miterlimit="10" stroke-linecap="round" stroke-linejoin="round"/>
<path d="M581.589 421.244H560.089V444.225H581.589V421.244Z" stroke="#FEFEFE" stroke-miterlimit="10" stroke-linecap="round" stroke-linejoin="round"/>
<path d="M609.352 415.186H593.488C590.565 415.186 588.061 417.692 588.061 420.617V449.865H614.779V420.617C614.779 417.692 612.275 415.186 609.352 415.186Z" stroke="#FEFEFE" stroke-miterlimit="10" stroke-linecap="round" stroke-linejoin="round"/>
<path d="M610.604 411.842H592.026V415.393H610.604V411.842Z" stroke="#FEFEFE" stroke-miterlimit="10" stroke-linecap="round" stroke-linejoin="round"/>
<path d="M613.736 407.664H589.104V411.842H613.736V407.664Z" stroke="#FEFEFE" stroke-miterlimit="10" stroke-linecap="round" stroke-linejoin="round"/>
<path d="M612.275 421.244H590.774V444.225H612.275V421.244Z" stroke="#FEFEFE" stroke-miterlimit="10" stroke-linecap="round" stroke-linejoin="round"/>
<path d="M640.037 415.186H624.172C621.25 415.186 618.745 417.692 618.745 420.617V449.865H645.464V420.617C645.464 417.692 642.959 415.186 640.037 415.186Z" stroke="#FEFEFE" stroke-miterlimit="10" stroke-linecap="round" stroke-linejoin="round"/>
<path d="M641.289 411.842H622.711V415.393H641.289V411.842Z" stroke="#FEFEFE" stroke-miterlimit="10" stroke-linecap="round" stroke-linejoin="round"/>
<path d="M644.421 407.664H619.789V411.842H644.421V407.664Z" stroke="#FEFEFE" stroke-miterlimit="10" stroke-linecap="round" stroke-linejoin="round"/>
<path d="M642.75 421.244H621.25V444.225H642.75V421.244Z" stroke="#FEFEFE" stroke-miterlimit="10" stroke-linecap="round" stroke-linejoin="round"/>
<path d="M670.513 415.186H654.649C651.727 415.186 649.222 417.692 649.222 420.617V449.865H675.941V420.617C676.149 417.692 673.644 415.186 670.513 415.186Z" stroke="#FEFEFE" stroke-miterlimit="10" stroke-linecap="round" stroke-linejoin="round"/>
<path d="M671.974 411.842H653.396V415.393H671.974V411.842Z" stroke="#FEFEFE" stroke-miterlimit="10" stroke-linecap="round" stroke-linejoin="round"/>
<path d="M675.106 407.664H650.475V411.842H675.106V407.664Z" stroke="#FEFEFE" stroke-miterlimit="10" stroke-linecap="round" stroke-linejoin="round"/>
<path d="M673.436 421.244H651.936V444.225H673.436V421.244Z" stroke="#FEFEFE" stroke-miterlimit="10" stroke-linecap="round" stroke-linejoin="round"/>
<path d="M701.198 415.186H685.334C682.411 415.186 679.906 417.692 679.906 420.617V449.865H706.625V420.617C706.625 417.692 704.329 415.186 701.198 415.186Z" stroke="#FEFEFE" stroke-miterlimit="10" stroke-linecap="round" stroke-linejoin="round"/>
<path d="M702.659 411.842H684.081V415.393H702.659V411.842Z" stroke="#FEFEFE" stroke-miterlimit="10" stroke-linecap="round" stroke-linejoin="round"/>
<path d="M705.582 407.664H680.95V411.842H705.582V407.664Z" stroke="#FEFEFE" stroke-miterlimit="10" stroke-linecap="round" stroke-linejoin="round"/>
<path d="M704.12 421.244H682.62V444.225H704.12V421.244Z" stroke="#FEFEFE" stroke-miterlimit="10" stroke-linecap="round" stroke-linejoin="round"/>
<path d="M749.209 458.012H733.344C730.422 458.012 727.917 460.519 727.917 463.443V492.691H754.636V463.443C754.636 460.519 752.34 458.012 749.209 458.012Z" stroke="#FEFEFE" stroke-miterlimit="10" stroke-linecap="round" stroke-linejoin="round"/>
<path d="M753.592 450.49H728.961V454.668H753.592V450.49Z" stroke="#FEFEFE" stroke-miterlimit="10" stroke-linecap="round" stroke-linejoin="round"/>
<path d="M732.091 415.186H716.227C713.305 415.186 710.8 417.692 710.8 420.617V449.865H737.519V420.617C737.519 417.692 735.014 415.186 732.091 415.186Z" stroke="#FEFEFE" stroke-miterlimit="10" stroke-linecap="round" stroke-linejoin="round"/>
<path d="M733.344 411.842H714.766V415.393H733.344V411.842Z" stroke="#FEFEFE" stroke-miterlimit="10" stroke-linecap="round" stroke-linejoin="round"/>
<path d="M736.475 407.664H711.844V411.842H736.475V407.664Z" stroke="#FEFEFE" stroke-miterlimit="10" stroke-linecap="round" stroke-linejoin="round"/>
<path d="M735.014 421.244H713.514V444.225H735.014V421.244Z" stroke="#FEFEFE" stroke-miterlimit="10" stroke-linecap="round" stroke-linejoin="round"/>
<path d="M191.035 388.025H160.141L157.01 359.613H194.166L191.035 388.025Z" stroke="#FEFEFE" stroke-miterlimit="10" stroke-linecap="round" stroke-linejoin="round"/>
<path d="M196.253 355.436H154.505V359.405H196.253V355.436Z" stroke="#FEFEFE" stroke-miterlimit="10" stroke-linecap="round" stroke-linejoin="round"/>
<path d="M237.584 388.025H206.691L203.56 359.613H240.715L237.584 388.025Z" stroke="#FEFEFE" stroke-miterlimit="10" stroke-linecap="round" stroke-linejoin="round"/>
<path d="M242.803 355.436H201.055V359.405H242.803V355.436Z" stroke="#FEFEFE" stroke-miterlimit="10" stroke-linecap="round" stroke-linejoin="round"/>
<path d="M284.342 388.025H253.24L250.108 359.613H287.473L284.342 388.025Z" stroke="#FEFEFE" stroke-miterlimit="10" stroke-linecap="round" stroke-linejoin="round"/>
<path d="M289.352 355.436H247.604V359.405H289.352V355.436Z" stroke="#FEFEFE" stroke-miterlimit="10" stroke-linecap="round" stroke-linejoin="round"/>
<path d="M330.891 388.025H299.997L296.866 359.613H334.022L330.891 388.025Z" stroke="#FEFEFE" stroke-miterlimit="10" stroke-linecap="round" stroke-linejoin="round"/>
<path d="M336.11 355.436H294.361V359.405H336.11V355.436Z" stroke="#FEFEFE" stroke-miterlimit="10" stroke-linecap="round" stroke-linejoin="round"/>
<path d="M377.44 388.025H346.546L343.415 359.613H380.571L377.44 388.025Z" stroke="#FEFEFE" stroke-miterlimit="10" stroke-linecap="round" stroke-linejoin="round"/>
<path d="M382.658 355.436H340.91V359.405H382.658V355.436Z" stroke="#FEFEFE" stroke-miterlimit="10" stroke-linecap="round" stroke-linejoin="round"/>
<path d="M424.198 388.025H393.096L389.965 359.613H427.329L424.198 388.025Z" stroke="#FEFEFE" stroke-miterlimit="10" stroke-linecap="round" stroke-linejoin="round"/>
<path d="M429.208 355.436H387.46V359.405H429.208V355.436Z" stroke="#FEFEFE" stroke-miterlimit="10" stroke-linecap="round" stroke-linejoin="round"/>
<path d="M470.747 388.025H439.854L436.723 359.613H473.879L470.747 388.025Z" stroke="#FEFEFE" stroke-miterlimit="10" stroke-linecap="round" stroke-linejoin="round"/>
<path d="M475.966 355.436H434.218V359.405H475.966V355.436Z" stroke="#FEFEFE" stroke-miterlimit="10" stroke-linecap="round" stroke-linejoin="round"/>
<path d="M517.297 388.025H486.404L483.272 359.613H520.428L517.297 388.025Z" stroke="#FEFEFE" stroke-miterlimit="10" stroke-linecap="round" stroke-linejoin="round"/>
<path d="M522.516 355.436H480.768V359.405H522.516V355.436Z" stroke="#FEFEFE" stroke-miterlimit="10" stroke-linecap="round" stroke-linejoin="round"/>
<path d="M564.055 388.025H532.952L529.821 359.613H567.186L564.055 388.025Z" stroke="#FEFEFE" stroke-miterlimit="10" stroke-linecap="round" stroke-linejoin="round"/>
<path d="M569.065 355.436H527.316V359.405H569.065V355.436Z" stroke="#FEFEFE" stroke-miterlimit="10" stroke-linecap="round" stroke-linejoin="round"/>
<path d="M610.604 388.025H579.71L576.579 359.613H613.735L610.604 388.025Z" stroke="#FEFEFE" stroke-miterlimit="10" stroke-linecap="round" stroke-linejoin="round"/>
<path d="M615.822 355.436H574.074V359.405H615.822V355.436Z" stroke="#FEFEFE" stroke-miterlimit="10" stroke-linecap="round" stroke-linejoin="round"/>
<path d="M657.154 388.025H626.26L623.129 359.613H660.285L657.154 388.025Z" stroke="#FEFEFE" stroke-miterlimit="10" stroke-linecap="round" stroke-linejoin="round"/>
<path d="M662.372 355.436H620.624V359.405H662.372V355.436Z" stroke="#FEFEFE" stroke-miterlimit="10" stroke-linecap="round" stroke-linejoin="round"/>
<path d="M703.911 388.025H672.809L669.678 359.613H707.042L703.911 388.025Z" stroke="#FEFEFE" stroke-miterlimit="10" stroke-linecap="round" stroke-linejoin="round"/>
<path d="M708.921 355.436H667.173V359.405H708.921V355.436Z" stroke="#FEFEFE" stroke-miterlimit="10" stroke-linecap="round" stroke-linejoin="round"/>
<path d="M750.461 388.025H719.568L716.437 359.613H753.592L750.461 388.025Z" stroke="#FEFEFE" stroke-miterlimit="10" stroke-linecap="round" stroke-linejoin="round"/>
<path d="M755.68 355.436H713.932V359.405H755.68V355.436Z" stroke="#FEFEFE" stroke-miterlimit="10" stroke-linecap="round" stroke-linejoin="round"/>
<path d="M213.996 354.391H182.894L179.972 325.979H217.128L213.996 354.391Z" stroke="#FEFEFE" stroke-miterlimit="10" stroke-linecap="round" stroke-linejoin="round"/>
<path d="M219.215 321.801H177.467V325.77H219.215V321.801Z" stroke="#FEFEFE" stroke-miterlimit="10" stroke-linecap="round" stroke-linejoin="round"/>
<path d="M260.545 354.391H229.652L226.521 325.979H263.676L260.545 354.391Z" stroke="#FEFEFE" stroke-miterlimit="10" stroke-linecap="round" stroke-linejoin="round"/>
<path d="M265.764 321.801H224.016V325.77H265.764V321.801Z" stroke="#FEFEFE" stroke-miterlimit="10" stroke-linecap="round" stroke-linejoin="round"/>
<path d="M307.303 354.391H276.2L273.069 325.979H310.225L307.303 354.391Z" stroke="#FEFEFE" stroke-miterlimit="10" stroke-linecap="round" stroke-linejoin="round"/>
<path d="M312.313 321.801H270.564V325.77H312.313V321.801Z" stroke="#FEFEFE" stroke-miterlimit="10" stroke-linecap="round" stroke-linejoin="round"/>
<path d="M353.853 354.391H322.751L319.828 325.979H356.984L353.853 354.391Z" stroke="#FEFEFE" stroke-miterlimit="10" stroke-linecap="round" stroke-linejoin="round"/>
<path d="M359.071 321.801H317.323V325.77H359.071V321.801Z" stroke="#FEFEFE" stroke-miterlimit="10" stroke-linecap="round" stroke-linejoin="round"/>
<path d="M400.402 354.391H369.508L366.377 325.979H403.533L400.402 354.391Z" stroke="#FEFEFE" stroke-miterlimit="10" stroke-linecap="round" stroke-linejoin="round"/>
<path d="M405.62 321.801H363.872V325.77H405.62V321.801Z" stroke="#FEFEFE" stroke-miterlimit="10" stroke-linecap="round" stroke-linejoin="round"/>
<path d="M447.16 354.391H416.058L412.927 325.979H450.083L447.16 354.391Z" stroke="#FEFEFE" stroke-miterlimit="10" stroke-linecap="round" stroke-linejoin="round"/>
<path d="M452.17 321.801H410.422V325.77H452.17V321.801Z" stroke="#FEFEFE" stroke-miterlimit="10" stroke-linecap="round" stroke-linejoin="round"/>
<path d="M493.709 354.391H462.607L459.685 325.979H496.84L493.709 354.391Z" stroke="#FEFEFE" stroke-miterlimit="10" stroke-linecap="round" stroke-linejoin="round"/>
<path d="M498.928 321.801H457.18V325.77H498.928V321.801Z" stroke="#FEFEFE" stroke-miterlimit="10" stroke-linecap="round" stroke-linejoin="round"/>
<path d="M540.258 354.391H509.365L506.233 325.979H543.389L540.258 354.391Z" stroke="#FEFEFE" stroke-miterlimit="10" stroke-linecap="round" stroke-linejoin="round"/>
<path d="M545.477 321.801H503.729V325.77H545.477V321.801Z" stroke="#FEFEFE" stroke-miterlimit="10" stroke-linecap="round" stroke-linejoin="round"/>
<path d="M587.017 354.391H555.914L552.783 325.979H589.939L587.017 354.391Z" stroke="#FEFEFE" stroke-miterlimit="10" stroke-linecap="round" stroke-linejoin="round"/>
<path d="M592.027 321.801H550.278V325.77H592.027V321.801Z" stroke="#FEFEFE" stroke-miterlimit="10" stroke-linecap="round" stroke-linejoin="round"/>
<path d="M633.566 354.391H602.463L599.541 325.979H636.697L633.566 354.391Z" stroke="#FEFEFE" stroke-miterlimit="10" stroke-linecap="round" stroke-linejoin="round"/>
<path d="M638.784 321.801H597.036V325.77H638.784V321.801Z" stroke="#FEFEFE" stroke-miterlimit="10" stroke-linecap="round" stroke-linejoin="round"/>
<path d="M680.115 354.391H649.221L646.09 325.979H683.246L680.115 354.391Z" stroke="#FEFEFE" stroke-miterlimit="10" stroke-linecap="round" stroke-linejoin="round"/>
<path d="M685.333 321.801H643.585V325.77H685.333V321.801Z" stroke="#FEFEFE" stroke-miterlimit="10" stroke-linecap="round" stroke-linejoin="round"/>
<path d="M726.873 354.391H695.771L692.64 325.979H729.796L726.873 354.391Z" stroke="#FEFEFE" stroke-miterlimit="10" stroke-linecap="round" stroke-linejoin="round"/>
<path d="M731.883 321.801H690.135V325.77H731.883V321.801Z" stroke="#FEFEFE" stroke-miterlimit="10" stroke-linecap="round" stroke-linejoin="round"/>
<path d="M218.589 250.77H188.112V294.223H218.589V250.77Z" stroke="#FEFEFE" stroke-miterlimit="10" stroke-linecap="round" stroke-linejoin="round"/>
<path d="M189.365 255.783H218.38" stroke="#FEFEFE" stroke-miterlimit="10" stroke-linecap="round" stroke-linejoin="round"/>
<path d="M189.365 289.836H218.38" stroke="#FEFEFE" stroke-miterlimit="10" stroke-linecap="round" stroke-linejoin="round"/>
<path d="M203.351 281.688C208.884 281.688 213.37 277.199 213.37 271.661C213.37 266.122 208.884 261.633 203.351 261.633C197.817 261.633 193.331 266.122 193.331 271.661C193.331 277.199 197.817 281.688 203.351 281.688Z" stroke="#FEFEFE" stroke-miterlimit="10" stroke-linecap="round" stroke-linejoin="round"/>
<path d="M252.613 250.77H222.137V294.223H252.613V250.77Z" stroke="#FEFEFE" stroke-miterlimit="10" stroke-linecap="round" stroke-linejoin="round"/>
<path d="M223.181 255.783H252.196" stroke="#FEFEFE" stroke-miterlimit="10" stroke-linecap="round" stroke-linejoin="round"/>
<path d="M223.181 289.836H252.196" stroke="#FEFEFE" stroke-miterlimit="10" stroke-linecap="round" stroke-linejoin="round"/>
<path d="M237.166 281.688C242.7 281.688 247.186 277.199 247.186 271.661C247.186 266.122 242.7 261.633 237.166 261.633C231.632 261.633 227.146 266.122 227.146 271.661C227.146 277.199 231.632 281.688 237.166 281.688Z" stroke="#FEFEFE" stroke-miterlimit="10" stroke-linecap="round" stroke-linejoin="round"/>
<path d="M286.429 250.77H255.953V294.223H286.429V250.77Z" stroke="#FEFEFE" stroke-miterlimit="10" stroke-linecap="round" stroke-linejoin="round"/>
<path d="M257.205 255.783H286.22" stroke="#FEFEFE" stroke-miterlimit="10" stroke-linecap="round" stroke-linejoin="round"/>
<path d="M257.205 289.836H286.22" stroke="#FEFEFE" stroke-miterlimit="10" stroke-linecap="round" stroke-linejoin="round"/>
<path d="M271.191 281.688C276.725 281.688 281.211 277.199 281.211 271.661C281.211 266.122 276.725 261.633 271.191 261.633C265.658 261.633 261.172 266.122 261.172 271.661C261.172 277.199 265.658 281.688 271.191 281.688Z" stroke="#FEFEFE" stroke-miterlimit="10" stroke-linecap="round" stroke-linejoin="round"/>
<path d="M320.454 250.77H289.978V294.223H320.454V250.77Z" stroke="#FEFEFE" stroke-miterlimit="10" stroke-linecap="round" stroke-linejoin="round"/>
<path d="M291.021 255.783H320.037" stroke="#FEFEFE" stroke-miterlimit="10" stroke-linecap="round" stroke-linejoin="round"/>
<path d="M291.021 289.836H320.037" stroke="#FEFEFE" stroke-miterlimit="10" stroke-linecap="round" stroke-linejoin="round"/>
<path d="M305.007 281.688C310.541 281.688 315.026 277.199 315.026 271.661C315.026 266.122 310.541 261.633 305.007 261.633C299.473 261.633 294.987 266.122 294.987 271.661C294.987 277.199 299.473 281.688 305.007 281.688Z" stroke="#FEFEFE" stroke-miterlimit="10" stroke-linecap="round" stroke-linejoin="round"/>
<path d="M354.27 250.77H323.794V294.223H354.27V250.77Z" stroke="#FEFEFE" stroke-miterlimit="10" stroke-linecap="round" stroke-linejoin="round"/>
<path d="M325.047 255.783H354.062" stroke="#FEFEFE" stroke-miterlimit="10" stroke-linecap="round" stroke-linejoin="round"/>
<path d="M325.047 289.836H354.062" stroke="#FEFEFE" stroke-miterlimit="10" stroke-linecap="round" stroke-linejoin="round"/>
<path d="M339.032 281.688C344.566 281.688 349.052 277.199 349.052 271.661C349.052 266.122 344.566 261.633 339.032 261.633C333.499 261.633 329.013 266.122 329.013 271.661C329.013 277.199 333.499 281.688 339.032 281.688Z" stroke="#FEFEFE" stroke-miterlimit="10" stroke-linecap="round" stroke-linejoin="round"/>
<path d="M388.295 250.77H357.818V294.223H388.295V250.77Z" stroke="#FEFEFE" stroke-miterlimit="10" stroke-linecap="round" stroke-linejoin="round"/>
<path d="M358.862 255.783H387.877" stroke="#FEFEFE" stroke-miterlimit="10" stroke-linecap="round" stroke-linejoin="round"/>
<path d="M358.862 289.836H387.877" stroke="#FEFEFE" stroke-miterlimit="10" stroke-linecap="round" stroke-linejoin="round"/>
<path d="M372.848 281.688C378.381 281.688 382.867 277.199 382.867 271.661C382.867 266.122 378.381 261.633 372.848 261.633C367.314 261.633 362.828 266.122 362.828 271.661C362.828 277.199 367.314 281.688 372.848 281.688Z" stroke="#FEFEFE" stroke-miterlimit="10" stroke-linecap="round" stroke-linejoin="round"/>
<path d="M422.111 250.77H391.635V294.223H422.111V250.77Z" stroke="#FEFEFE" stroke-miterlimit="10" stroke-linecap="round" stroke-linejoin="round"/>
<path d="M392.887 255.783H421.902" stroke="#FEFEFE" stroke-miterlimit="10" stroke-linecap="round" stroke-linejoin="round"/>
<path d="M392.887 289.836H421.902" stroke="#FEFEFE" stroke-miterlimit="10" stroke-linecap="round" stroke-linejoin="round"/>
<path d="M406.873 281.688C412.407 281.688 416.893 277.199 416.893 271.661C416.893 266.122 412.407 261.633 406.873 261.633C401.339 261.633 396.854 266.122 396.854 271.661C396.854 277.199 401.339 281.688 406.873 281.688Z" stroke="#FEFEFE" stroke-miterlimit="10" stroke-linecap="round" stroke-linejoin="round"/>
<path d="M233.409 206.689H202.933V250.143H233.409V206.689Z" stroke="#FEFEFE" stroke-miterlimit="10" stroke-linecap="round" stroke-linejoin="round"/>
<path d="M203.977 211.703H232.992" stroke="#FEFEFE" stroke-miterlimit="10" stroke-linecap="round" stroke-linejoin="round"/>
<path d="M203.977 245.547H232.992" stroke="#FEFEFE" stroke-miterlimit="10" stroke-linecap="round" stroke-linejoin="round"/>
<path d="M217.962 237.608C223.496 237.608 227.982 233.119 227.982 227.581C227.982 222.042 223.496 217.553 217.962 217.553C212.428 217.553 207.942 222.042 207.942 227.581C207.942 233.119 212.428 237.608 217.962 237.608Z" stroke="#FEFEFE" stroke-miterlimit="10" stroke-linecap="round" stroke-linejoin="round"/>
<path d="M267.225 206.689H236.749V250.143H267.225V206.689Z" stroke="#FEFEFE" stroke-miterlimit="10" stroke-linecap="round" stroke-linejoin="round"/>
<path d="M238.002 211.703H267.017" stroke="#FEFEFE" stroke-miterlimit="10" stroke-linecap="round" stroke-linejoin="round"/>
<path d="M238.002 245.547H267.017" stroke="#FEFEFE" stroke-miterlimit="10" stroke-linecap="round" stroke-linejoin="round"/>
<path d="M251.778 237.608C257.312 237.608 261.798 233.119 261.798 227.581C261.798 222.042 257.312 217.553 251.778 217.553C246.245 217.553 241.759 222.042 241.759 227.581C241.759 233.119 246.245 237.608 251.778 237.608Z" stroke="#FEFEFE" stroke-miterlimit="10" stroke-linecap="round" stroke-linejoin="round"/>
<path d="M301.25 206.689H270.773V250.143H301.25V206.689Z" stroke="#FEFEFE" stroke-miterlimit="10" stroke-linecap="round" stroke-linejoin="round"/>
<path d="M271.817 211.703H300.832" stroke="#FEFEFE" stroke-miterlimit="10" stroke-linecap="round" stroke-linejoin="round"/>
<path d="M271.817 245.547H300.832" stroke="#FEFEFE" stroke-miterlimit="10" stroke-linecap="round" stroke-linejoin="round"/>
<path d="M285.803 237.608C291.336 237.608 295.822 233.119 295.822 227.581C295.822 222.042 291.336 217.553 285.803 217.553C280.269 217.553 275.783 222.042 275.783 227.581C275.783 233.119 280.269 237.608 285.803 237.608Z" stroke="#FEFEFE" stroke-miterlimit="10" stroke-linecap="round" stroke-linejoin="round"/>
<path d="M335.066 206.689H304.59V250.143H335.066V206.689Z" stroke="#FEFEFE" stroke-miterlimit="10" stroke-linecap="round" stroke-linejoin="round"/>
<path d="M305.842 211.703H334.857" stroke="#FEFEFE" stroke-miterlimit="10" stroke-linecap="round" stroke-linejoin="round"/>
<path d="M305.842 245.547H334.857" stroke="#FEFEFE" stroke-miterlimit="10" stroke-linecap="round" stroke-linejoin="round"/>
<path d="M319.619 237.608C325.153 237.608 329.639 233.119 329.639 227.581C329.639 222.042 325.153 217.553 319.619 217.553C314.086 217.553 309.6 222.042 309.6 227.581C309.6 233.119 314.086 237.608 319.619 237.608Z" stroke="#FEFEFE" stroke-miterlimit="10" stroke-linecap="round" stroke-linejoin="round"/>
<path d="M369.09 206.689H338.614V250.143H369.09V206.689Z" stroke="#FEFEFE" stroke-miterlimit="10" stroke-linecap="round" stroke-linejoin="round"/>
<path d="M339.658 211.703H368.673" stroke="#FEFEFE" stroke-miterlimit="10" stroke-linecap="round" stroke-linejoin="round"/>
<path d="M339.658 245.547H368.673" stroke="#FEFEFE" stroke-miterlimit="10" stroke-linecap="round" stroke-linejoin="round"/>
<path d="M353.644 237.608C359.177 237.608 363.663 233.119 363.663 227.581C363.663 222.042 359.177 217.553 353.644 217.553C348.11 217.553 343.624 222.042 343.624 227.581C343.624 233.119 348.11 237.608 353.644 237.608Z" stroke="#FEFEFE" stroke-miterlimit="10" stroke-linecap="round" stroke-linejoin="round"/>
<path d="M402.907 206.689H372.431V250.143H402.907V206.689Z" stroke="#FEFEFE" stroke-miterlimit="10" stroke-linecap="round" stroke-linejoin="round"/>
<path d="M373.684 211.703H402.699" stroke="#FEFEFE" stroke-miterlimit="10" stroke-linecap="round" stroke-linejoin="round"/>
<path d="M373.684 245.547H402.699" stroke="#FEFEFE" stroke-miterlimit="10" stroke-linecap="round" stroke-linejoin="round"/>
<path d="M387.46 237.608C392.994 237.608 397.48 233.119 397.48 227.581C397.48 222.042 392.994 217.553 387.46 217.553C381.926 217.553 377.44 222.042 377.44 227.581C377.44 233.119 381.926 237.608 387.46 237.608Z" stroke="#FEFEFE" stroke-miterlimit="10" stroke-linecap="round" stroke-linejoin="round"/>
<path d="M455.509 250.77H425.033V294.223H455.509V250.77Z" stroke="#FEFEFE" stroke-miterlimit="10" stroke-linecap="round" stroke-linejoin="round"/>
<path d="M426.285 255.783H455.3" stroke="#FEFEFE" stroke-miterlimit="10" stroke-linecap="round" stroke-linejoin="round"/>
<path d="M426.285 289.836H455.3" stroke="#FEFEFE" stroke-miterlimit="10" stroke-linecap="round" stroke-linejoin="round"/>
<path d="M440.272 281.688C445.805 281.688 450.291 277.199 450.291 271.661C450.291 266.122 445.805 261.633 440.272 261.633C434.738 261.633 430.252 266.122 430.252 271.661C430.252 277.199 434.738 281.688 440.272 281.688Z" stroke="#FEFEFE" stroke-miterlimit="10" stroke-linecap="round" stroke-linejoin="round"/>
<path d="M489.535 250.77H459.059V294.223H489.535V250.77Z" stroke="#FEFEFE" stroke-miterlimit="10" stroke-linecap="round" stroke-linejoin="round"/>
<path d="M460.103 255.783H489.118" stroke="#FEFEFE" stroke-miterlimit="10" stroke-linecap="round" stroke-linejoin="round"/>
<path d="M460.103 289.836H489.118" stroke="#FEFEFE" stroke-miterlimit="10" stroke-linecap="round" stroke-linejoin="round"/>
<path d="M474.088 281.688C479.622 281.688 484.107 277.199 484.107 271.661C484.107 266.122 479.622 261.633 474.088 261.633C468.554 261.633 464.068 266.122 464.068 271.661C464.068 277.199 468.554 281.688 474.088 281.688Z" stroke="#FEFEFE" stroke-miterlimit="10" stroke-linecap="round" stroke-linejoin="round"/>
<path d="M523.35 250.77H492.874V294.223H523.35V250.77Z" stroke="#FEFEFE" stroke-miterlimit="10" stroke-linecap="round" stroke-linejoin="round"/>
<path d="M494.127 255.783H523.142" stroke="#FEFEFE" stroke-miterlimit="10" stroke-linecap="round" stroke-linejoin="round"/>
<path d="M494.127 289.836H523.142" stroke="#FEFEFE" stroke-miterlimit="10" stroke-linecap="round" stroke-linejoin="round"/>
<path d="M508.112 281.688C513.646 281.688 518.132 277.199 518.132 271.661C518.132 266.122 513.646 261.633 508.112 261.633C502.579 261.633 498.093 266.122 498.093 271.661C498.093 277.199 502.579 281.688 508.112 281.688Z" stroke="#FEFEFE" stroke-miterlimit="10" stroke-linecap="round" stroke-linejoin="round"/>
<path d="M557.376 250.77H526.899V294.223H557.376V250.77Z" stroke="#FEFEFE" stroke-miterlimit="10" stroke-linecap="round" stroke-linejoin="round"/>
<path d="M527.943 255.783H556.958" stroke="#FEFEFE" stroke-miterlimit="10" stroke-linecap="round" stroke-linejoin="round"/>
<path d="M527.943 289.836H556.958" stroke="#FEFEFE" stroke-miterlimit="10" stroke-linecap="round" stroke-linejoin="round"/>
<path d="M541.929 281.688C547.462 281.688 551.948 277.199 551.948 271.661C551.948 266.122 547.462 261.633 541.929 261.633C536.395 261.633 531.909 266.122 531.909 271.661C531.909 277.199 536.395 281.688 541.929 281.688Z" stroke="#FEFEFE" stroke-miterlimit="10" stroke-linecap="round" stroke-linejoin="round"/>
<path d="M591.191 250.77H560.715V294.223H591.191V250.77Z" stroke="#FEFEFE" stroke-miterlimit="10" stroke-linecap="round" stroke-linejoin="round"/>
<path d="M561.967 255.783H590.982" stroke="#FEFEFE" stroke-miterlimit="10" stroke-linecap="round" stroke-linejoin="round"/>
<path d="M561.967 289.836H590.982" stroke="#FEFEFE" stroke-miterlimit="10" stroke-linecap="round" stroke-linejoin="round"/>
<path d="M575.953 281.688C581.487 281.688 585.973 277.199 585.973 271.661C585.973 266.122 581.487 261.633 575.953 261.633C570.419 261.633 565.934 266.122 565.934 271.661C565.934 277.199 570.419 281.688 575.953 281.688Z" stroke="#FEFEFE" stroke-miterlimit="10" stroke-linecap="round" stroke-linejoin="round"/>
<path d="M625.216 250.77H594.74V294.223H625.216V250.77Z" stroke="#FEFEFE" stroke-miterlimit="10" stroke-linecap="round" stroke-linejoin="round"/>
<path d="M595.784 255.783H624.799" stroke="#FEFEFE" stroke-miterlimit="10" stroke-linecap="round" stroke-linejoin="round"/>
<path d="M595.784 289.836H624.799" stroke="#FEFEFE" stroke-miterlimit="10" stroke-linecap="round" stroke-linejoin="round"/>
<path d="M609.77 281.688C615.303 281.688 619.789 277.199 619.789 271.661C619.789 266.122 615.303 261.633 609.77 261.633C604.236 261.633 599.75 266.122 599.75 271.661C599.75 277.199 604.236 281.688 609.77 281.688Z" stroke="#FEFEFE" stroke-miterlimit="10" stroke-linecap="round" stroke-linejoin="round"/>
<path d="M436.305 206.689H405.829V250.143H436.305V206.689Z" stroke="#FEFEFE" stroke-miterlimit="10" stroke-linecap="round" stroke-linejoin="round"/>
<path d="M407.082 211.703H436.097" stroke="#FEFEFE" stroke-miterlimit="10" stroke-linecap="round" stroke-linejoin="round"/>
<path d="M407.082 245.547H436.097" stroke="#FEFEFE" stroke-miterlimit="10" stroke-linecap="round" stroke-linejoin="round"/>
<path d="M420.858 237.608C426.392 237.608 430.878 233.119 430.878 227.581C430.878 222.042 426.392 217.553 420.858 217.553C415.325 217.553 410.839 222.042 410.839 227.581C410.839 233.119 415.325 237.608 420.858 237.608Z" stroke="#FEFEFE" stroke-miterlimit="10" stroke-linecap="round" stroke-linejoin="round"/>
<path d="M470.33 206.689H439.854V250.143H470.33V206.689Z" stroke="#FEFEFE" stroke-miterlimit="10" stroke-linecap="round" stroke-linejoin="round"/>
<path d="M440.897 211.703H469.912" stroke="#FEFEFE" stroke-miterlimit="10" stroke-linecap="round" stroke-linejoin="round"/>
<path d="M440.897 245.547H469.912" stroke="#FEFEFE" stroke-miterlimit="10" stroke-linecap="round" stroke-linejoin="round"/>
<path d="M454.883 237.608C460.416 237.608 464.902 233.119 464.902 227.581C464.902 222.042 460.416 217.553 454.883 217.553C449.349 217.553 444.863 222.042 444.863 227.581C444.863 233.119 449.349 237.608 454.883 237.608Z" stroke="#FEFEFE" stroke-miterlimit="10" stroke-linecap="round" stroke-linejoin="round"/>
<path d="M504.146 206.689H473.67V250.143H504.146V206.689Z" stroke="#FEFEFE" stroke-miterlimit="10" stroke-linecap="round" stroke-linejoin="round"/>
<path d="M474.923 211.703H503.938" stroke="#FEFEFE" stroke-miterlimit="10" stroke-linecap="round" stroke-linejoin="round"/>
<path d="M474.923 245.547H503.938" stroke="#FEFEFE" stroke-miterlimit="10" stroke-linecap="round" stroke-linejoin="round"/>
<path d="M488.699 237.608C494.233 237.608 498.719 233.119 498.719 227.581C498.719 222.042 494.233 217.553 488.699 217.553C483.166 217.553 478.68 222.042 478.68 227.581C478.68 233.119 483.166 237.608 488.699 237.608Z" stroke="#FEFEFE" stroke-miterlimit="10" stroke-linecap="round" stroke-linejoin="round"/>
<path d="M538.172 206.689H507.695V250.143H538.172V206.689Z" stroke="#FEFEFE" stroke-miterlimit="10" stroke-linecap="round" stroke-linejoin="round"/>
<path d="M508.739 211.703H537.754" stroke="#FEFEFE" stroke-miterlimit="10" stroke-linecap="round" stroke-linejoin="round"/>
<path d="M508.739 245.547H537.754" stroke="#FEFEFE" stroke-miterlimit="10" stroke-linecap="round" stroke-linejoin="round"/>
<path d="M522.725 237.608C528.258 237.608 532.744 233.119 532.744 227.581C532.744 222.042 528.258 217.553 522.725 217.553C517.191 217.553 512.705 222.042 512.705 227.581C512.705 233.119 517.191 237.608 522.725 237.608Z" stroke="#FEFEFE" stroke-miterlimit="10" stroke-linecap="round" stroke-linejoin="round"/>
<path d="M571.987 206.689H541.511V250.143H571.987V206.689Z" stroke="#FEFEFE" stroke-miterlimit="10" stroke-linecap="round" stroke-linejoin="round"/>
<path d="M542.764 211.703H571.779" stroke="#FEFEFE" stroke-miterlimit="10" stroke-linecap="round" stroke-linejoin="round"/>
<path d="M542.764 245.547H571.779" stroke="#FEFEFE" stroke-miterlimit="10" stroke-linecap="round" stroke-linejoin="round"/>
<path d="M556.54 237.608C562.074 237.608 566.56 233.119 566.56 227.581C566.56 222.042 562.074 217.553 556.54 217.553C551.006 217.553 546.521 222.042 546.521 227.581C546.521 233.119 551.006 237.608 556.54 237.608Z" stroke="#FEFEFE" stroke-miterlimit="10" stroke-linecap="round" stroke-linejoin="round"/>
<path d="M606.012 206.689H575.536V250.143H606.012V206.689Z" stroke="#FEFEFE" stroke-miterlimit="10" stroke-linecap="round" stroke-linejoin="round"/>
<path d="M576.58 211.703H605.595" stroke="#FEFEFE" stroke-miterlimit="10" stroke-linecap="round" stroke-linejoin="round"/>
<path d="M576.58 245.547H605.595" stroke="#FEFEFE" stroke-miterlimit="10" stroke-linecap="round" stroke-linejoin="round"/>
<path d="M590.565 237.608C596.099 237.608 600.585 233.119 600.585 227.581C600.585 222.042 596.099 217.553 590.565 217.553C585.032 217.553 580.546 222.042 580.546 227.581C580.546 233.119 585.032 237.608 590.565 237.608Z" stroke="#FEFEFE" stroke-miterlimit="10" stroke-linecap="round" stroke-linejoin="round"/>
<path d="M658.615 250.77H628.139V294.223H658.615V250.77Z" stroke="#FEFEFE" stroke-miterlimit="10" stroke-linecap="round" stroke-linejoin="round"/>
<path d="M629.183 255.783H658.198" stroke="#FEFEFE" stroke-miterlimit="10" stroke-linecap="round" stroke-linejoin="round"/>
<path d="M629.183 289.836H658.198" stroke="#FEFEFE" stroke-miterlimit="10" stroke-linecap="round" stroke-linejoin="round"/>
<path d="M643.168 281.688C648.702 281.688 653.188 277.199 653.188 271.661C653.188 266.122 648.702 261.633 643.168 261.633C637.634 261.633 633.148 266.122 633.148 271.661C633.148 277.199 637.634 281.688 643.168 281.688Z" stroke="#FEFEFE" stroke-miterlimit="10" stroke-linecap="round" stroke-linejoin="round"/>
<path d="M692.431 250.77H661.955V294.223H692.431V250.77Z" stroke="#FEFEFE" stroke-miterlimit="10" stroke-linecap="round" stroke-linejoin="round"/>
<path d="M663.207 255.783H692.222" stroke="#FEFEFE" stroke-miterlimit="10" stroke-linecap="round" stroke-linejoin="round"/>
<path d="M663.207 289.836H692.222" stroke="#FEFEFE" stroke-miterlimit="10" stroke-linecap="round" stroke-linejoin="round"/>
<path d="M677.193 281.688C682.727 281.688 687.213 277.199 687.213 271.661C687.213 266.122 682.727 261.633 677.193 261.633C671.66 261.633 667.174 266.122 667.174 271.661C667.174 277.199 671.66 281.688 677.193 281.688Z" stroke="#FEFEFE" stroke-miterlimit="10" stroke-linecap="round" stroke-linejoin="round"/>
<path d="M726.456 250.77H695.979V294.223H726.456V250.77Z" stroke="#FEFEFE" stroke-miterlimit="10" stroke-linecap="round" stroke-linejoin="round"/>
<path d="M697.023 255.783H726.038" stroke="#FEFEFE" stroke-miterlimit="10" stroke-linecap="round" stroke-linejoin="round"/>
<path d="M697.023 289.836H726.038" stroke="#FEFEFE" stroke-miterlimit="10" stroke-linecap="round" stroke-linejoin="round"/>
<path d="M711.009 281.688C716.543 281.688 721.028 277.199 721.028 271.661C721.028 266.122 716.543 261.633 711.009 261.633C705.475 261.633 700.989 266.122 700.989 271.661C700.989 277.199 705.475 281.688 711.009 281.688Z" stroke="#FEFEFE" stroke-miterlimit="10" stroke-linecap="round" stroke-linejoin="round"/>
<path d="M760.272 250.77H729.796V294.223H760.272V250.77Z" stroke="#FEFEFE" stroke-miterlimit="10" stroke-linecap="round" stroke-linejoin="round"/>
<path d="M639.411 206.689H608.935V250.143H639.411V206.689Z" stroke="#FEFEFE" stroke-miterlimit="10" stroke-linecap="round" stroke-linejoin="round"/>
<path d="M609.979 211.703H638.994" stroke="#FEFEFE" stroke-miterlimit="10" stroke-linecap="round" stroke-linejoin="round"/>
<path d="M609.979 245.547H638.994" stroke="#FEFEFE" stroke-miterlimit="10" stroke-linecap="round" stroke-linejoin="round"/>
<path d="M623.964 237.608C629.498 237.608 633.983 233.119 633.983 227.581C633.983 222.042 629.498 217.553 623.964 217.553C618.43 217.553 613.944 222.042 613.944 227.581C613.944 233.119 618.43 237.608 623.964 237.608Z" stroke="#FEFEFE" stroke-miterlimit="10" stroke-linecap="round" stroke-linejoin="round"/>
<path d="M673.226 206.689H642.75V250.143H673.226V206.689Z" stroke="#FEFEFE" stroke-miterlimit="10" stroke-linecap="round" stroke-linejoin="round"/>
<path d="M644.003 211.703H673.018" stroke="#FEFEFE" stroke-miterlimit="10" stroke-linecap="round" stroke-linejoin="round"/>
<path d="M644.003 245.547H673.018" stroke="#FEFEFE" stroke-miterlimit="10" stroke-linecap="round" stroke-linejoin="round"/>
<path d="M657.779 237.608C663.313 237.608 667.799 233.119 667.799 227.581C667.799 222.042 663.313 217.553 657.779 217.553C652.246 217.553 647.76 222.042 647.76 227.581C647.76 233.119 652.246 237.608 657.779 237.608Z" stroke="#FEFEFE" stroke-miterlimit="10" stroke-linecap="round" stroke-linejoin="round"/>
<path d="M707.252 206.689H676.775V250.143H707.252V206.689Z" stroke="#FEFEFE" stroke-miterlimit="10" stroke-linecap="round" stroke-linejoin="round"/>
<path d="M677.819 211.703H706.834" stroke="#FEFEFE" stroke-miterlimit="10" stroke-linecap="round" stroke-linejoin="round"/>
<path d="M677.819 245.547H706.834" stroke="#FEFEFE" stroke-miterlimit="10" stroke-linecap="round" stroke-linejoin="round"/>
<path d="M691.805 237.608C697.338 237.608 701.824 233.119 701.824 227.581C701.824 222.042 697.338 217.553 691.805 217.553C686.271 217.553 681.785 222.042 681.785 227.581C681.785 233.119 686.271 237.608 691.805 237.608Z" stroke="#FEFEFE" stroke-miterlimit="10" stroke-linecap="round" stroke-linejoin="round"/>
<path d="M741.067 206.689H710.591V250.143H741.067V206.689Z" stroke="#FEFEFE" stroke-miterlimit="10" stroke-linecap="round" stroke-linejoin="round"/>
<path d="M711.844 211.703H740.859" stroke="#FEFEFE" stroke-miterlimit="10" stroke-linecap="round" stroke-linejoin="round"/>
<path d="M711.844 245.547H740.859" stroke="#FEFEFE" stroke-miterlimit="10" stroke-linecap="round" stroke-linejoin="round"/>
<path d="M725.62 237.608C731.154 237.608 735.64 233.119 735.64 227.581C735.64 222.042 731.154 217.553 725.62 217.553C720.087 217.553 715.601 222.042 715.601 227.581C715.601 233.119 720.087 237.608 725.62 237.608Z" stroke="#FEFEFE" stroke-miterlimit="10" stroke-linecap="round" stroke-linejoin="round"/>
<path d="M220.259 108.082H181.016V189.14H220.259V108.082Z" stroke="#FEFEFE" stroke-miterlimit="10" stroke-linecap="round" stroke-linejoin="round"/>
<path d="M209.822 113.096H189.574V166.786H209.822V113.096Z" stroke="#FEFEFE" stroke-miterlimit="10" stroke-linecap="round" stroke-linejoin="round"/>
<path d="M189.365 173.889H210.239" stroke="#FEFEFE" stroke-miterlimit="10" stroke-linecap="round" stroke-linejoin="round"/>
<path d="M189.365 180.574H210.239" stroke="#FEFEFE" stroke-miterlimit="10" stroke-linecap="round" stroke-linejoin="round"/>
<path d="M262.425 108.082H223.182V189.14H262.425V108.082Z" stroke="#FEFEFE" stroke-miterlimit="10" stroke-linecap="round" stroke-linejoin="round"/>
<path d="M251.988 113.096H231.74V166.786H251.988V113.096Z" stroke="#FEFEFE" stroke-miterlimit="10" stroke-linecap="round" stroke-linejoin="round"/>
<path d="M231.322 173.889H252.405" stroke="#FEFEFE" stroke-miterlimit="10" stroke-linecap="round" stroke-linejoin="round"/>
<path d="M231.322 180.574H252.405" stroke="#FEFEFE" stroke-miterlimit="10" stroke-linecap="round" stroke-linejoin="round"/>
<path d="M304.59 108.082H265.347V189.14H304.59V108.082Z" stroke="#FEFEFE" stroke-miterlimit="10" stroke-linecap="round" stroke-linejoin="round"/>
<path d="M294.153 113.096H273.905V166.786H294.153V113.096Z" stroke="#FEFEFE" stroke-miterlimit="10" stroke-linecap="round" stroke-linejoin="round"/>
<path d="M273.487 173.889H294.57" stroke="#FEFEFE" stroke-miterlimit="10" stroke-linecap="round" stroke-linejoin="round"/>
<path d="M273.487 180.574H294.57" stroke="#FEFEFE" stroke-miterlimit="10" stroke-linecap="round" stroke-linejoin="round"/>
<path d="M346.547 108.082H307.304V189.14H346.547V108.082Z" stroke="#FEFEFE" stroke-miterlimit="10" stroke-linecap="round" stroke-linejoin="round"/>
<path d="M336.319 113.096H316.071V166.786H336.319V113.096Z" stroke="#FEFEFE" stroke-miterlimit="10" stroke-linecap="round" stroke-linejoin="round"/>
<path d="M315.653 173.889H336.736" stroke="#FEFEFE" stroke-miterlimit="10" stroke-linecap="round" stroke-linejoin="round"/>
<path d="M315.653 180.574H336.736" stroke="#FEFEFE" stroke-miterlimit="10" stroke-linecap="round" stroke-linejoin="round"/>
<path d="M388.713 108.082H349.47V189.14H388.713V108.082Z" stroke="#FEFEFE" stroke-miterlimit="10" stroke-linecap="round" stroke-linejoin="round"/>
<path d="M378.276 113.096H358.028V166.786H378.276V113.096Z" stroke="#FEFEFE" stroke-miterlimit="10" stroke-linecap="round" stroke-linejoin="round"/>
<path d="M357.61 173.889H378.693" stroke="#FEFEFE" stroke-miterlimit="10" stroke-linecap="round" stroke-linejoin="round"/>
<path d="M357.61 180.574H378.693" stroke="#FEFEFE" stroke-miterlimit="10" stroke-linecap="round" stroke-linejoin="round"/>
<path d="M430.878 108.082H391.635V189.14H430.878V108.082Z" stroke="#FEFEFE" stroke-miterlimit="10" stroke-linecap="round" stroke-linejoin="round"/>
<path d="M420.441 113.096H400.193V166.786H420.441V113.096Z" stroke="#FEFEFE" stroke-miterlimit="10" stroke-linecap="round" stroke-linejoin="round"/>
<path d="M399.775 173.889H420.858" stroke="#FEFEFE" stroke-miterlimit="10" stroke-linecap="round" stroke-linejoin="round"/>
<path d="M399.775 180.574H420.858" stroke="#FEFEFE" stroke-miterlimit="10" stroke-linecap="round" stroke-linejoin="round"/>
<path d="M472.835 108.082H433.592V189.14H472.835V108.082Z" stroke="#FEFEFE" stroke-miterlimit="10" stroke-linecap="round" stroke-linejoin="round"/>
<path d="M462.607 113.096H442.359V166.786H462.607V113.096Z" stroke="#FEFEFE" stroke-miterlimit="10" stroke-linecap="round" stroke-linejoin="round"/>
<path d="M441.941 173.889H463.024" stroke="#FEFEFE" stroke-miterlimit="10" stroke-linecap="round" stroke-linejoin="round"/>
<path d="M441.941 180.574H463.024" stroke="#FEFEFE" stroke-miterlimit="10" stroke-linecap="round" stroke-linejoin="round"/>
<path d="M515.001 108.082H475.758V189.14H515.001V108.082Z" stroke="#FEFEFE" stroke-miterlimit="10" stroke-linecap="round" stroke-linejoin="round"/>
<path d="M504.564 113.096H484.316V166.786H504.564V113.096Z" stroke="#FEFEFE" stroke-miterlimit="10" stroke-linecap="round" stroke-linejoin="round"/>
<path d="M483.898 173.889H504.981" stroke="#FEFEFE" stroke-miterlimit="10" stroke-linecap="round" stroke-linejoin="round"/>
<path d="M483.898 180.574H504.981" stroke="#FEFEFE" stroke-miterlimit="10" stroke-linecap="round" stroke-linejoin="round"/>
<path d="M557.167 108.082H517.924V189.14H557.167V108.082Z" stroke="#FEFEFE" stroke-miterlimit="10" stroke-linecap="round" stroke-linejoin="round"/>
<path d="M546.73 113.096H526.482V166.786H546.73V113.096Z" stroke="#FEFEFE" stroke-miterlimit="10" stroke-linecap="round" stroke-linejoin="round"/>
<path d="M526.064 173.889H547.147" stroke="#FEFEFE" stroke-miterlimit="10" stroke-linecap="round" stroke-linejoin="round"/>
<path d="M526.064 180.574H547.147" stroke="#FEFEFE" stroke-miterlimit="10" stroke-linecap="round" stroke-linejoin="round"/>
<path d="M599.333 108.082H560.09V189.14H599.333V108.082Z" stroke="#FEFEFE" stroke-miterlimit="10" stroke-linecap="round" stroke-linejoin="round"/>
<path d="M588.896 113.096H568.648V166.786H588.896V113.096Z" stroke="#FEFEFE" stroke-miterlimit="10" stroke-linecap="round" stroke-linejoin="round"/>
<path d="M568.23 173.889H589.313" stroke="#FEFEFE" stroke-miterlimit="10" stroke-linecap="round" stroke-linejoin="round"/>
<path d="M568.23 180.574H589.313" stroke="#FEFEFE" stroke-miterlimit="10" stroke-linecap="round" stroke-linejoin="round"/>
<path d="M641.289 108.082H602.046V189.14H641.289V108.082Z" stroke="#FEFEFE" stroke-miterlimit="10" stroke-linecap="round" stroke-linejoin="round"/>
<path d="M630.852 113.096H610.604V166.786H630.852V113.096Z" stroke="#FEFEFE" stroke-miterlimit="10" stroke-linecap="round" stroke-linejoin="round"/>
<path d="M610.396 173.889H631.27" stroke="#FEFEFE" stroke-miterlimit="10" stroke-linecap="round" stroke-linejoin="round"/>
<path d="M610.396 180.574H631.27" stroke="#FEFEFE" stroke-miterlimit="10" stroke-linecap="round" stroke-linejoin="round"/>
<path d="M683.455 108.082H644.212V189.14H683.455V108.082Z" stroke="#FEFEFE" stroke-miterlimit="10" stroke-linecap="round" stroke-linejoin="round"/>
<path d="M673.018 113.096H652.771V166.786H673.018V113.096Z" stroke="#FEFEFE" stroke-miterlimit="10" stroke-linecap="round" stroke-linejoin="round"/>
<path d="M652.353 173.889H673.435" stroke="#FEFEFE" stroke-miterlimit="10" stroke-linecap="round" stroke-linejoin="round"/>
<path d="M652.353 180.574H673.435" stroke="#FEFEFE" stroke-miterlimit="10" stroke-linecap="round" stroke-linejoin="round"/>
<path d="M725.621 108.082H686.378V189.14H725.621V108.082Z" stroke="#FEFEFE" stroke-miterlimit="10" stroke-linecap="round" stroke-linejoin="round"/>
<path d="M715.184 113.096H694.937V166.786H715.184V113.096Z" stroke="#FEFEFE" stroke-miterlimit="10" stroke-linecap="round" stroke-linejoin="round"/>
<path d="M694.519 173.889H715.601" stroke="#FEFEFE" stroke-miterlimit="10" stroke-linecap="round" stroke-linejoin="round"/>
<path d="M694.519 180.574H715.601" stroke="#FEFEFE" stroke-miterlimit="10" stroke-linecap="round" stroke-linejoin="round"/>
<path d="M767.578 108.082H728.335V189.14H767.578V108.082Z" stroke="#FEFEFE" stroke-miterlimit="10" stroke-linecap="round" stroke-linejoin="round"/>
<path d="M221.094 4H204.395V13.8189H221.094V4Z" stroke="#FEFEFE" stroke-miterlimit="10" stroke-linecap="round" stroke-linejoin="round"/>
<path d="M229.651 26.353C229.443 25.7263 229.025 25.3085 228.816 24.8907L224.433 18.2055L222.345 15.9074L220.675 13.6094H204.394L201.68 18.2055L196.879 25.5174C196.461 25.9352 196.044 26.562 196.044 27.6065V77.9544C196.044 82.1327 199.384 85.4753 203.559 85.4753H222.345C226.52 85.4753 229.86 82.1327 229.86 77.9544V27.3976C229.86 26.9798 229.651 26.7709 229.651 26.353Z" stroke="#FEFEFE" stroke-miterlimit="10" stroke-linecap="round" stroke-linejoin="round"/>
<path d="M260.963 4H244.264V13.8189H260.963V4Z" stroke="#FEFEFE" stroke-miterlimit="10" stroke-linecap="round" stroke-linejoin="round"/>
<path d="M269.312 26.353C269.104 25.7263 268.686 25.3085 268.477 24.8907L264.094 18.2055L262.006 15.9074L260.337 13.6094H244.055L241.341 18.2055L236.54 25.5174C236.123 25.9352 235.705 26.562 235.705 27.6065V77.9544C235.705 82.1327 239.045 85.4753 243.22 85.4753H262.006C266.181 85.4753 269.521 82.1327 269.521 77.9544V27.3976C269.521 26.9798 269.312 26.7709 269.312 26.353Z" stroke="#FEFEFE" stroke-miterlimit="10" stroke-linecap="round" stroke-linejoin="round"/>
<path d="M300.623 4H283.924V13.8189H300.623V4Z" stroke="#FEFEFE" stroke-miterlimit="10" stroke-linecap="round" stroke-linejoin="round"/>
<path d="M308.973 26.3531C308.764 25.7264 308.347 25.3085 308.138 24.8907L303.754 18.2055L301.876 15.9075V16.1164L300.206 13.8184H283.924L281.21 18.4144L276.409 25.7264C275.992 26.1442 275.574 26.7709 275.574 27.8155V78.1634C275.574 82.3417 278.914 85.6843 283.089 85.6843H301.876C306.05 85.6843 309.39 82.3417 309.39 78.1634V27.3977C309.182 26.9798 309.182 26.7709 308.973 26.3531Z" stroke="#FEFEFE" stroke-miterlimit="10" stroke-linecap="round" stroke-linejoin="round"/>
<path d="M340.284 4H323.585V13.8189H340.284V4Z" stroke="#FEFEFE" stroke-miterlimit="10" stroke-linecap="round" stroke-linejoin="round"/>
<path d="M348.634 26.3531C348.425 25.7264 348.008 25.3085 347.799 24.8907L343.415 18.2055L341.537 15.9075V16.1164L339.867 13.8184H323.585L320.871 18.4144L316.07 25.7264C315.653 26.1442 315.235 26.7709 315.235 27.8155V78.1634C315.235 82.3417 318.575 85.6843 322.75 85.6843H341.537C345.712 85.6843 349.051 82.3417 349.051 78.1634V27.3977C348.843 26.9798 348.843 26.7709 348.634 26.3531Z" stroke="#FEFEFE" stroke-miterlimit="10" stroke-linecap="round" stroke-linejoin="round"/>
<path d="M380.154 4H363.455V13.8189H380.154V4Z" stroke="#FEFEFE" stroke-miterlimit="10" stroke-linecap="round" stroke-linejoin="round"/>
<path d="M388.504 26.3531C388.295 25.7264 387.878 25.3085 387.669 24.8907L383.077 18.2055L381.198 15.9075V16.1164L379.528 13.8184H363.246L360.532 18.4144L355.731 25.7264C355.314 26.1442 354.896 26.7709 354.896 27.8155V78.1634C354.896 82.3417 358.236 85.6843 362.411 85.6843H381.198C385.373 85.6843 388.713 82.3417 388.713 78.1634V27.3977C388.713 26.9798 388.504 26.7709 388.504 26.3531Z" stroke="#FEFEFE" stroke-miterlimit="10" stroke-linecap="round" stroke-linejoin="round"/>
<path d="M419.815 4H403.115V13.8189H419.815V4Z" stroke="#FEFEFE" stroke-miterlimit="10" stroke-linecap="round" stroke-linejoin="round"/>
<path d="M428.164 26.3531C427.955 25.7264 427.538 25.3085 427.329 24.8907L422.946 18.2055L421.067 15.9075V16.1164L419.397 13.8184H403.115L400.402 18.4144L395.601 25.7264C395.183 26.1442 394.766 26.7709 394.766 27.8155V78.1634C394.766 82.3417 398.105 85.6843 402.28 85.6843H421.067C425.242 85.6843 428.582 82.3417 428.582 78.1634V27.3977C428.373 26.9798 428.373 26.7709 428.164 26.3531Z" stroke="#FEFEFE" stroke-miterlimit="10" stroke-linecap="round" stroke-linejoin="round"/>
<path d="M459.476 4H442.776V13.8189H459.476V4Z" stroke="#FEFEFE" stroke-miterlimit="10" stroke-linecap="round" stroke-linejoin="round"/>
<path d="M467.825 26.3531C467.617 25.7264 467.199 25.3085 466.99 24.8907L462.607 18.2055L460.728 15.9075V16.1164L459.058 13.8184H442.776L440.063 18.4144L435.262 25.7264C434.844 26.1442 434.427 26.7709 434.427 27.8155V78.1634C434.427 82.3417 437.767 85.6843 441.941 85.6843H460.728C464.903 85.6843 468.243 82.3417 468.243 78.1634V27.3977C468.034 26.9798 468.034 26.7709 467.825 26.3531Z" stroke="#FEFEFE" stroke-miterlimit="10" stroke-linecap="round" stroke-linejoin="round"/>
<path d="M499.345 4H482.646V13.8189H499.345V4Z" stroke="#FEFEFE" stroke-miterlimit="10" stroke-linecap="round" stroke-linejoin="round"/>
<path d="M507.695 26.3531C507.486 25.7264 507.069 25.3085 506.86 24.8907L502.477 18.2055L500.389 15.9075V16.1164L498.719 13.8184H482.438L479.724 18.4144L474.923 25.7264C474.505 26.1442 474.088 26.7709 474.088 27.8155V78.1634C474.088 82.3417 477.428 85.6843 481.603 85.6843H500.389C504.564 85.6843 507.904 82.3417 507.904 78.1634V27.3977C507.904 26.9798 507.695 26.7709 507.695 26.3531Z" stroke="#FEFEFE" stroke-miterlimit="10" stroke-linecap="round" stroke-linejoin="round"/>
<path d="M539.006 4H522.307V13.8189H539.006V4Z" stroke="#FEFEFE" stroke-miterlimit="10" stroke-linecap="round" stroke-linejoin="round"/>
<path d="M547.356 26.3531C547.147 25.7264 546.729 25.3085 546.521 24.8907L542.137 18.2055L540.258 15.9075V16.1164L538.588 13.8184H522.307L519.593 18.4144L514.792 25.7264C514.375 26.1442 513.957 26.7709 513.957 27.8155V78.1634C513.957 82.3417 517.297 85.6843 521.472 85.6843H540.258C544.433 85.6843 547.773 82.3417 547.773 78.1634V27.3977C547.564 26.9798 547.564 26.7709 547.356 26.3531Z" stroke="#FEFEFE" stroke-miterlimit="10" stroke-linecap="round" stroke-linejoin="round"/>
<path d="M578.667 4H561.968V13.8189H578.667V4Z" stroke="#FEFEFE" stroke-miterlimit="10" stroke-linecap="round" stroke-linejoin="round"/>
<path d="M587.017 26.3531C586.808 25.7264 586.391 25.3085 586.182 24.8907L581.798 18.2055L579.92 15.9075V16.1164L578.25 13.8184H561.968L559.254 18.4144L554.453 25.7264C554.036 26.1442 553.618 26.7709 553.618 27.8155V78.1634C553.618 82.3417 556.958 85.6843 561.133 85.6843H579.92C584.094 85.6843 587.434 82.3417 587.434 78.1634V27.3977C587.225 26.9798 587.225 26.7709 587.017 26.3531Z" stroke="#FEFEFE" stroke-miterlimit="10" stroke-linecap="round" stroke-linejoin="round"/>
<path d="M618.536 4H601.837V13.8189H618.536V4Z" stroke="#FEFEFE" stroke-miterlimit="10" stroke-linecap="round" stroke-linejoin="round"/>
<path d="M626.887 26.3531C626.678 25.7264 626.26 25.3085 626.052 24.8907L621.668 18.2055L619.581 15.9075V16.1164L617.911 13.8184H601.629L598.915 18.4144L594.114 25.7264C593.697 26.1442 593.279 26.7709 593.279 27.8155V78.1634C593.279 82.3417 596.619 85.6843 600.794 85.6843H619.581C623.756 85.6843 627.095 82.3417 627.095 78.1634V27.3977C627.095 26.9798 626.887 26.7709 626.887 26.3531Z" stroke="#FEFEFE" stroke-miterlimit="10" stroke-linecap="round" stroke-linejoin="round"/>
<path d="M658.197 4H641.498V13.8189H658.197V4Z" stroke="#FEFEFE" stroke-miterlimit="10" stroke-linecap="round" stroke-linejoin="round"/>
<path d="M666.547 26.3531C666.338 25.7264 665.921 25.3085 665.712 24.8907L661.328 18.2055L659.45 15.9075V16.1164L657.78 13.8184H641.498L638.784 18.4144L633.983 25.7264C633.566 26.1442 633.148 26.7709 633.148 27.8155V78.1634C633.148 82.3417 636.488 85.6843 640.663 85.6843H659.45C663.625 85.6843 666.964 82.3417 666.964 78.1634V27.3977C666.756 26.9798 666.756 26.7709 666.547 26.3531Z" stroke="#FEFEFE" stroke-miterlimit="10" stroke-linecap="round" stroke-linejoin="round"/>
<path d="M697.857 4H681.158V13.8189H697.857V4Z" stroke="#FEFEFE" stroke-miterlimit="10" stroke-linecap="round" stroke-linejoin="round"/>
<path d="M706.207 26.3531C705.998 25.7264 705.581 25.3085 705.372 24.8907L700.989 18.2055L699.11 15.9075V16.1164L697.44 13.8184H681.158L678.445 18.4144L673.644 25.7264C673.226 26.1442 672.809 26.7709 672.809 27.8155V78.1634C672.809 82.3417 676.148 85.6843 680.323 85.6843H699.11C703.285 85.6843 706.625 82.3417 706.625 78.1634V27.3977C706.416 26.9798 706.416 26.7709 706.207 26.3531Z" stroke="#FEFEFE" stroke-miterlimit="10" stroke-linecap="round" stroke-linejoin="round"/>
<path d="M737.728 4H721.028V13.8189H737.728V4Z" stroke="#FEFEFE" stroke-miterlimit="10" stroke-linecap="round" stroke-linejoin="round"/>
<path d="M746.077 26.3531C745.868 25.7264 745.451 25.3085 745.242 24.8907L740.859 18.2055L738.771 15.9075V16.1164L737.101 13.8184H720.819L718.106 18.4144L713.305 25.7264C712.887 26.1442 712.47 26.7709 712.47 27.8155V78.1634C712.47 82.3417 715.81 85.6843 719.984 85.6843H738.771C742.946 85.6843 746.286 82.3417 746.286 78.1634V27.3977C746.286 26.9798 746.077 26.7709 746.077 26.3531Z" stroke="#FEFEFE" stroke-miterlimit="10" stroke-linecap="round" stroke-linejoin="round"/>
</g>
<defs>
<clipPath id="clip0_27_29416">
<rect width="730" height="565" fill="white"/>
</clipPath>
</defs>
</svg>
