<svg width="66" height="53" viewBox="0 0 66 53" fill="none" xmlns="http://www.w3.org/2000/svg">
<g clip-path="url(#clip0_58_31323)">
<mask id="mask0_58_31323" style="mask-type:alpha" maskUnits="userSpaceOnUse" x="-3" y="34" width="11" height="11">
<circle cx="2.5" cy="39.5" r="5.5" fill="#D9D9D9"/>
</mask>
<g mask="url(#mask0_58_31323)">
<path d="M51.5348 13.5245C51.5348 14.3416 51.066 14.8863 50.3757 14.8863H23.4524V32.6324C23.4354 33.1686 23.0263 33.7474 22.3871 33.7474C22.3445 33.7474 22.2933 33.7474 22.2507 33.7389C22.0462 33.7133 21.8331 33.6963 21.6371 33.6963C20.0518 33.6963 19.0036 34.573 18.1087 35.5092C16.0547 37.6626 13.907 39.8074 11.8274 41.8842L11.8274 41.8842C11.0007 42.7183 10.1655 43.5439 9.33878 44.378L9.24503 44.4717L9.2447 44.472C9.04879 44.6676 8.85287 44.8633 8.65696 45.0504C8.38423 45.2973 8.12003 45.4249 7.83878 45.4249C7.70241 45.4249 7.54901 45.3909 7.3956 45.3228C6.90128 45.1185 6.67116 44.7525 6.67116 44.1823V39.6457V37.586C6.66264 37.3136 6.66264 37.0413 6.66264 36.7689C6.66264 36.1306 6.65412 35.4752 6.67969 34.8283C6.68821 34.5985 6.67969 34.2666 6.44105 34.0198C6.18537 33.7559 5.81037 33.7559 5.69105 33.7559H5.5973C5.27344 33.7644 4.92401 33.7729 4.54048 33.7729C4.18253 33.7729 3.79048 33.7644 3.31321 33.7559C1.42969 33.7048 0.00639205 32.2579 0.00639205 30.3854C-0.00213068 22.0018 -0.00213068 13.1755 0.00639205 3.39602C0.00639205 1.57459 1.27628 0.187249 3.09162 0.025534C3.48366 0.00851132 16.9411 0 30.0234 0H47.495C48.2706 0 48.9013 0.0851132 49.4126 0.25534C50.6143 0.655372 51.4922 1.94909 51.5348 3.32793C51.5433 6.67288 51.5433 10.0604 51.5348 13.5245Z" fill="#3286DB"/>
</g>
<mask id="mask1_58_31323" style="mask-type:alpha" maskUnits="userSpaceOnUse" x="48" y="-9" width="11" height="11">
<circle cx="53.5" cy="-3.5" r="5.5" fill="#D9D9D9"/>
</mask>
<g mask="url(#mask1_58_31323)">
<path d="M51.5348 13.5245C51.5348 14.3416 51.066 14.8863 50.3757 14.8863H23.4524V32.6324C23.4354 33.1686 23.0263 33.7474 22.3871 33.7474C22.3445 33.7474 22.2933 33.7474 22.2507 33.7389C22.0462 33.7133 21.8331 33.6963 21.6371 33.6963C20.0518 33.6963 19.0036 34.573 18.1087 35.5092C16.0547 37.6626 13.907 39.8074 11.8274 41.8842L11.8274 41.8842C11.0007 42.7183 10.1655 43.5439 9.33878 44.378L9.24503 44.4717L9.2447 44.472C9.04879 44.6676 8.85287 44.8633 8.65696 45.0504C8.38423 45.2973 8.12003 45.4249 7.83878 45.4249C7.70241 45.4249 7.54901 45.3909 7.3956 45.3228C6.90128 45.1185 6.67116 44.7525 6.67116 44.1823V39.6457V37.586C6.66264 37.3136 6.66264 37.0413 6.66264 36.7689C6.66264 36.1306 6.65412 35.4752 6.67969 34.8283C6.68821 34.5985 6.67969 34.2666 6.44105 34.0198C6.18537 33.7559 5.81037 33.7559 5.69105 33.7559H5.5973C5.27344 33.7644 4.92401 33.7729 4.54048 33.7729C4.18253 33.7729 3.79048 33.7644 3.31321 33.7559C1.42969 33.7048 0.00639205 32.2579 0.00639205 30.3854C-0.00213068 22.0018 -0.00213068 13.1755 0.00639205 3.39602C0.00639205 1.57459 1.27628 0.187249 3.09162 0.025534C3.48366 0.00851132 16.9411 0 30.0234 0H47.495C48.2706 0 48.9013 0.0851132 49.4126 0.25534C50.6143 0.655372 51.4922 1.94909 51.5348 3.32793C51.5433 6.67288 51.5433 10.0604 51.5348 13.5245Z" fill="#3286DB"/>
</g>
<mask id="mask2_58_31323" style="mask-type:alpha" maskUnits="userSpaceOnUse" x="61" y="47" width="8" height="8">
<circle cx="65" cy="51" r="4" fill="#D9D9D9"/>
</mask>
<g mask="url(#mask2_58_31323)">
<path d="M65.9639 23.082C65.9639 24.8183 65.9639 26.5632 65.9553 28.2995C65.9468 32.3423 65.9298 36.5214 66.0065 40.6324C66.0235 41.8069 65.64 42.8623 64.9326 43.5858C64.3105 44.2242 63.4667 44.5731 62.5633 44.5731C62.4515 44.5731 62.3472 44.5656 62.2364 44.5577L62.2139 44.5561C62.1712 44.5476 62.1372 44.5476 62.0945 44.5476C61.9837 44.5476 61.873 44.5561 61.7622 44.5731C61.694 44.5816 61.6173 44.5901 61.532 44.5986L61.1485 44.6327V47.3563V48.599C61.1485 49.5693 61.14 50.5736 61.1485 51.5609C61.157 52.5057 60.7565 52.778 60.407 52.9142C60.2536 52.9653 60.1087 52.9993 59.9639 52.9993C59.6229 52.9993 59.2735 52.8206 58.9156 52.4546C56.1457 49.6374 53.8105 47.2967 51.5775 45.0923C51.2622 44.7859 50.7252 44.5731 50.2479 44.5731C46.0207 44.5561 41.7082 44.5561 38.0008 44.5561H31.8303C29.1883 44.5561 27.9014 43.2624 27.9014 40.5983V37.6023V23.1246C27.9014 20.784 29.282 19.3796 31.6002 19.3796C36.6798 19.3711 41.7678 19.3711 46.8474 19.3711C52.0036 19.3711 57.1599 19.3711 62.3161 19.3796C64.6343 19.3881 65.9639 20.7329 65.9639 23.082Z" fill="#3286DB"/>
</g>
<mask id="mask3_58_31323" style="mask-type:alpha" maskUnits="userSpaceOnUse" x="24" y="14" width="8" height="8">
<circle cx="28" cy="18" r="4" fill="#D9D9D9"/>
</mask>
<g mask="url(#mask3_58_31323)">
<path d="M65.9639 23.082C65.9639 24.8183 65.9639 26.5632 65.9553 28.2995C65.9468 32.3423 65.9298 36.5214 66.0065 40.6324C66.0235 41.8069 65.64 42.8623 64.9326 43.5858C64.3105 44.2242 63.4667 44.5731 62.5633 44.5731C62.4515 44.5731 62.3472 44.5656 62.2364 44.5577L62.2139 44.5561C62.1712 44.5476 62.1372 44.5476 62.0945 44.5476C61.9837 44.5476 61.873 44.5561 61.7622 44.5731C61.694 44.5816 61.6173 44.5901 61.532 44.5986L61.1485 44.6327V47.3563V48.599C61.1485 49.5693 61.14 50.5736 61.1485 51.5609C61.157 52.5057 60.7565 52.778 60.407 52.9142C60.2536 52.9653 60.1087 52.9993 59.9639 52.9993C59.6229 52.9993 59.2735 52.8206 58.9156 52.4546C56.1457 49.6374 53.8105 47.2967 51.5775 45.0923C51.2622 44.7859 50.7252 44.5731 50.2479 44.5731C46.0207 44.5561 41.7082 44.5561 38.0008 44.5561H31.8303C29.1883 44.5561 27.9014 43.2624 27.9014 40.5983V37.6023V23.1246C27.9014 20.784 29.282 19.3796 31.6002 19.3796C36.6798 19.3711 41.7678 19.3711 46.8474 19.3711C52.0036 19.3711 57.1599 19.3711 62.3161 19.3796C64.6343 19.3881 65.9639 20.7329 65.9639 23.082Z" fill="#3286DB"/>
</g>
<path d="M22.1911 31.4408C22.0206 31.4323 21.8587 31.4323 21.6882 31.4238C21.3814 31.4153 21.0575 31.3983 20.7507 31.3983C20.3501 31.3983 20.0263 31.4153 19.728 31.4578C19.1825 31.5259 18.6712 31.7387 18.3899 32.0111C16.8217 33.5091 15.2791 35.0922 13.7791 36.6157C13.4723 36.9306 13.1655 37.2455 12.8587 37.5519C12.1854 38.2414 11.5036 38.9478 10.8473 39.6287C10.5405 39.9436 10.2422 40.2671 9.93537 40.582L9.62003 40.9139C9.41548 41.1267 9.05753 40.9905 9.04901 40.6926L9.03196 40.1819C9.03196 40.1053 9.02344 40.0373 9.02344 39.9607C9.01491 39.7904 9.00639 39.6202 9.00639 39.45C9.00639 38.5903 9.00639 37.7307 9.00639 36.871C9.00639 35.5348 9.00639 34.19 8.99787 32.8537C8.99787 31.8579 8.58026 31.4493 7.5831 31.4408C7.13139 31.4408 6.67116 31.4323 6.21946 31.4323H4.37003H3.85866C2.62287 31.4323 2.32457 31.1259 2.32457 29.8832C2.32457 21.2102 2.32457 12.5372 2.32457 3.87265C2.32457 2.64702 2.61435 2.34912 3.80753 2.34912C11.4098 2.34912 19.0036 2.34912 26.6058 2.34912C33.6456 2.34912 40.6854 2.34912 47.7251 2.34912C48.9524 2.34912 49.2422 2.63851 49.2422 3.91521C49.2422 5.10679 49.2422 6.30689 49.2422 7.49847C49.2422 9.49863 49.2422 11.5073 49.2422 13.5075C49.2422 14.3841 49.6513 14.8863 50.3757 14.8863C51.066 14.8863 51.5348 14.3416 51.5348 13.5245C51.5433 10.0604 51.5433 6.67288 51.5348 3.32793C51.4922 1.94909 50.6143 0.655372 49.4126 0.25534C48.9013 0.0851132 48.2706 0 47.495 0C42.7649 0 36.424 0 30.0234 0C16.9411 0 3.48366 0.00851132 3.09162 0.025534C1.27628 0.187249 0.00639205 1.57459 0.00639205 3.39602C-0.00213068 13.1755 -0.00213068 22.0018 0.00639205 30.3854C0.00639205 32.2579 1.42969 33.7048 3.31321 33.7559C3.79048 33.7644 4.18253 33.7729 4.54048 33.7729C4.92401 33.7729 5.27344 33.7644 5.5973 33.7559C5.63139 33.7559 5.65696 33.7559 5.69105 33.7559C5.81037 33.7559 6.18537 33.7559 6.44105 34.0198C6.67969 34.2666 6.68821 34.5985 6.67969 34.8283C6.65412 35.4752 6.66264 36.1306 6.66264 36.7689C6.66264 37.0413 6.66264 37.3136 6.67116 37.586V39.6457C6.67116 41.1607 6.67116 42.6758 6.67116 44.1823C6.67116 44.7525 6.90128 45.1185 7.3956 45.3228C7.54901 45.3909 7.70241 45.4249 7.83878 45.4249C8.12003 45.4249 8.38423 45.2973 8.65696 45.0504C8.85298 44.8632 9.04901 44.6674 9.24503 44.4717L9.33878 44.378C10.1655 43.5439 11.0007 42.7183 11.8274 41.8842C13.907 39.8075 16.0547 37.6626 18.1087 35.5092C19.0036 34.573 20.0518 33.6963 21.6371 33.6963C21.8331 33.6963 22.0462 33.7133 22.2507 33.7389C22.2933 33.7474 22.3445 33.7474 22.3871 33.7474C23.0263 33.7474 23.4354 33.1686 23.4524 32.6324C23.4609 32.309 23.3501 32.0196 23.1286 31.8068C22.8984 31.577 22.5661 31.4493 22.1911 31.4408ZM65.9553 28.3001C65.9638 26.5638 65.9638 24.819 65.9638 23.0827C65.9638 20.7336 64.6342 19.3888 62.3161 19.3803C57.1598 19.3718 52.0036 19.3718 46.8473 19.3718C41.7678 19.3718 36.6797 19.3718 31.6001 19.3803C29.282 19.3803 27.9013 20.7846 27.9013 23.1253C27.9013 27.9512 27.9013 32.7771 27.9013 37.603V40.599C27.9013 43.263 29.1882 44.5568 31.8303 44.5568H38.0007C41.7081 44.5568 46.0206 44.5568 50.2479 44.5738C50.7251 44.5738 51.2621 44.7866 51.5774 45.093C53.8104 47.2974 56.1456 49.638 58.9155 52.4553C59.2734 52.8213 59.6229 53 59.9638 53C60.1087 53 60.2535 52.966 60.407 52.9149C60.7564 52.7787 61.157 52.5063 61.1484 51.5616C61.1399 50.5743 61.1484 49.5699 61.1484 48.5996C61.1484 48.1826 61.1484 47.774 61.1484 47.357V44.6334L61.532 44.5993C61.6172 44.5908 61.6939 44.5823 61.7621 44.5738C61.8729 44.5568 61.9837 44.5483 62.0945 44.5483C62.1371 44.5483 62.1712 44.5483 62.2138 44.5568C62.3331 44.5653 62.4439 44.5738 62.5632 44.5738C63.4666 44.5738 64.3104 44.2248 64.9325 43.5865C65.6399 42.863 66.0234 41.8076 66.0064 40.633C65.9297 36.5221 65.9467 32.343 65.9553 28.3001ZM63.6712 40.6756C63.6712 41.8927 63.3558 42.2076 62.1285 42.2162H61.8729H60.9183C60.7053 42.2162 60.4922 42.2162 60.2791 42.2162C59.2138 42.2332 58.8473 42.5992 58.8388 43.6886C58.8303 44.6249 58.8303 45.5781 58.8303 46.4973C58.8303 46.9059 58.8303 47.3229 58.8303 47.7315V48.2422C58.8303 48.6167 58.3785 48.7954 58.1314 48.523L57.8331 48.1996C57.5859 47.9358 57.3388 47.6719 57.0916 47.4081C56.5376 46.8208 55.9751 46.208 55.4041 45.6207C55.0632 45.2717 54.7138 44.9142 54.3643 44.5738C53.8359 44.0461 53.2905 43.5099 52.7706 42.9396C52.2933 42.4119 51.7564 42.1991 50.9212 42.1991H50.9041C48.0746 42.2076 45.032 42.2162 41.0518 42.2162C39.4496 42.2162 37.8473 42.2162 36.245 42.2162C34.7962 42.2162 33.3473 42.2162 31.8984 42.2162C30.4922 42.2162 30.228 41.9438 30.228 40.5054V40.4458C30.228 34.7432 30.228 29.0406 30.228 23.338C30.228 21.9933 30.5007 21.7209 31.8388 21.7209H47.4268H62.103C63.407 21.7209 63.6882 22.0018 63.6882 23.287C63.6712 29.0832 63.6712 34.8794 63.6712 40.6756ZM29.6655 10.4689C23.7763 10.4689 17.8871 10.4689 11.9979 10.4689C11.6825 10.4689 11.3501 10.4774 11.0689 10.554C10.5661 10.6732 10.2507 11.1328 10.2678 11.686C10.2848 12.1882 10.6428 12.6478 11.1115 12.7414C11.3842 12.801 11.7081 12.801 11.9808 12.801C14.7763 12.801 17.5717 12.801 20.3672 12.801H39.4666C40.1825 12.801 40.7109 12.6563 40.9837 12.3755C41.1626 12.1967 41.2479 11.9414 41.2479 11.6094C41.2479 11.2945 41.2308 10.4604 39.4922 10.4604L29.6655 10.4689ZM22.0717 20.9549C20.3075 20.9464 18.5518 20.9464 16.7876 20.9464C15.1001 20.9464 13.4041 20.9464 11.7166 20.9549C11.1797 20.9549 10.2763 21.1081 10.2678 22.1039C10.2678 22.4358 10.3615 22.6997 10.549 22.8869C10.7962 23.1423 11.2138 23.2785 11.7592 23.2785C12.4325 23.2785 13.0973 23.2785 13.7706 23.2785C14.299 23.2785 16.8473 23.2785 16.8473 23.2785C17.299 23.2785 17.7592 23.2785 18.2109 23.2785C18.6626 23.2785 19.1143 23.2785 19.5746 23.2785C20.5632 23.2785 21.3217 23.27 22.0376 23.2614C22.3871 23.2529 22.728 23.1763 22.9581 23.0401C23.3928 22.7848 23.5803 22.2826 23.4183 21.789C23.2734 21.406 23.0092 20.9549 22.0717 20.9549ZM54.2621 30.811H54.245C53.6484 30.8195 53.103 31.3727 53.103 31.9685C53.103 32.5813 53.6484 33.1261 54.2621 33.1261C54.2791 33.1261 54.2876 33.1261 54.3047 33.1261C54.9524 33.1005 55.4041 32.5984 55.3956 31.9345C55.3786 31.2876 54.9013 30.811 54.2621 30.811ZM46.9325 30.811C46.3189 30.811 45.7905 31.3387 45.782 31.9515C45.7734 32.5728 46.2933 33.1005 46.9155 33.1175H46.941C47.2479 33.1175 47.5376 32.9984 47.7422 32.7856C47.9553 32.5643 48.0746 32.2664 48.066 31.943C48.066 31.2961 47.5803 30.811 46.9325 30.811ZM39.6115 30.811C38.9979 30.811 38.4695 31.3387 38.4695 31.9515C38.4609 32.5813 38.9723 33.109 39.5945 33.1175H39.62C39.9268 33.1175 40.2166 32.9984 40.4297 32.7771C40.6513 32.5558 40.7621 32.2579 40.7621 31.943C40.7536 31.3131 40.2507 30.811 39.6115 30.811Z" fill="#3286DB"/>
</g>
<defs>
<clipPath id="clip0_58_31323">
<rect width="66.0069" height="53" fill="white"/>
</clipPath>
</defs>
</svg>
