<svg width="38" height="62" viewBox="0 0 38 62" fill="none" xmlns="http://www.w3.org/2000/svg">
<path d="M13.1406 42.4895C12.9961 42.345 12.8516 41.9114 12.418 41.3333C12.2734 41.0443 12.1289 40.6107 11.8398 40.1772C11.6953 39.8881 11.4062 39.5991 11.2617 39.31C11.1172 39.021 11.1172 38.5874 10.9727 38.2984C10.8281 38.0093 10.5391 37.7203 10.3945 37.2867C10.25 36.9977 9.96094 36.7086 9.81641 36.2751C9.67188 35.986 9.52734 35.5524 9.38281 35.2634C9.23828 34.8298 8.94922 34.5408 8.94922 34.2517C8.80469 33.9627 8.80469 33.5291 8.66016 33.2401C8.51562 32.951 8.37109 32.5175 8.37109 32.2284C8.22656 31.9394 8.22656 31.5058 8.22656 31.0723C8.08203 30.6387 7.9375 30.3496 7.9375 30.0606C7.79297 29.627 7.9375 29.338 7.79297 28.9044C7.64844 28.4709 7.50391 28.1818 7.50391 27.8928C7.35938 27.3147 7.35938 27.0256 7.35938 26.7366C7.50391 26.5921 7.64844 26.303 7.79297 25.8695C7.9375 25.5804 8.08203 25.2914 8.37109 25.0023C8.51562 24.7133 8.80469 24.4242 8.94922 24.1352C9.23828 23.8462 9.52734 23.7016 9.81641 23.4126C10.1055 23.2681 10.5391 22.979 10.8281 22.979C11.2617 22.979 11.5508 22.979 11.8398 22.979C12.2734 22.979 12.5625 22.979 12.8516 22.979C13.2852 23.1235 13.5742 23.2681 13.8633 23.2681C14.0078 23.8462 13.8633 23.8462 14.0078 24.5688C14.1523 25.1469 14.1523 25.1469 14.2969 25.8695C14.4414 26.5921 14.4414 26.4476 14.5859 27.1702H14.4414C14.0078 27.1702 13.5742 27.1702 13.1406 27.3147C12.707 27.4592 12.2734 27.6037 11.9844 27.8928C11.6953 28.1818 11.4062 28.7599 11.2617 29.1935C11.2617 29.1935 11.2617 29.1935 11.1172 29.1935L11.2617 29.338C11.1172 29.627 11.1172 30.0606 11.1172 30.6387C11.1172 31.0723 11.1172 31.3613 11.2617 31.7949C11.4062 32.0839 11.5508 32.5175 11.6953 32.8065C11.8398 33.0956 12.1289 33.3846 12.2734 33.6737C12.418 33.9627 12.707 34.2517 12.9961 34.5408C13.2852 34.8298 13.4297 35.1189 13.8633 35.2634C14.1523 35.5524 14.4414 35.697 14.7305 35.8415C15.0195 35.986 15.3086 36.2751 15.5977 36.4196C15.8867 36.5641 16.3203 36.7086 16.6094 36.8531C16.8984 36.9977 17.1875 37.1422 17.4766 37.2867C17.7656 37.4312 18.0547 37.4312 18.4883 37.5758C18.4883 37.8648 18.6328 38.1538 18.6328 38.5874C18.6328 38.8765 18.6328 39.31 18.4883 39.5991C18.4883 39.8881 18.4883 40.3217 18.3438 40.6107C18.1992 40.8998 17.9102 41.1888 17.7656 41.4779C17.4766 41.7669 17.043 41.9114 16.7539 42.2005C16.3203 42.345 16.0313 42.634 15.5977 42.634C15.1641 42.7786 14.7305 42.7786 14.2969 42.7786C14.0078 42.634 13.5742 42.634 13.1406 42.4895ZM24.5586 38.1538C24.9922 38.2984 25.2812 38.2984 25.5703 38.4429C26.293 38.5874 26.582 38.5874 26.7266 38.5874V38.7319H26.8711V38.8765H27.0156C27.0156 38.8765 27.0156 38.8765 27.0156 39.021H27.1602V39.1655H27.0156V39.31C27.0156 39.31 27.0156 39.31 26.8711 39.31C26.8711 39.31 26.8711 39.31 26.8711 39.4545C26.4375 39.4545 26.0039 39.4545 25.5703 39.5991C25.1367 39.7436 24.8477 39.8881 24.4141 40.0326C23.9805 40.1772 23.6914 40.3217 23.2578 40.6107C22.9688 40.7552 22.5352 41.0443 22.2461 41.3333C21.957 41.6224 21.668 41.9114 21.3789 42.2005C21.0898 42.4895 20.9453 42.7786 20.6563 43.0676C20.5117 43.3566 20.2227 43.6457 20.0781 44.0793C19.9336 44.3683 19.9336 44.8019 19.7891 45.0909C19.6445 45.38 19.5 45.669 19.3555 46.1026C19.2109 46.3916 19.2109 46.8252 19.0664 47.1142C19.0664 47.4033 18.9219 47.8368 18.9219 48.2704C18.9219 48.5594 18.9219 48.993 18.9219 49.4266C18.9219 49.7156 18.9219 50.1492 18.9219 50.5827C18.9219 50.8718 18.9219 51.3054 19.0664 51.7389C19.0664 51.8834 18.9219 52.1725 18.6328 52.1725C18.4883 52.1725 18.1992 52.028 18.1992 51.7389C18.1992 51.3054 18.0547 51.0163 18.0547 50.5827C18.0547 50.1492 18.0547 49.7156 18.0547 49.4266C18.0547 48.993 18.1992 48.704 18.1992 48.2704C18.1992 47.8368 18.3438 47.5478 18.3438 47.1142C18.4883 46.6806 18.4883 46.2471 18.4883 45.958C18.6328 45.5245 18.7773 45.2354 18.9219 44.8019C19.0664 44.3683 19.3555 44.0793 19.5 43.7902C19.6445 43.3566 19.9336 43.0676 20.0781 42.7786C20.3672 42.4895 20.5117 42.0559 20.8008 41.9114C21.0898 41.6224 21.3789 41.3333 21.668 41.0443C21.957 40.7552 22.2461 40.6107 22.6797 40.3217C22.9688 40.0326 23.2578 39.7436 23.6914 39.5991C23.9805 39.4545 24.4141 39.31 24.8477 39.1655C24.5586 39.1655 24.125 39.021 23.8359 38.8765C23.5469 38.8765 23.1133 38.7319 22.8242 38.7319C22.5352 38.5874 22.1016 38.4429 21.8125 38.4429C21.5234 38.2984 21.0898 38.4429 20.8008 38.2984C20.5117 38.1538 20.2227 38.0093 19.7891 38.0093C19.7891 38.2984 19.9336 38.7319 19.7891 39.1655C19.7891 39.4545 19.6445 39.8881 19.6445 40.3217C19.6445 40.7552 19.5 41.0443 19.3555 41.4779C19.2109 41.7669 19.0664 42.2005 18.7773 42.345C18.4883 42.634 18.0547 42.9231 17.6211 43.0676C17.1875 43.2121 16.8984 43.5012 16.3203 43.5012C15.8867 43.6457 15.4531 43.7902 15.0195 43.7902C14.4414 43.7902 13.8633 43.6457 13.2852 43.5012C12.9961 43.9347 12.5625 44.3683 12.2734 44.6573C11.9844 44.9464 11.6953 45.0909 11.2617 45.38C10.9727 45.5245 10.5391 45.8135 10.1055 45.958C9.67188 46.1026 9.23828 46.1026 8.80469 46.1026C8.51562 46.1026 8.22656 46.1026 7.79297 45.958C7.50391 45.958 7.21484 45.8135 6.78125 45.8135C6.49219 45.669 6.20312 45.5245 5.76953 45.2354C5.48047 45.0909 5.04688 44.8019 4.90234 44.5128C4.61328 44.2238 4.46875 43.9347 4.17969 43.6457C4.03516 43.3566 3.89062 43.0676 3.60156 42.634C3.74609 43.2121 3.89062 43.6457 4.03516 44.2238C4.17969 44.5128 4.17969 44.9464 4.32422 45.38C4.46875 45.669 4.61328 46.1026 4.61328 46.3916C4.75781 46.6806 4.90234 47.1142 5.04688 47.4033C5.19141 47.8368 5.19141 48.1259 5.19141 48.5594C5.33594 48.993 5.48047 49.2821 5.625 49.5711C5.76953 50.0047 5.76953 50.2937 5.91406 50.5827C6.05859 51.0163 6.20312 51.3054 6.20312 51.5944C6.34766 52.028 6.34766 52.317 6.49219 52.7506C6.63672 53.1841 6.78125 53.6177 6.92578 53.7622C7.07031 54.0513 7.21484 54.4848 7.50391 54.7739C7.64844 55.0629 7.79297 55.4965 8.08203 55.7855C8.22656 55.9301 8.66016 56.0746 8.94922 56.3636C9.23828 56.6527 9.52734 56.9417 9.81641 57.2308C10.1055 57.5198 10.3945 57.6643 10.6836 57.9534C10.9727 58.2424 11.2617 58.3869 11.6953 58.676C11.9844 58.8205 12.418 58.965 12.707 59.2541C12.9961 59.3986 13.4297 59.5431 13.7188 59.8322C14.0078 59.9767 14.2969 60.2657 14.7305 60.4103C15.0195 60.5548 15.4531 60.6993 15.8867 60.8438C16.1758 60.9883 16.6094 61.1329 16.8984 61.2774C17.332 61.4219 17.7656 61.4219 18.0547 61.5664C18.4883 61.711 18.7773 61.711 19.2109 61.8555C19.6445 61.8555 19.9336 62 20.3672 62C20.8008 62 21.2344 62 21.5234 62C21.957 62 22.3906 61.8555 22.6797 61.8555C23.1133 61.8555 23.4023 61.711 23.8359 61.711C24.2695 61.5664 24.7031 61.5664 24.9922 61.5664C25.4258 61.4219 25.7148 61.2774 26.1484 61.1329C26.582 60.9883 26.8711 60.8438 27.3047 60.5548C27.5938 60.4103 28.0273 60.1212 28.3164 59.9767C28.6055 59.8322 29.0391 59.6876 29.3281 59.3986C29.6172 59.1096 29.9063 58.965 30.1953 58.676C30.4844 58.3869 30.7734 58.2424 31.0625 57.9534C31.3516 57.6643 31.6406 57.3753 31.9297 57.2308C32.2188 56.9417 32.5078 56.6527 32.6523 56.3636C32.9414 56.0746 33.0859 55.7855 33.375 55.352C33.6641 55.0629 33.9531 54.7739 34.0977 54.4848C34.2422 54.1958 34.5312 53.7622 34.6758 53.4732C34.8203 53.1841 34.9648 52.7506 35.1094 52.4615C35.2539 52.028 35.3984 51.7389 35.543 51.3054C35.6875 50.8718 35.832 50.5828 35.9766 50.1492C36.1211 49.7156 36.1211 49.4266 36.2656 48.993C36.2656 48.5594 36.4102 48.2704 36.4102 47.8368C36.4102 47.4033 36.5547 47.1142 36.5547 46.6807C36.5547 46.2471 36.5547 45.958 36.5547 45.5245C36.5547 45.0909 36.5547 44.8019 36.4102 44.3683C36.4102 43.9347 36.4102 43.6457 36.2656 43.2121C36.2656 42.7786 36.1211 42.4895 36.1211 42.0559C36.1211 41.6224 35.9766 41.3333 35.832 40.8998C35.832 40.6107 35.9766 40.6107 35.832 40.3217C35.832 39.8881 35.543 39.5991 35.3984 39.1655C35.2539 38.7319 35.2539 38.4429 35.2539 38.0093C35.1094 37.5758 34.9648 37.2867 34.8203 36.8531C34.6758 36.4196 34.6758 36.1305 34.5312 35.697C34.3867 35.2634 34.0977 34.9744 33.9531 34.6853C33.8086 34.2517 33.6641 33.9627 33.5195 33.5291C33.375 33.0956 33.0859 32.8065 32.9414 32.5175C32.6523 32.0839 32.5078 31.7949 32.2188 31.5058H32.0742C31.9297 31.3613 31.7852 31.0723 31.6406 31.0723C31.4961 30.9277 31.0625 30.9277 30.4844 30.7832C30.1953 30.6387 29.9063 30.4942 29.4727 30.3496C29.1836 30.2051 28.75 30.2051 28.3164 30.2051C28.0273 30.0606 27.5938 30.0606 27.1602 30.0606C26.8711 29.9161 26.4375 29.9161 26.0039 29.7716C25.7148 29.7716 25.2812 29.627 24.8477 29.627C24.4141 29.627 24.125 29.4825 23.6914 29.338C23.2578 29.338 22.9688 29.1935 22.5352 29.1935C22.1016 29.1935 21.8125 29.049 21.3789 28.9044C20.9453 28.9044 20.6562 28.9044 20.2227 28.7599C19.7891 28.7599 19.5 28.4709 19.0664 28.4709C19.0664 28.6154 19.0664 28.9044 19.0664 29.049C18.9219 29.4825 18.7773 29.7716 18.6328 30.2051C18.4883 30.6387 18.3438 30.9277 18.1992 31.3613C18.0547 31.7949 17.7656 32.0839 17.4766 32.373C17.1875 32.662 16.8984 32.951 16.3203 32.951C16.3203 32.951 16.3203 32.951 16.1758 32.951C15.8867 32.951 15.4531 32.951 15.1641 32.951C14.875 32.951 14.4414 32.8065 14.1523 32.8065C13.8633 32.662 13.4297 32.662 13.1406 32.5175C12.8516 32.373 12.5625 32.2284 12.2734 32.0839C12.5625 31.7949 12.2734 31.6504 11.9844 31.3613C12.1289 31.7949 12.2734 32.0839 12.418 32.5175C12.5625 32.8065 12.8516 33.0956 13.1406 33.3846C13.4297 33.6737 13.7188 33.9627 14.0078 34.2517C14.2969 34.5408 14.5859 34.6853 15.0195 34.9744C15.3086 35.1189 15.5977 35.4079 16.0312 35.5524C16.3203 35.697 16.7539 35.8415 17.1875 35.986C17.4766 36.1305 17.7656 36.2751 18.1992 36.4196C18.4883 36.5641 18.9219 36.5641 19.3555 36.7086C19.6445 36.8531 20.0781 36.8531 20.3672 36.9977C20.6562 37.1422 21.0898 37.1422 21.3789 37.2867C21.8125 37.4312 22.1016 37.4312 22.3906 37.5758C22.8242 37.7203 23.1133 37.7203 23.5469 37.7203C23.8359 38.0093 24.125 38.0093 24.5586 38.1538ZM12.5625 28.3263C12.2734 28.6154 12.1289 28.9044 12.1289 29.338C11.9844 29.7716 11.9844 30.2051 12.2734 30.6387C12.5625 30.9277 12.8516 31.0723 13.2852 31.3613C13.7188 31.5058 14.0078 31.7949 14.4414 31.7949C14.875 31.9394 15.3086 31.9394 15.7422 32.0839C16.1758 32.2284 16.6094 32.0839 17.043 32.2284C17.4766 32.2284 17.7656 31.9394 18.0547 31.5058C18.1992 31.2168 18.3438 30.7832 18.4883 30.2051C18.6328 29.7716 18.7773 29.338 18.9219 28.9044C18.9219 28.7599 18.9219 28.7599 19.0664 28.6154C18.6328 28.6154 18.3438 28.4709 17.9102 28.3263C17.4766 28.3263 17.043 28.3263 16.7539 28.1818C16.3203 28.1818 15.8867 27.8928 15.5977 27.8928C15.0195 27.7483 14.5859 27.8928 14.4414 27.8928C14.1523 27.8928 13.8633 27.7483 13.5742 27.8928C12.9961 27.8928 12.8516 28.0373 12.5625 28.3263ZM1.14453 33.8182C1.28906 33.8182 1.28906 34.2517 1.43359 34.8298C1.57812 35.1189 1.72266 35.4079 1.86719 35.8415C2.01172 36.1305 1.86719 36.5641 2.01172 36.8531C2.15625 37.1422 2.30078 37.5758 2.44531 37.8648C2.44531 38.2984 2.58984 38.5874 2.73438 39.021C2.87891 39.4545 3.02344 39.7436 3.16797 40.1772C3.3125 40.6107 3.60156 40.8998 3.74609 41.3333C3.89062 41.6224 4.17969 41.9114 4.32422 42.345C4.61328 42.7786 4.90234 43.0676 5.04688 43.3566C5.33594 43.6457 5.48047 44.0793 5.76953 44.3683C6.05859 44.6573 6.49219 44.8019 6.92578 44.9464C7.35937 45.0909 7.79297 45.2354 8.22656 45.38C8.66016 45.38 9.09375 45.2354 9.52734 45.0909C9.96094 44.9464 10.3945 44.9464 10.8281 44.6573C11.2617 44.3683 11.5508 44.2238 11.8398 43.9347C12.2734 43.5012 12.5625 43.0676 12.5625 42.9231C12.5625 42.7786 12.1289 42.345 11.8398 41.7669C11.6953 41.4779 11.4062 41.0443 11.2617 40.6107C11.1172 40.3217 10.8281 40.0326 10.6836 39.5991C10.5391 39.31 10.3945 38.8765 10.1055 38.5874C9.96094 38.2984 9.67188 38.0093 9.52734 37.5758C9.38281 37.2867 9.23828 36.8531 9.09375 36.5641C8.94922 36.2751 8.80469 35.8415 8.66016 35.5524C8.51562 35.2634 8.37109 34.9744 8.22656 34.6853C8.08203 34.3963 7.9375 34.1072 7.79297 33.6737C7.64844 33.3846 7.64844 32.951 7.50391 32.5175C7.35938 32.2284 7.35938 31.7949 7.21484 31.3613C7.07031 30.9277 7.07031 30.6387 7.07031 30.2051C6.92578 29.7716 6.92578 29.4825 6.78125 29.049C6.78125 28.7599 6.78125 28.4709 6.63672 28.0373C6.49219 27.6037 6.34766 27.1702 6.34766 27.0256C6.34766 27.0256 6.34766 27.0256 6.20312 27.0256C6.05859 27.0256 5.625 27.0256 5.04688 27.1702C4.75781 27.3147 4.46875 27.4592 4.03516 27.6037C3.74609 27.7483 3.45703 28.0373 3.02344 28.1818C2.58984 28.3263 2.30078 28.6154 2.01172 28.9044C1.72266 29.1935 1.43359 29.627 1.28906 29.9161C1.14453 30.3497 1.14453 30.7832 1 31.2168C1 31.6504 0.855469 32.0839 0.855469 32.5175C1 32.951 1 33.3846 1.14453 33.8182ZM11.4062 3.46853C11.4062 3.75758 11.5508 4.04662 11.5508 4.62471C11.5508 4.91375 11.5508 5.34732 11.5508 5.78089C11.5508 6.06993 11.6953 6.5035 11.8398 6.93706C11.8398 7.37063 11.8398 7.65967 11.8398 8.09324C11.8398 8.52681 11.9844 8.81585 11.9844 9.24942C11.9844 9.68298 12.1289 9.97203 12.2734 10.4056C12.2734 10.8392 12.418 11.1282 12.418 11.5618C12.5625 11.8508 12.5625 12.2844 12.707 12.7179C12.707 13.1515 12.8516 13.4406 12.8516 13.8741C12.8516 14.3077 12.9961 14.5967 13.1406 15.0303C13.1406 15.4639 13.1406 15.7529 13.2852 16.1865C13.2852 16.62 13.5742 16.9091 13.5742 17.3427C13.5742 17.7762 13.5742 18.2098 13.5742 18.4988C13.7188 18.7879 13.8633 19.0769 14.0078 19.5105C14.0078 19.9441 14.0078 20.2331 14.0078 20.6667C14.1523 21.1002 14.1523 21.5338 14.2969 21.8228C14.4414 22.5455 14.5859 22.979 14.5859 22.979H14.7305C14.875 23.4126 14.7305 23.4126 14.875 23.7016C15.0195 24.2797 14.875 24.2797 15.0195 24.8578C15.1641 25.4359 15.1641 25.4359 15.1641 26.014C15.3086 26.5921 15.1641 26.5921 15.3086 27.1702C15.5977 27.1702 16.0312 27.1702 16.4648 27.3147C16.7539 27.3147 17.1875 27.4592 17.4766 27.4592C17.7656 27.4592 18.1992 27.6037 18.4883 27.6037C18.7773 27.6037 19.2109 27.7483 19.5 27.7483C19.9336 27.7483 20.2227 27.7483 20.6563 27.8928C21.0898 27.8928 21.3789 28.0373 21.8125 28.0373C22.2461 28.0373 22.5352 28.1818 22.9688 28.3263C23.4023 28.3263 23.6914 28.4709 24.125 28.4709C24.5586 28.4709 24.8477 28.6154 25.2812 28.6154C25.7148 28.7599 26.0039 28.7599 26.4375 28.9044C26.8711 29.049 27.1602 29.049 27.5938 29.1935C28.0273 29.338 28.4609 29.338 28.75 29.338C29.1836 29.4825 29.4727 29.627 29.9062 29.627C30.3398 29.7716 30.7734 29.7716 31.0625 29.7716C31.6406 29.9161 31.9297 30.2051 32.0742 30.2051C32.0742 30.2051 32.2188 30.2051 32.3633 30.3496C32.3633 30.0606 32.5078 29.627 32.5078 29.1935C32.6523 28.9044 32.6523 28.4709 32.7969 28.0373C32.9414 27.7483 32.7969 27.3147 32.9414 26.8811C33.0859 26.5921 33.2305 26.1585 33.2305 25.7249C33.375 25.2914 33.5195 25.0023 33.5195 24.5688C33.6641 24.1352 33.6641 23.8462 33.6641 23.4126C33.8086 22.979 33.8086 22.69 33.9531 22.2564C34.0977 21.8228 34.0977 21.5338 34.0977 21.1002C34.2422 20.6667 34.3867 20.3776 34.3867 19.9441C34.5312 19.5105 34.5312 19.2214 34.5312 18.7879C34.6758 18.3543 34.6758 18.0653 34.8203 17.6317C34.9648 17.1981 34.9648 16.9091 35.1094 16.4755C35.2539 16.042 35.2539 15.7529 35.2539 15.3193C35.3984 14.8858 35.3984 14.5967 35.543 14.1632C35.6875 13.7296 35.832 13.4406 35.832 13.007C35.9766 12.5734 35.832 12.2844 35.9766 11.8508C36.1211 11.4172 36.1211 11.1282 36.2656 10.6946C36.4102 10.2611 36.5547 9.97203 36.5547 9.53846C36.9883 10.1165 36.9883 9.68298 37.1328 9.39394C37.2773 8.96037 37.2773 8.67133 37.4219 8.23776C37.5664 7.8042 37.5664 7.51515 37.5664 7.08158C37.7109 6.64802 37.5664 6.21445 37.5664 5.92541C37.7109 5.34732 37.8555 5.05827 37.8555 4.76923C37.8555 4.33566 37.8555 4.04662 37.8555 3.61305C37.8555 3.17949 37.7109 2.89044 37.5664 2.45688C37.4219 2.02331 37.2773 1.73427 37.1328 1.44522C36.9883 1.15618 36.6992 0.722611 36.4102 0.578089C36.1211 0.289044 35.6875 0.144522 35.3984 0.144522C34.9648 0 34.6758 0.144522 34.2422 0.144522C33.8086 0.289044 33.5195 0.433566 33.2305 0.578089C32.9414 0.722611 32.5078 1.01165 32.2188 1.3007C31.9297 1.58974 31.6406 2.02331 31.6406 2.31235C31.6406 2.45688 31.4961 2.89044 31.3516 3.32401C31.3516 3.61305 31.207 3.9021 31.0625 4.33566C30.918 4.62471 30.7734 5.05828 30.7734 5.34732C30.6289 5.63636 30.6289 6.06993 30.6289 6.35897C30.4844 6.64802 30.4844 7.08158 30.3398 7.37063C30.1953 7.8042 29.9062 8.23776 29.9062 8.52681C29.7617 8.81585 29.6172 9.24942 29.6172 9.53846C29.4727 9.82751 29.4727 10.2611 29.3281 10.5501C29.1836 10.8392 29.1836 11.2727 29.0391 11.5618C28.8945 11.9953 28.75 12.2844 28.75 12.7179C28.6055 13.1515 28.6055 13.4406 28.6055 13.8741C28.4609 14.3077 28.3164 14.5967 28.1719 15.0303C28.0273 15.4639 28.0273 15.7529 27.8828 16.1865C27.7383 16.62 27.7383 16.9091 27.5938 17.3427C27.4492 17.7762 27.3047 18.0653 27.1602 18.4988C27.0156 18.7879 27.0156 19.2214 27.0156 19.5105C26.8711 19.9441 26.7266 20.2331 26.7266 20.6667C26.582 21.1002 26.582 21.3893 26.4375 21.8228C26.293 22.2564 26.1484 22.5455 26.0039 22.979C25.8594 23.4126 25.8594 23.8462 25.7148 24.1352C25.5703 24.5688 25.4258 25.0023 25.4258 25.2914C25.2812 25.8695 24.9922 26.1585 24.9922 26.303C24.8477 26.4476 24.9922 26.4476 24.8477 26.4476C24.7031 26.4476 24.7031 26.4476 24.5586 26.4476C24.4141 26.4476 24.2695 26.303 23.9805 25.4359C23.8359 25.1469 23.8359 24.8578 23.6914 24.4242C23.5469 24.1352 23.4023 23.7016 23.4023 23.4126C23.2578 23.1235 23.1133 22.69 22.9688 22.4009C22.8242 22.1119 22.8242 21.6783 22.6797 21.2448C22.5352 20.9557 22.5352 20.5221 22.3906 20.0886C22.2461 19.7995 22.2461 19.366 22.1016 18.9324C21.957 18.6434 21.957 18.2098 21.8125 17.7762C21.668 17.4872 21.5234 17.0536 21.3789 16.7646C21.2344 16.4755 21.2344 16.042 21.0898 15.6084C20.9453 15.3193 20.9453 14.8858 20.8008 14.4522C20.6562 14.1632 20.6562 13.7296 20.5117 13.296C20.3672 13.007 20.3672 12.5734 20.3672 12.1399C20.2227 11.8508 20.0781 11.4172 20.0781 10.9837C19.9336 10.8392 19.7891 10.5501 19.6445 10.1166C19.5 9.82751 19.6445 9.39394 19.5 8.96037C19.3555 8.67133 19.2109 8.23776 19.0664 7.94872C18.9219 7.51515 18.9219 7.22611 18.9219 6.93706C18.7773 6.5035 18.6328 6.21445 18.6328 5.92541C18.4883 5.49184 18.4883 5.2028 18.4883 4.91375C18.3438 4.33566 18.1992 4.04662 18.1992 3.61305C18.0547 3.17949 17.9102 2.89044 17.9102 2.6014C17.7656 2.16783 17.7656 1.87879 17.6211 1.58974C17.4766 1.3007 17.1875 1.01166 16.8984 0.867133C16.6094 0.578089 16.3203 0.433566 16.0312 0.289044C15.7422 0.144522 15.3086 0 15.0195 0C14.5859 0 14.2969 0 14.0078 0C13.7188 0 13.2852 0.289044 12.9961 0.578089C12.5625 0.722611 12.418 1.01165 12.1289 1.44522C11.9844 1.73427 11.6953 2.02331 11.5508 2.31235C11.4062 2.74592 11.4062 3.03497 11.4062 3.46853Z" fill="#3286DB"/>
</svg>
