<svg width="72" height="72" viewBox="0 0 72 72" fill="none" xmlns="http://www.w3.org/2000/svg">
<path d="M36 6.94658L40.5223 0L43.1702 7.8559L49.2843 2.25093L49.8942 10.5242L57.1983 6.61863L55.7554 14.7876L63.7884 12.8199L60.3669 20.3627L68.638 20.4671L63.4463 26.9217L71.4347 29.0832L64.8 34.0472L72 38.1317L64.3388 41.277L70.3041 47.0311L62.1074 48.164L66.4512 55.2298L58.2397 54.2907L60.6942 62.2062L52.9587 59.2547L53.3752 67.528L46.6215 62.7429L44.9702 70.8671L39.6149 64.5466L36 72L32.3851 64.5466L27.0298 70.8671L25.3785 62.7429L18.6248 67.528L19.0413 59.2547L11.3058 62.2062L13.7603 54.2907L5.54876 55.2298L9.89256 48.164L1.69587 47.0311L7.66116 41.277L0 38.1317L7.2 34.0472L0.565289 29.0832L8.55372 26.9217L3.36198 20.4671L11.6331 20.3627L8.21157 12.8199L16.2446 14.7876L14.8017 6.61863L22.0909 10.5242L22.7157 2.25093L28.8298 7.8559L31.4777 0L36 6.94658Z" fill="#3286DB"/>
</svg>
