<svg width="123" height="95" viewBox="0 0 123 95" fill="none" xmlns="http://www.w3.org/2000/svg">
<mask id="mask0_28_30590" style="mask-type:luminance" maskUnits="userSpaceOnUse" x="0" y="0" width="123" height="95">
<path d="M123 0H0V95H123V0Z" fill="white"/>
</mask>
<g mask="url(#mask0_28_30590)">
<path d="M25.6113 14.3359H234.037" stroke="#FEFEFE" stroke-miterlimit="10" stroke-linecap="round" stroke-linejoin="round"/>
<path d="M25.6113 16.2754H234.037" stroke="#FEFEFE" stroke-miterlimit="10" stroke-linecap="round" stroke-linejoin="round"/>
<path d="M25.6113 31.8027H230.45" stroke="#FEFEFE" stroke-miterlimit="10" stroke-linecap="round" stroke-linejoin="round"/>
<path d="M25.6113 33.9102H230.45" stroke="#FEFEFE" stroke-miterlimit="10" stroke-linecap="round" stroke-linejoin="round"/>
<path d="M25.6113 49.5059H233.335" stroke="#FEFEFE" stroke-miterlimit="10" stroke-linecap="round" stroke-linejoin="round"/>
<path d="M25.6113 51.6133H233.335" stroke="#FEFEFE" stroke-miterlimit="10" stroke-linecap="round" stroke-linejoin="round"/>
<path d="M25.6113 65.3125H233.018" stroke="#FEFEFE" stroke-miterlimit="10" stroke-linecap="round" stroke-linejoin="round"/>
<path d="M25.6113 67.4199H233.018" stroke="#FEFEFE" stroke-miterlimit="10" stroke-linecap="round" stroke-linejoin="round"/>
<path d="M25.6113 82.9121H233.335" stroke="#FEFEFE" stroke-miterlimit="10" stroke-linecap="round" stroke-linejoin="round"/>
<path d="M25.6113 86.4238H233.335" stroke="#FEFEFE" stroke-miterlimit="10" stroke-linecap="round" stroke-linejoin="round"/>
<path d="M33.2788 77.0098H30.6058C30.1135 77.0098 29.6914 77.4313 29.6914 77.9229V82.8408H34.1934V77.9229C34.1934 77.4313 33.8065 77.0098 33.2788 77.0098Z" stroke="#FEFEFE" stroke-miterlimit="10" stroke-linecap="round" stroke-linejoin="round"/>
<path d="M33.5248 76.4473H30.3945V77.0443H33.5248V76.4473Z" stroke="#FEFEFE" stroke-miterlimit="10" stroke-linecap="round" stroke-linejoin="round"/>
<path d="M34.0173 75.7461H29.8672V76.4486H34.0173V75.7461Z" stroke="#FEFEFE" stroke-miterlimit="10" stroke-linecap="round" stroke-linejoin="round"/>
<path d="M33.771 78.0293H30.1484V81.8934H33.771V78.0293Z" stroke="#FEFEFE" stroke-miterlimit="10" stroke-linecap="round" stroke-linejoin="round"/>
<path d="M38.4489 77.0098H35.7759C35.2834 77.0098 34.8613 77.4313 34.8613 77.9229V82.8408H39.3633V77.9229C39.3633 77.4313 38.9412 77.0098 38.4489 77.0098Z" stroke="#FEFEFE" stroke-miterlimit="10" stroke-linecap="round" stroke-linejoin="round"/>
<path d="M38.6947 76.4473H35.5645V77.0443H38.6947V76.4473Z" stroke="#FEFEFE" stroke-miterlimit="10" stroke-linecap="round" stroke-linejoin="round"/>
<path d="M39.1874 75.7461H35.0371V76.4486H39.1874V75.7461Z" stroke="#FEFEFE" stroke-miterlimit="10" stroke-linecap="round" stroke-linejoin="round"/>
<path d="M38.9411 78.0293H35.3184V81.8934H38.9411V78.0293Z" stroke="#FEFEFE" stroke-miterlimit="10" stroke-linecap="round" stroke-linejoin="round"/>
<path d="M43.6188 77.0098H40.9457C40.4533 77.0098 40.0312 77.4313 40.0312 77.9229V82.8408H44.5332V77.9229C44.5332 77.4313 44.1111 77.0098 43.6188 77.0098Z" stroke="#FEFEFE" stroke-miterlimit="10" stroke-linecap="round" stroke-linejoin="round"/>
<path d="M43.8305 76.4473H40.7002V77.0443H43.8305V76.4473Z" stroke="#FEFEFE" stroke-miterlimit="10" stroke-linecap="round" stroke-linejoin="round"/>
<path d="M44.3582 75.7461H40.208V76.4486H44.3582V75.7461Z" stroke="#FEFEFE" stroke-miterlimit="10" stroke-linecap="round" stroke-linejoin="round"/>
<path d="M44.1119 78.0293H40.4893V81.8934H44.1119V78.0293Z" stroke="#FEFEFE" stroke-miterlimit="10" stroke-linecap="round" stroke-linejoin="round"/>
<path d="M48.7895 77.0098H46.1166C45.6241 77.0098 45.2021 77.4313 45.2021 77.9229V82.8408H49.7039V77.9229C49.7039 77.4313 49.282 77.0098 48.7895 77.0098Z" stroke="#FEFEFE" stroke-miterlimit="10" stroke-linecap="round" stroke-linejoin="round"/>
<path d="M49.0004 76.4473H45.8701V77.0443H49.0004V76.4473Z" stroke="#FEFEFE" stroke-miterlimit="10" stroke-linecap="round" stroke-linejoin="round"/>
<path d="M49.5283 75.7461H45.3779V76.4486H49.5283V75.7461Z" stroke="#FEFEFE" stroke-miterlimit="10" stroke-linecap="round" stroke-linejoin="round"/>
<path d="M49.2468 78.0293H45.624V81.8934H49.2468V78.0293Z" stroke="#FEFEFE" stroke-miterlimit="10" stroke-linecap="round" stroke-linejoin="round"/>
<path d="M53.9245 77.0098H51.2513C50.759 77.0098 50.3369 77.4313 50.3369 77.9229V82.8408H54.8389V77.9229C54.8741 77.4313 54.452 77.0098 53.9245 77.0098Z" stroke="#FEFEFE" stroke-miterlimit="10" stroke-linecap="round" stroke-linejoin="round"/>
<path d="M54.1703 76.4473H51.04V77.0443H54.1703V76.4473Z" stroke="#FEFEFE" stroke-miterlimit="10" stroke-linecap="round" stroke-linejoin="round"/>
<path d="M54.6982 75.7461H50.5479V76.4486H54.6982V75.7461Z" stroke="#FEFEFE" stroke-miterlimit="10" stroke-linecap="round" stroke-linejoin="round"/>
<path d="M54.4165 78.0293H50.7939V81.8934H54.4165V78.0293Z" stroke="#FEFEFE" stroke-miterlimit="10" stroke-linecap="round" stroke-linejoin="round"/>
<path d="M59.0942 77.0098H56.4212C55.9289 77.0098 55.5068 77.4313 55.5068 77.9229V82.8408H60.0088V77.9229C60.0088 77.4313 59.6218 77.0098 59.0942 77.0098Z" stroke="#FEFEFE" stroke-miterlimit="10" stroke-linecap="round" stroke-linejoin="round"/>
<path d="M59.3402 76.4473H56.21V77.0443H59.3402V76.4473Z" stroke="#FEFEFE" stroke-miterlimit="10" stroke-linecap="round" stroke-linejoin="round"/>
<path d="M59.8328 75.7461H55.6826V76.4486H59.8328V75.7461Z" stroke="#FEFEFE" stroke-miterlimit="10" stroke-linecap="round" stroke-linejoin="round"/>
<path d="M59.5874 78.0293H55.9648V81.8934H59.5874V78.0293Z" stroke="#FEFEFE" stroke-miterlimit="10" stroke-linecap="round" stroke-linejoin="round"/>
<path d="M64.2653 77.0098H61.5923C61.0998 77.0098 60.6777 77.4313 60.6777 77.9229V82.8408H65.1797V77.9229C65.1797 77.4313 64.7576 77.0098 64.2653 77.0098Z" stroke="#FEFEFE" stroke-miterlimit="10" stroke-linecap="round" stroke-linejoin="round"/>
<path d="M64.476 76.4473H61.3457V77.0443H64.476V76.4473Z" stroke="#FEFEFE" stroke-miterlimit="10" stroke-linecap="round" stroke-linejoin="round"/>
<path d="M65.0038 75.7461H60.8535V76.4486H65.0038V75.7461Z" stroke="#FEFEFE" stroke-miterlimit="10" stroke-linecap="round" stroke-linejoin="round"/>
<path d="M64.7574 78.0293H61.1348V81.8934H64.7574V78.0293Z" stroke="#FEFEFE" stroke-miterlimit="10" stroke-linecap="round" stroke-linejoin="round"/>
<path d="M69.435 77.0098H66.7621C66.2697 77.0098 65.8477 77.4313 65.8477 77.9229V82.8408H70.3496V77.9229C70.3496 77.4313 69.9276 77.0098 69.435 77.0098Z" stroke="#FEFEFE" stroke-miterlimit="10" stroke-linecap="round" stroke-linejoin="round"/>
<path d="M69.6459 76.4473H66.5156V77.0443H69.6459V76.4473Z" stroke="#FEFEFE" stroke-miterlimit="10" stroke-linecap="round" stroke-linejoin="round"/>
<path d="M70.1736 75.7461H66.0234V76.4486H70.1736V75.7461Z" stroke="#FEFEFE" stroke-miterlimit="10" stroke-linecap="round" stroke-linejoin="round"/>
<path d="M69.8921 78.0293H66.2695V81.8934H69.8921V78.0293Z" stroke="#FEFEFE" stroke-miterlimit="10" stroke-linecap="round" stroke-linejoin="round"/>
<path d="M74.5699 77.0098H71.9322C71.4396 77.0098 71.0176 77.4313 71.0176 77.9229V82.8408H75.5195V77.9229C75.5195 77.4313 75.0975 77.0098 74.5699 77.0098Z" stroke="#FEFEFE" stroke-miterlimit="10" stroke-linecap="round" stroke-linejoin="round"/>
<path d="M74.8158 76.4473H71.6855V77.0443H74.8158V76.4473Z" stroke="#FEFEFE" stroke-miterlimit="10" stroke-linecap="round" stroke-linejoin="round"/>
<path d="M75.3437 75.7461H71.1934V76.4486H75.3437V75.7461Z" stroke="#FEFEFE" stroke-miterlimit="10" stroke-linecap="round" stroke-linejoin="round"/>
<path d="M75.0622 78.0293H71.4395V81.8934H75.0622V78.0293Z" stroke="#FEFEFE" stroke-miterlimit="10" stroke-linecap="round" stroke-linejoin="round"/>
<path d="M79.7399 77.0098H77.0668C76.5744 77.0098 76.1523 77.4313 76.1523 77.9229V82.8408H80.6543V77.9229C80.6895 77.4313 80.2675 77.0098 79.7399 77.0098Z" stroke="#FEFEFE" stroke-miterlimit="10" stroke-linecap="round" stroke-linejoin="round"/>
<path d="M79.9867 76.4473H76.8564V77.0443H79.9867V76.4473Z" stroke="#FEFEFE" stroke-miterlimit="10" stroke-linecap="round" stroke-linejoin="round"/>
<path d="M80.5134 75.7461H76.3633V76.4486H80.5134V75.7461Z" stroke="#FEFEFE" stroke-miterlimit="10" stroke-linecap="round" stroke-linejoin="round"/>
<path d="M80.233 78.0293H76.6104V81.8934H80.233V78.0293Z" stroke="#FEFEFE" stroke-miterlimit="10" stroke-linecap="round" stroke-linejoin="round"/>
<path d="M84.9108 77.0098H82.2378C81.7453 77.0098 81.3232 77.4313 81.3232 77.9229V82.8408H85.8252V77.9229C85.8252 77.4313 85.4383 77.0098 84.9108 77.0098Z" stroke="#FEFEFE" stroke-miterlimit="10" stroke-linecap="round" stroke-linejoin="round"/>
<path d="M85.1566 76.4473H82.0264V77.0443H85.1566V76.4473Z" stroke="#FEFEFE" stroke-miterlimit="10" stroke-linecap="round" stroke-linejoin="round"/>
<path d="M85.6493 75.7461H81.499V76.4486H85.6493V75.7461Z" stroke="#FEFEFE" stroke-miterlimit="10" stroke-linecap="round" stroke-linejoin="round"/>
<path d="M85.403 78.0293H81.7803V81.8934H85.403V78.0293Z" stroke="#FEFEFE" stroke-miterlimit="10" stroke-linecap="round" stroke-linejoin="round"/>
<path d="M90.0807 77.0098H87.4076C86.9152 77.0098 86.4932 77.4313 86.4932 77.9229V82.8408H90.9951V77.9229C90.9951 77.4313 90.5731 77.0098 90.0807 77.0098Z" stroke="#FEFEFE" stroke-miterlimit="10" stroke-linecap="round" stroke-linejoin="round"/>
<path d="M90.2914 76.4473H87.1611V77.0443H90.2914V76.4473Z" stroke="#FEFEFE" stroke-miterlimit="10" stroke-linecap="round" stroke-linejoin="round"/>
<path d="M90.8191 75.7461H86.6689V76.4486H90.8191V75.7461Z" stroke="#FEFEFE" stroke-miterlimit="10" stroke-linecap="round" stroke-linejoin="round"/>
<path d="M90.5728 78.0293H86.9502V81.8934H90.5728V78.0293Z" stroke="#FEFEFE" stroke-miterlimit="10" stroke-linecap="round" stroke-linejoin="round"/>
<path d="M95.2505 77.0098H92.5775C92.085 77.0098 91.6631 77.4313 91.6631 77.9229V82.8408H96.1649V77.9229C96.1649 77.4313 95.743 77.0098 95.2505 77.0098Z" stroke="#FEFEFE" stroke-miterlimit="10" stroke-linecap="round" stroke-linejoin="round"/>
<path d="M95.4613 76.4473H92.3311V77.0443H95.4613V76.4473Z" stroke="#FEFEFE" stroke-miterlimit="10" stroke-linecap="round" stroke-linejoin="round"/>
<path d="M95.989 75.7461H91.8389V76.4486H95.989V75.7461Z" stroke="#FEFEFE" stroke-miterlimit="10" stroke-linecap="round" stroke-linejoin="round"/>
<path d="M95.7076 78.0293H92.085V81.8934H95.7076V78.0293Z" stroke="#FEFEFE" stroke-miterlimit="10" stroke-linecap="round" stroke-linejoin="round"/>
<path d="M100.385 77.0098H97.7123C97.2199 77.0098 96.7979 77.4313 96.7979 77.9229V82.8408H101.3V77.9229C101.335 77.4313 100.913 77.0098 100.385 77.0098Z" stroke="#FEFEFE" stroke-miterlimit="10" stroke-linecap="round" stroke-linejoin="round"/>
<path d="M100.632 76.4473H97.502V77.0443H100.632V76.4473Z" stroke="#FEFEFE" stroke-miterlimit="10" stroke-linecap="round" stroke-linejoin="round"/>
<path d="M101.16 75.7461H97.0098V76.4486H101.16V75.7461Z" stroke="#FEFEFE" stroke-miterlimit="10" stroke-linecap="round" stroke-linejoin="round"/>
<path d="M100.878 78.0293H97.2559V81.8934H100.878V78.0293Z" stroke="#FEFEFE" stroke-miterlimit="10" stroke-linecap="round" stroke-linejoin="round"/>
<path d="M105.556 77.0098H102.883C102.391 77.0098 101.969 77.4313 101.969 77.9229V82.8408H106.471V77.9229C106.471 77.4313 106.084 77.0098 105.556 77.0098Z" stroke="#FEFEFE" stroke-miterlimit="10" stroke-linecap="round" stroke-linejoin="round"/>
<path d="M105.802 76.4473H102.672V77.0443H105.802V76.4473Z" stroke="#FEFEFE" stroke-miterlimit="10" stroke-linecap="round" stroke-linejoin="round"/>
<path d="M106.33 75.7461H102.18V76.4486H106.33V75.7461Z" stroke="#FEFEFE" stroke-miterlimit="10" stroke-linecap="round" stroke-linejoin="round"/>
<path d="M106.048 78.0293H102.426V81.8934H106.048V78.0293Z" stroke="#FEFEFE" stroke-miterlimit="10" stroke-linecap="round" stroke-linejoin="round"/>
<path d="M110.726 77.0098H108.053C107.561 77.0098 107.139 77.4313 107.139 77.9229V82.8408H111.641V77.9229C111.641 77.4313 111.254 77.0098 110.726 77.0098Z" stroke="#FEFEFE" stroke-miterlimit="10" stroke-linecap="round" stroke-linejoin="round"/>
<path d="M110.972 76.4473H107.842V77.0443H110.972V76.4473Z" stroke="#FEFEFE" stroke-miterlimit="10" stroke-linecap="round" stroke-linejoin="round"/>
<path d="M111.465 75.7461H107.314V76.4486H111.465V75.7461Z" stroke="#FEFEFE" stroke-miterlimit="10" stroke-linecap="round" stroke-linejoin="round"/>
<path d="M111.218 78.0293H107.596V81.8934H111.218V78.0293Z" stroke="#FEFEFE" stroke-miterlimit="10" stroke-linecap="round" stroke-linejoin="round"/>
<path d="M115.896 77.0098H113.223C112.731 77.0098 112.309 77.4313 112.309 77.9229V82.8408H116.811V77.9229C116.811 77.4313 116.388 77.0098 115.896 77.0098Z" stroke="#FEFEFE" stroke-miterlimit="10" stroke-linecap="round" stroke-linejoin="round"/>
<path d="M116.108 76.4473H112.978V77.0443H116.108V76.4473Z" stroke="#FEFEFE" stroke-miterlimit="10" stroke-linecap="round" stroke-linejoin="round"/>
<path d="M116.636 75.7461H112.485V76.4486H116.636V75.7461Z" stroke="#FEFEFE" stroke-miterlimit="10" stroke-linecap="round" stroke-linejoin="round"/>
<path d="M116.389 78.0293H112.767V81.8934H116.389V78.0293Z" stroke="#FEFEFE" stroke-miterlimit="10" stroke-linecap="round" stroke-linejoin="round"/>
<path d="M121.067 77.0098H118.394C117.902 77.0098 117.479 77.4313 117.479 77.9229V82.8408H121.981V77.9229C121.981 77.4313 121.559 77.0098 121.067 77.0098Z" stroke="#FEFEFE" stroke-miterlimit="10" stroke-linecap="round" stroke-linejoin="round"/>
<path d="M121.278 76.4473H118.147V77.0443H121.278V76.4473Z" stroke="#FEFEFE" stroke-miterlimit="10" stroke-linecap="round" stroke-linejoin="round"/>
<path d="M121.806 75.7461H117.655V76.4486H121.806V75.7461Z" stroke="#FEFEFE" stroke-miterlimit="10" stroke-linecap="round" stroke-linejoin="round"/>
<path d="M121.524 78.0293H117.901V81.8934H121.524V78.0293Z" stroke="#FEFEFE" stroke-miterlimit="10" stroke-linecap="round" stroke-linejoin="round"/>
<path d="M35.5299 69.8086H32.892C32.3996 69.8086 31.9775 70.23 31.9775 70.7218V75.6396H36.4795V70.7218C36.4795 70.23 36.0574 69.8086 35.5299 69.8086Z" stroke="#FEFEFE" stroke-miterlimit="10" stroke-linecap="round" stroke-linejoin="round"/>
<path d="M35.7758 69.248H32.6455V69.8451H35.7758V69.248Z" stroke="#FEFEFE" stroke-miterlimit="10" stroke-linecap="round" stroke-linejoin="round"/>
<path d="M36.3036 68.5449H32.1533V69.2474H36.3036V68.5449Z" stroke="#FEFEFE" stroke-miterlimit="10" stroke-linecap="round" stroke-linejoin="round"/>
<path d="M36.022 70.8281H32.3994V74.6922H36.022V70.8281Z" stroke="#FEFEFE" stroke-miterlimit="10" stroke-linecap="round" stroke-linejoin="round"/>
<path d="M40.6997 69.8086H38.0267C37.5344 69.8086 37.1123 70.23 37.1123 70.7218V75.6396H41.6143V70.7218C41.6493 70.23 41.2274 69.8086 40.6997 69.8086Z" stroke="#FEFEFE" stroke-miterlimit="10" stroke-linecap="round" stroke-linejoin="round"/>
<path d="M40.9457 69.248H37.8154V69.8451H40.9457V69.248Z" stroke="#FEFEFE" stroke-miterlimit="10" stroke-linecap="round" stroke-linejoin="round"/>
<path d="M41.4734 68.5449H37.3232V69.2474H41.4734V68.5449Z" stroke="#FEFEFE" stroke-miterlimit="10" stroke-linecap="round" stroke-linejoin="round"/>
<path d="M41.1919 70.8281H37.5693V74.6922H41.1919V70.8281Z" stroke="#FEFEFE" stroke-miterlimit="10" stroke-linecap="round" stroke-linejoin="round"/>
<path d="M45.8698 69.8086H43.1968C42.7043 69.8086 42.2822 70.23 42.2822 70.7218V75.6396H46.7842V70.7218C46.7842 70.23 46.3973 69.8086 45.8698 69.8086Z" stroke="#FEFEFE" stroke-miterlimit="10" stroke-linecap="round" stroke-linejoin="round"/>
<path d="M46.1166 69.248H42.9863V69.8451H46.1166V69.248Z" stroke="#FEFEFE" stroke-miterlimit="10" stroke-linecap="round" stroke-linejoin="round"/>
<path d="M46.6083 68.5449H42.458V69.2474H46.6083V68.5449Z" stroke="#FEFEFE" stroke-miterlimit="10" stroke-linecap="round" stroke-linejoin="round"/>
<path d="M46.363 70.8281H42.7402V74.6922H46.363V70.8281Z" stroke="#FEFEFE" stroke-miterlimit="10" stroke-linecap="round" stroke-linejoin="round"/>
<path d="M51.0407 69.8086H48.3675C47.8752 69.8086 47.4531 70.23 47.4531 70.7218V75.6396H51.9551V70.7218C51.9551 70.23 51.533 69.8086 51.0407 69.8086Z" stroke="#FEFEFE" stroke-miterlimit="10" stroke-linecap="round" stroke-linejoin="round"/>
<path d="M51.2514 69.248H48.1211V69.8451H51.2514V69.248Z" stroke="#FEFEFE" stroke-miterlimit="10" stroke-linecap="round" stroke-linejoin="round"/>
<path d="M51.7791 68.5449H47.6289V69.2474H51.7791V68.5449Z" stroke="#FEFEFE" stroke-miterlimit="10" stroke-linecap="round" stroke-linejoin="round"/>
<path d="M51.5328 70.8281H47.9102V74.6922H51.5328V70.8281Z" stroke="#FEFEFE" stroke-miterlimit="10" stroke-linecap="round" stroke-linejoin="round"/>
<path d="M56.2106 69.8086H53.5376C53.0451 69.8086 52.623 70.23 52.623 70.7218V75.6396H57.125V70.7218C57.125 70.23 56.7029 69.8086 56.2106 69.8086Z" stroke="#FEFEFE" stroke-miterlimit="10" stroke-linecap="round" stroke-linejoin="round"/>
<path d="M56.4213 69.248H53.291V69.8451H56.4213V69.248Z" stroke="#FEFEFE" stroke-miterlimit="10" stroke-linecap="round" stroke-linejoin="round"/>
<path d="M56.9492 68.5449H52.7988V69.2474H56.9492V68.5449Z" stroke="#FEFEFE" stroke-miterlimit="10" stroke-linecap="round" stroke-linejoin="round"/>
<path d="M56.6677 70.8281H53.0449V74.6922H56.6677V70.8281Z" stroke="#FEFEFE" stroke-miterlimit="10" stroke-linecap="round" stroke-linejoin="round"/>
<path d="M61.3454 69.8086H58.6722C58.1799 69.8086 57.7578 70.23 57.7578 70.7218V75.6396H62.2598V70.7218C62.295 70.23 61.8729 69.8086 61.3454 69.8086Z" stroke="#FEFEFE" stroke-miterlimit="10" stroke-linecap="round" stroke-linejoin="round"/>
<path d="M61.5912 69.248H58.4609V69.8451H61.5912V69.248Z" stroke="#FEFEFE" stroke-miterlimit="10" stroke-linecap="round" stroke-linejoin="round"/>
<path d="M62.1189 68.5449H57.9688V69.2474H62.1189V68.5449Z" stroke="#FEFEFE" stroke-miterlimit="10" stroke-linecap="round" stroke-linejoin="round"/>
<path d="M61.8374 70.8281H58.2148V74.6922H61.8374V70.8281Z" stroke="#FEFEFE" stroke-miterlimit="10" stroke-linecap="round" stroke-linejoin="round"/>
<path d="M66.5161 69.8086H63.8431C63.3506 69.8086 62.9287 70.23 62.9287 70.7218V75.6396H67.4305V70.7218C67.4657 70.23 67.0436 69.8086 66.5161 69.8086Z" stroke="#FEFEFE" stroke-miterlimit="10" stroke-linecap="round" stroke-linejoin="round"/>
<path d="M66.7621 69.248H63.6318V69.8451H66.7621V69.248Z" stroke="#FEFEFE" stroke-miterlimit="10" stroke-linecap="round" stroke-linejoin="round"/>
<path d="M67.2898 68.5449H63.1396V69.2474H67.2898V68.5449Z" stroke="#FEFEFE" stroke-miterlimit="10" stroke-linecap="round" stroke-linejoin="round"/>
<path d="M67.0085 70.8281H63.3857V74.6922H67.0085V70.8281Z" stroke="#FEFEFE" stroke-miterlimit="10" stroke-linecap="round" stroke-linejoin="round"/>
<path d="M71.6862 69.8086H69.013C68.5207 69.8086 68.0986 70.23 68.0986 70.7218V75.6396H72.6006V70.7218C72.6006 70.23 72.2137 69.8086 71.6862 69.8086Z" stroke="#FEFEFE" stroke-miterlimit="10" stroke-linecap="round" stroke-linejoin="round"/>
<path d="M71.932 69.248H68.8018V69.8451H71.932V69.248Z" stroke="#FEFEFE" stroke-miterlimit="10" stroke-linecap="round" stroke-linejoin="round"/>
<path d="M72.4247 68.5449H68.2744V69.2474H72.4247V68.5449Z" stroke="#FEFEFE" stroke-miterlimit="10" stroke-linecap="round" stroke-linejoin="round"/>
<path d="M72.1783 70.8281H68.5557V74.6922H72.1783V70.8281Z" stroke="#FEFEFE" stroke-miterlimit="10" stroke-linecap="round" stroke-linejoin="round"/>
<path d="M76.8559 69.8086H74.183C73.6906 69.8086 73.2686 70.23 73.2686 70.7218V75.6396H77.7705V70.7218C77.7705 70.23 77.3485 69.8086 76.8559 69.8086Z" stroke="#FEFEFE" stroke-miterlimit="10" stroke-linecap="round" stroke-linejoin="round"/>
<path d="M77.0668 69.248H73.9365V69.8451H77.0668V69.248Z" stroke="#FEFEFE" stroke-miterlimit="10" stroke-linecap="round" stroke-linejoin="round"/>
<path d="M77.5945 68.5449H73.4443V69.2474H77.5945V68.5449Z" stroke="#FEFEFE" stroke-miterlimit="10" stroke-linecap="round" stroke-linejoin="round"/>
<path d="M77.3482 70.8281H73.7256V74.6922H77.3482V70.8281Z" stroke="#FEFEFE" stroke-miterlimit="10" stroke-linecap="round" stroke-linejoin="round"/>
<path d="M82.026 69.8086H79.3531C78.8606 69.8086 78.4385 70.23 78.4385 70.7218V75.6396H82.9404V70.7218C82.9404 70.23 82.5184 69.8086 82.026 69.8086Z" stroke="#FEFEFE" stroke-miterlimit="10" stroke-linecap="round" stroke-linejoin="round"/>
<path d="M82.2377 69.248H79.1074V69.8451H82.2377V69.248Z" stroke="#FEFEFE" stroke-miterlimit="10" stroke-linecap="round" stroke-linejoin="round"/>
<path d="M82.7646 68.5449H78.6143V69.2474H82.7646V68.5449Z" stroke="#FEFEFE" stroke-miterlimit="10" stroke-linecap="round" stroke-linejoin="round"/>
<path d="M82.4841 70.8281H78.8613V74.6922H82.4841V70.8281Z" stroke="#FEFEFE" stroke-miterlimit="10" stroke-linecap="round" stroke-linejoin="round"/>
<path d="M87.1616 69.8086H84.4886C83.9963 69.8086 83.5742 70.23 83.5742 70.7218V75.6396H88.1112V70.7218C88.1112 70.23 87.6893 69.8086 87.1616 69.8086Z" stroke="#FEFEFE" stroke-miterlimit="10" stroke-linecap="round" stroke-linejoin="round"/>
<path d="M87.4076 69.248H84.2773V69.8451H87.4076V69.248Z" stroke="#FEFEFE" stroke-miterlimit="10" stroke-linecap="round" stroke-linejoin="round"/>
<path d="M87.9353 68.5449H83.7852V69.2474H87.9353V68.5449Z" stroke="#FEFEFE" stroke-miterlimit="10" stroke-linecap="round" stroke-linejoin="round"/>
<path d="M87.6538 70.8281H84.0312V74.6922H87.6538V70.8281Z" stroke="#FEFEFE" stroke-miterlimit="10" stroke-linecap="round" stroke-linejoin="round"/>
<path d="M92.3317 69.8086H89.6587C89.1662 69.8086 88.7441 70.23 88.7441 70.7218V75.6396H93.2461V70.7218C93.2461 70.23 92.8592 69.8086 92.3317 69.8086Z" stroke="#FEFEFE" stroke-miterlimit="10" stroke-linecap="round" stroke-linejoin="round"/>
<path d="M92.5775 69.248H89.4473V69.8451H92.5775V69.248Z" stroke="#FEFEFE" stroke-miterlimit="10" stroke-linecap="round" stroke-linejoin="round"/>
<path d="M93.0702 68.5449H88.9199V69.2474H93.0702V68.5449Z" stroke="#FEFEFE" stroke-miterlimit="10" stroke-linecap="round" stroke-linejoin="round"/>
<path d="M92.8239 70.8281H89.2012V74.6922H92.8239V70.8281Z" stroke="#FEFEFE" stroke-miterlimit="10" stroke-linecap="round" stroke-linejoin="round"/>
<path d="M97.5016 69.8086H94.8285C94.3361 69.8086 93.9141 70.23 93.9141 70.7218V75.6396H98.416V70.7218C98.416 70.23 98.0292 69.8086 97.5016 69.8086Z" stroke="#FEFEFE" stroke-miterlimit="10" stroke-linecap="round" stroke-linejoin="round"/>
<path d="M97.7484 69.248H94.6182V69.8451H97.7484V69.248Z" stroke="#FEFEFE" stroke-miterlimit="10" stroke-linecap="round" stroke-linejoin="round"/>
<path d="M98.24 68.5449H94.0898V69.2474H98.24V68.5449Z" stroke="#FEFEFE" stroke-miterlimit="10" stroke-linecap="round" stroke-linejoin="round"/>
<path d="M97.9937 70.8281H94.3711V74.6922H97.9937V70.8281Z" stroke="#FEFEFE" stroke-miterlimit="10" stroke-linecap="round" stroke-linejoin="round"/>
<path d="M102.672 69.8086H99.9994C99.5069 69.8086 99.085 70.23 99.085 70.7218V75.6396H103.587V70.7218C103.587 70.23 103.165 69.8086 102.672 69.8086Z" stroke="#FEFEFE" stroke-miterlimit="10" stroke-linecap="round" stroke-linejoin="round"/>
<path d="M102.883 69.248H99.7529V69.8451H102.883V69.248Z" stroke="#FEFEFE" stroke-miterlimit="10" stroke-linecap="round" stroke-linejoin="round"/>
<path d="M103.411 68.5449H99.2607V69.2474H103.411V68.5449Z" stroke="#FEFEFE" stroke-miterlimit="10" stroke-linecap="round" stroke-linejoin="round"/>
<path d="M103.165 70.8281H99.542V74.6922H103.165V70.8281Z" stroke="#FEFEFE" stroke-miterlimit="10" stroke-linecap="round" stroke-linejoin="round"/>
<path d="M107.842 69.8086H105.169C104.677 69.8086 104.255 70.23 104.255 70.7218V75.6396H108.757V70.7218C108.757 70.23 108.335 69.8086 107.842 69.8086Z" stroke="#FEFEFE" stroke-miterlimit="10" stroke-linecap="round" stroke-linejoin="round"/>
<path d="M108.053 69.248H104.923V69.8451H108.053V69.248Z" stroke="#FEFEFE" stroke-miterlimit="10" stroke-linecap="round" stroke-linejoin="round"/>
<path d="M108.581 68.5449H104.431V69.2474H108.581V68.5449Z" stroke="#FEFEFE" stroke-miterlimit="10" stroke-linecap="round" stroke-linejoin="round"/>
<path d="M108.299 70.8281H104.677V74.6922H108.299V70.8281Z" stroke="#FEFEFE" stroke-miterlimit="10" stroke-linecap="round" stroke-linejoin="round"/>
<path d="M112.977 69.8086H110.304C109.812 69.8086 109.39 70.23 109.39 70.7218V75.6396H113.892V70.7218C113.927 70.23 113.505 69.8086 112.977 69.8086Z" stroke="#FEFEFE" stroke-miterlimit="10" stroke-linecap="round" stroke-linejoin="round"/>
<path d="M113.223 69.248H110.093V69.8451H113.223V69.248Z" stroke="#FEFEFE" stroke-miterlimit="10" stroke-linecap="round" stroke-linejoin="round"/>
<path d="M113.751 68.5449H109.601V69.2474H113.751V68.5449Z" stroke="#FEFEFE" stroke-miterlimit="10" stroke-linecap="round" stroke-linejoin="round"/>
<path d="M113.469 70.8281H109.847V74.6922H113.469V70.8281Z" stroke="#FEFEFE" stroke-miterlimit="10" stroke-linecap="round" stroke-linejoin="round"/>
<path d="M118.147 69.8086H115.474C114.982 69.8086 114.56 70.23 114.56 70.7218V75.6396H119.062V70.7218C119.062 70.23 118.675 69.8086 118.147 69.8086Z" stroke="#FEFEFE" stroke-miterlimit="10" stroke-linecap="round" stroke-linejoin="round"/>
<path d="M118.394 69.248H115.264V69.8451H118.394V69.248Z" stroke="#FEFEFE" stroke-miterlimit="10" stroke-linecap="round" stroke-linejoin="round"/>
<path d="M118.886 68.5449H114.735V69.2474H118.886V68.5449Z" stroke="#FEFEFE" stroke-miterlimit="10" stroke-linecap="round" stroke-linejoin="round"/>
<path d="M118.64 70.8281H115.018V74.6922H118.64V70.8281Z" stroke="#FEFEFE" stroke-miterlimit="10" stroke-linecap="round" stroke-linejoin="round"/>
<path d="M126.237 77.0098H123.564C123.071 77.0098 122.649 77.4313 122.649 77.9229V82.8408H127.151V77.9229C127.151 77.4313 126.765 77.0098 126.237 77.0098Z" stroke="#FEFEFE" stroke-miterlimit="10" stroke-linecap="round" stroke-linejoin="round"/>
<path d="M126.975 75.7461H122.825V76.4486H126.975V75.7461Z" stroke="#FEFEFE" stroke-miterlimit="10" stroke-linecap="round" stroke-linejoin="round"/>
<path d="M123.353 69.8086H120.68C120.188 69.8086 119.766 70.23 119.766 70.7218V75.6396H124.268V70.7218C124.268 70.23 123.846 69.8086 123.353 69.8086Z" stroke="#FEFEFE" stroke-miterlimit="10" stroke-linecap="round" stroke-linejoin="round"/>
<path d="M123.564 69.248H120.434V69.8451H123.564V69.248Z" stroke="#FEFEFE" stroke-miterlimit="10" stroke-linecap="round" stroke-linejoin="round"/>
<path d="M124.092 68.5449H119.941V69.2474H124.092V68.5449Z" stroke="#FEFEFE" stroke-miterlimit="10" stroke-linecap="round" stroke-linejoin="round"/>
<path d="M123.845 70.8281H120.223V74.6922H123.845V70.8281Z" stroke="#FEFEFE" stroke-miterlimit="10" stroke-linecap="round" stroke-linejoin="round"/>
<path d="M32.1881 65.2421H26.9826L26.4551 60.4648H32.7156L32.1881 65.2421Z" stroke="#FEFEFE" stroke-miterlimit="10" stroke-linecap="round" stroke-linejoin="round"/>
<path d="M33.0675 59.7637H26.0332V60.431H33.0675V59.7637Z" stroke="#FEFEFE" stroke-miterlimit="10" stroke-linecap="round" stroke-linejoin="round"/>
<path d="M40.0316 65.2421H34.8264L34.2988 60.4648H40.5592L40.0316 65.2421Z" stroke="#FEFEFE" stroke-miterlimit="10" stroke-linecap="round" stroke-linejoin="round"/>
<path d="M40.9112 59.7637H33.877V60.431H40.9112V59.7637Z" stroke="#FEFEFE" stroke-miterlimit="10" stroke-linecap="round" stroke-linejoin="round"/>
<path d="M47.9098 65.2421H42.6693L42.1416 60.4648H48.4373L47.9098 65.2421Z" stroke="#FEFEFE" stroke-miterlimit="10" stroke-linecap="round" stroke-linejoin="round"/>
<path d="M48.754 59.7637H41.7197V60.431H48.754V59.7637Z" stroke="#FEFEFE" stroke-miterlimit="10" stroke-linecap="round" stroke-linejoin="round"/>
<path d="M55.7535 65.2421H50.5481L50.0205 60.4648H56.281L55.7535 65.2421Z" stroke="#FEFEFE" stroke-miterlimit="10" stroke-linecap="round" stroke-linejoin="round"/>
<path d="M56.6331 59.7637H49.5986V60.431H56.6331V59.7637Z" stroke="#FEFEFE" stroke-miterlimit="10" stroke-linecap="round" stroke-linejoin="round"/>
<path d="M63.5963 65.2421H58.3908L57.8633 60.4648H64.1238L63.5963 65.2421Z" stroke="#FEFEFE" stroke-miterlimit="10" stroke-linecap="round" stroke-linejoin="round"/>
<path d="M64.4757 59.7637H57.4414V60.431H64.4757V59.7637Z" stroke="#FEFEFE" stroke-miterlimit="10" stroke-linecap="round" stroke-linejoin="round"/>
<path d="M71.4751 65.2421H66.2346L65.707 60.4648H72.0026L71.4751 65.2421Z" stroke="#FEFEFE" stroke-miterlimit="10" stroke-linecap="round" stroke-linejoin="round"/>
<path d="M72.3194 59.7637H65.2852V60.431H72.3194V59.7637Z" stroke="#FEFEFE" stroke-miterlimit="10" stroke-linecap="round" stroke-linejoin="round"/>
<path d="M79.3178 65.2421H74.1125L73.585 60.4648H79.8455L79.3178 65.2421Z" stroke="#FEFEFE" stroke-miterlimit="10" stroke-linecap="round" stroke-linejoin="round"/>
<path d="M80.1973 59.7637H73.1631V60.431H80.1973V59.7637Z" stroke="#FEFEFE" stroke-miterlimit="10" stroke-linecap="round" stroke-linejoin="round"/>
<path d="M87.1617 65.2421H81.9564L81.4287 60.4648H87.6892L87.1617 65.2421Z" stroke="#FEFEFE" stroke-miterlimit="10" stroke-linecap="round" stroke-linejoin="round"/>
<path d="M88.0411 59.7637H81.0068V60.431H88.0411V59.7637Z" stroke="#FEFEFE" stroke-miterlimit="10" stroke-linecap="round" stroke-linejoin="round"/>
<path d="M95.0397 65.2421H89.799L89.2715 60.4648H95.5672L95.0397 65.2421Z" stroke="#FEFEFE" stroke-miterlimit="10" stroke-linecap="round" stroke-linejoin="round"/>
<path d="M95.884 59.7637H88.8496V60.431H95.884V59.7637Z" stroke="#FEFEFE" stroke-miterlimit="10" stroke-linecap="round" stroke-linejoin="round"/>
<path d="M102.883 65.2421H97.6779L97.1504 60.4648H103.411L102.883 65.2421Z" stroke="#FEFEFE" stroke-miterlimit="10" stroke-linecap="round" stroke-linejoin="round"/>
<path d="M103.762 59.7637H96.7275V60.431H103.762V59.7637Z" stroke="#FEFEFE" stroke-miterlimit="10" stroke-linecap="round" stroke-linejoin="round"/>
<path d="M110.726 65.2421H105.521L104.993 60.4648H111.254L110.726 65.2421Z" stroke="#FEFEFE" stroke-miterlimit="10" stroke-linecap="round" stroke-linejoin="round"/>
<path d="M111.606 59.7637H104.571V60.431H111.606V59.7637Z" stroke="#FEFEFE" stroke-miterlimit="10" stroke-linecap="round" stroke-linejoin="round"/>
<path d="M118.605 65.2421H113.364L112.837 60.4648H119.132L118.605 65.2421Z" stroke="#FEFEFE" stroke-miterlimit="10" stroke-linecap="round" stroke-linejoin="round"/>
<path d="M119.448 59.7637H112.414V60.431H119.448V59.7637Z" stroke="#FEFEFE" stroke-miterlimit="10" stroke-linecap="round" stroke-linejoin="round"/>
<path d="M126.448 65.2421H121.242L120.715 60.4648H126.975L126.448 65.2421Z" stroke="#FEFEFE" stroke-miterlimit="10" stroke-linecap="round" stroke-linejoin="round"/>
<path d="M127.327 59.7637H120.293V60.431H127.327V59.7637Z" stroke="#FEFEFE" stroke-miterlimit="10" stroke-linecap="round" stroke-linejoin="round"/>
<path d="M36.057 59.5878H30.8166L30.3242 54.8105H36.5848L36.057 59.5878Z" stroke="#FEFEFE" stroke-miterlimit="10" stroke-linecap="round" stroke-linejoin="round"/>
<path d="M36.9366 54.1074H29.9023V54.7748H36.9366V54.1074Z" stroke="#FEFEFE" stroke-miterlimit="10" stroke-linecap="round" stroke-linejoin="round"/>
<path d="M43.9008 59.5878H38.6955L38.168 54.8105H44.4283L43.9008 59.5878Z" stroke="#FEFEFE" stroke-miterlimit="10" stroke-linecap="round" stroke-linejoin="round"/>
<path d="M44.7794 54.1074H37.7451V54.7748H44.7794V54.1074Z" stroke="#FEFEFE" stroke-miterlimit="10" stroke-linecap="round" stroke-linejoin="round"/>
<path d="M51.7789 59.5878H46.5383L46.0107 54.8105H52.2713L51.7789 59.5878Z" stroke="#FEFEFE" stroke-miterlimit="10" stroke-linecap="round" stroke-linejoin="round"/>
<path d="M52.6233 54.1074H45.5889V54.7748H52.6233V54.1074Z" stroke="#FEFEFE" stroke-miterlimit="10" stroke-linecap="round" stroke-linejoin="round"/>
<path d="M59.6226 59.5878H54.3822L53.8896 54.8105H60.1502L59.6226 59.5878Z" stroke="#FEFEFE" stroke-miterlimit="10" stroke-linecap="round" stroke-linejoin="round"/>
<path d="M60.5011 54.1074H53.4668V54.7748H60.5011V54.1074Z" stroke="#FEFEFE" stroke-miterlimit="10" stroke-linecap="round" stroke-linejoin="round"/>
<path d="M67.4654 59.5878H62.26L61.7324 54.8105H67.9929L67.4654 59.5878Z" stroke="#FEFEFE" stroke-miterlimit="10" stroke-linecap="round" stroke-linejoin="round"/>
<path d="M68.3448 54.1074H61.3105V54.7748H68.3448V54.1074Z" stroke="#FEFEFE" stroke-miterlimit="10" stroke-linecap="round" stroke-linejoin="round"/>
<path d="M75.3442 59.5878H70.1037L69.5762 54.8105H75.8367L75.3442 59.5878Z" stroke="#FEFEFE" stroke-miterlimit="10" stroke-linecap="round" stroke-linejoin="round"/>
<path d="M76.1876 54.1074H69.1533V54.7748H76.1876V54.1074Z" stroke="#FEFEFE" stroke-miterlimit="10" stroke-linecap="round" stroke-linejoin="round"/>
<path d="M83.1869 59.5878H77.9464L77.4541 54.8105H83.7145L83.1869 59.5878Z" stroke="#FEFEFE" stroke-miterlimit="10" stroke-linecap="round" stroke-linejoin="round"/>
<path d="M84.0665 54.1074H77.0322V54.7748H84.0665V54.1074Z" stroke="#FEFEFE" stroke-miterlimit="10" stroke-linecap="round" stroke-linejoin="round"/>
<path d="M91.0299 59.5878H85.8246L85.2969 54.8105H91.5574L91.0299 59.5878Z" stroke="#FEFEFE" stroke-miterlimit="10" stroke-linecap="round" stroke-linejoin="round"/>
<path d="M91.9092 54.1074H84.875V54.7748H91.9092V54.1074Z" stroke="#FEFEFE" stroke-miterlimit="10" stroke-linecap="round" stroke-linejoin="round"/>
<path d="M98.9088 59.5878H93.6682L93.1406 54.8105H99.4012L98.9088 59.5878Z" stroke="#FEFEFE" stroke-miterlimit="10" stroke-linecap="round" stroke-linejoin="round"/>
<path d="M99.7532 54.1074H92.7188V54.7748H99.7532V54.1074Z" stroke="#FEFEFE" stroke-miterlimit="10" stroke-linecap="round" stroke-linejoin="round"/>
<path d="M106.752 59.5878H101.511L101.019 54.8105H107.279L106.752 59.5878Z" stroke="#FEFEFE" stroke-miterlimit="10" stroke-linecap="round" stroke-linejoin="round"/>
<path d="M107.631 54.1074H100.597V54.7748H107.631V54.1074Z" stroke="#FEFEFE" stroke-miterlimit="10" stroke-linecap="round" stroke-linejoin="round"/>
<path d="M114.595 59.5878H109.39L108.862 54.8105H115.123L114.595 59.5878Z" stroke="#FEFEFE" stroke-miterlimit="10" stroke-linecap="round" stroke-linejoin="round"/>
<path d="M115.475 54.1074H108.44V54.7748H115.475V54.1074Z" stroke="#FEFEFE" stroke-miterlimit="10" stroke-linecap="round" stroke-linejoin="round"/>
<path d="M122.473 59.5878H117.233L116.705 54.8105H122.966L122.473 59.5878Z" stroke="#FEFEFE" stroke-miterlimit="10" stroke-linecap="round" stroke-linejoin="round"/>
<path d="M123.317 54.1074H116.283V54.7748H123.317V54.1074Z" stroke="#FEFEFE" stroke-miterlimit="10" stroke-linecap="round" stroke-linejoin="round"/>
<path d="M36.8315 42.1641H31.6963V49.4703H36.8315V42.1641Z" stroke="#FEFEFE" stroke-miterlimit="10" stroke-linecap="round" stroke-linejoin="round"/>
<path d="M31.9072 43.0078H36.7961" stroke="#FEFEFE" stroke-miterlimit="10" stroke-linecap="round" stroke-linejoin="round"/>
<path d="M31.9072 48.7324H36.7961" stroke="#FEFEFE" stroke-miterlimit="10" stroke-linecap="round" stroke-linejoin="round"/>
<path d="M34.2635 47.3623C35.1958 47.3623 35.9516 46.6075 35.9516 45.6764C35.9516 44.745 35.1958 43.9902 34.2635 43.9902C33.3311 43.9902 32.5752 44.745 32.5752 45.6764C32.5752 46.6075 33.3311 47.3623 34.2635 47.3623Z" stroke="#FEFEFE" stroke-miterlimit="10" stroke-linecap="round" stroke-linejoin="round"/>
<path d="M42.5637 42.1641H37.4287V49.4703H42.5637V42.1641Z" stroke="#FEFEFE" stroke-miterlimit="10" stroke-linecap="round" stroke-linejoin="round"/>
<path d="M37.6045 43.0078H42.4933" stroke="#FEFEFE" stroke-miterlimit="10" stroke-linecap="round" stroke-linejoin="round"/>
<path d="M37.6045 48.7324H42.4933" stroke="#FEFEFE" stroke-miterlimit="10" stroke-linecap="round" stroke-linejoin="round"/>
<path d="M39.9608 47.3623C40.8932 47.3623 41.6491 46.6075 41.6491 45.6764C41.6491 44.745 40.8932 43.9902 39.9608 43.9902C39.0283 43.9902 38.2725 44.745 38.2725 45.6764C38.2725 46.6075 39.0283 47.3623 39.9608 47.3623Z" stroke="#FEFEFE" stroke-miterlimit="10" stroke-linecap="round" stroke-linejoin="round"/>
<path d="M48.2619 42.1641H43.127V49.4703H48.2619V42.1641Z" stroke="#FEFEFE" stroke-miterlimit="10" stroke-linecap="round" stroke-linejoin="round"/>
<path d="M43.3379 43.0078H48.2267" stroke="#FEFEFE" stroke-miterlimit="10" stroke-linecap="round" stroke-linejoin="round"/>
<path d="M43.3379 48.7324H48.2267" stroke="#FEFEFE" stroke-miterlimit="10" stroke-linecap="round" stroke-linejoin="round"/>
<path d="M45.694 47.3623C46.6264 47.3623 47.3823 46.6075 47.3823 45.6764C47.3823 44.745 46.6264 43.9902 45.694 43.9902C44.7617 43.9902 44.0059 44.745 44.0059 45.6764C44.0059 46.6075 44.7617 47.3623 45.694 47.3623Z" stroke="#FEFEFE" stroke-miterlimit="10" stroke-linecap="round" stroke-linejoin="round"/>
<path d="M53.9944 42.1641H48.8594V49.4703H53.9944V42.1641Z" stroke="#FEFEFE" stroke-miterlimit="10" stroke-linecap="round" stroke-linejoin="round"/>
<path d="M49.0352 43.0078H53.9242" stroke="#FEFEFE" stroke-miterlimit="10" stroke-linecap="round" stroke-linejoin="round"/>
<path d="M49.0352 48.7324H53.9242" stroke="#FEFEFE" stroke-miterlimit="10" stroke-linecap="round" stroke-linejoin="round"/>
<path d="M51.3924 47.3623C52.3248 47.3623 53.0805 46.6075 53.0805 45.6764C53.0805 44.745 52.3248 43.9902 51.3924 43.9902C50.46 43.9902 49.7041 44.745 49.7041 45.6764C49.7041 46.6075 50.46 47.3623 51.3924 47.3623Z" stroke="#FEFEFE" stroke-miterlimit="10" stroke-linecap="round" stroke-linejoin="round"/>
<path d="M59.6926 42.1641H54.5576V49.4703H59.6926V42.1641Z" stroke="#FEFEFE" stroke-miterlimit="10" stroke-linecap="round" stroke-linejoin="round"/>
<path d="M54.7686 43.0078H59.6574" stroke="#FEFEFE" stroke-miterlimit="10" stroke-linecap="round" stroke-linejoin="round"/>
<path d="M54.7686 48.7324H59.6574" stroke="#FEFEFE" stroke-miterlimit="10" stroke-linecap="round" stroke-linejoin="round"/>
<path d="M57.1247 47.3623C58.0571 47.3623 58.813 46.6075 58.813 45.6764C58.813 44.745 58.0571 43.9902 57.1247 43.9902C56.1924 43.9902 55.4365 44.745 55.4365 45.6764C55.4365 46.6075 56.1924 47.3623 57.1247 47.3623Z" stroke="#FEFEFE" stroke-miterlimit="10" stroke-linecap="round" stroke-linejoin="round"/>
<path d="M65.4252 42.1641H60.29V49.4703H65.4252V42.1641Z" stroke="#FEFEFE" stroke-miterlimit="10" stroke-linecap="round" stroke-linejoin="round"/>
<path d="M60.4658 43.0078H65.3547" stroke="#FEFEFE" stroke-miterlimit="10" stroke-linecap="round" stroke-linejoin="round"/>
<path d="M60.4658 48.7324H65.3547" stroke="#FEFEFE" stroke-miterlimit="10" stroke-linecap="round" stroke-linejoin="round"/>
<path d="M62.8231 47.3623C63.7553 47.3623 64.5112 46.6075 64.5112 45.6764C64.5112 44.745 63.7553 43.9902 62.8231 43.9902C61.8906 43.9902 61.1348 44.745 61.1348 45.6764C61.1348 46.6075 61.8906 47.3623 62.8231 47.3623Z" stroke="#FEFEFE" stroke-miterlimit="10" stroke-linecap="round" stroke-linejoin="round"/>
<path d="M71.1233 42.1641H65.9883V49.4703H71.1233V42.1641Z" stroke="#FEFEFE" stroke-miterlimit="10" stroke-linecap="round" stroke-linejoin="round"/>
<path d="M66.1992 43.0078H71.0881" stroke="#FEFEFE" stroke-miterlimit="10" stroke-linecap="round" stroke-linejoin="round"/>
<path d="M66.1992 48.7324H71.0881" stroke="#FEFEFE" stroke-miterlimit="10" stroke-linecap="round" stroke-linejoin="round"/>
<path d="M68.5553 47.3623C69.4878 47.3623 70.2436 46.6075 70.2436 45.6764C70.2436 44.745 69.4878 43.9902 68.5553 43.9902C67.6229 43.9902 66.8672 44.745 66.8672 45.6764C66.8672 46.6075 67.6229 47.3623 68.5553 47.3623Z" stroke="#FEFEFE" stroke-miterlimit="10" stroke-linecap="round" stroke-linejoin="round"/>
<path d="M39.3284 34.752H34.1934V42.0584H39.3284V34.752Z" stroke="#FEFEFE" stroke-miterlimit="10" stroke-linecap="round" stroke-linejoin="round"/>
<path d="M34.3691 35.5957H39.258" stroke="#FEFEFE" stroke-miterlimit="10" stroke-linecap="round" stroke-linejoin="round"/>
<path d="M34.3691 41.2852H39.258" stroke="#FEFEFE" stroke-miterlimit="10" stroke-linecap="round" stroke-linejoin="round"/>
<path d="M36.7254 39.9502C37.6579 39.9502 38.4137 39.1954 38.4137 38.2642C38.4137 37.3329 37.6579 36.5781 36.7254 36.5781C35.793 36.5781 35.0371 37.3329 35.0371 38.2642C35.0371 39.1954 35.793 39.9502 36.7254 39.9502Z" stroke="#FEFEFE" stroke-miterlimit="10" stroke-linecap="round" stroke-linejoin="round"/>
<path d="M45.0256 34.752H39.8906V42.0584H45.0256V34.752Z" stroke="#FEFEFE" stroke-miterlimit="10" stroke-linecap="round" stroke-linejoin="round"/>
<path d="M40.1025 35.5957H44.9914" stroke="#FEFEFE" stroke-miterlimit="10" stroke-linecap="round" stroke-linejoin="round"/>
<path d="M40.1025 41.2852H44.9914" stroke="#FEFEFE" stroke-miterlimit="10" stroke-linecap="round" stroke-linejoin="round"/>
<path d="M42.4235 39.9502C43.3559 39.9502 44.1118 39.1954 44.1118 38.2642C44.1118 37.3329 43.3559 36.5781 42.4235 36.5781C41.4912 36.5781 40.7354 37.3329 40.7354 38.2642C40.7354 39.1954 41.4912 39.9502 42.4235 39.9502Z" stroke="#FEFEFE" stroke-miterlimit="10" stroke-linecap="round" stroke-linejoin="round"/>
<path d="M50.7592 34.752H45.624V42.0584H50.7592V34.752Z" stroke="#FEFEFE" stroke-miterlimit="10" stroke-linecap="round" stroke-linejoin="round"/>
<path d="M45.7998 35.5957H50.6886" stroke="#FEFEFE" stroke-miterlimit="10" stroke-linecap="round" stroke-linejoin="round"/>
<path d="M45.7998 41.2852H50.6886" stroke="#FEFEFE" stroke-miterlimit="10" stroke-linecap="round" stroke-linejoin="round"/>
<path d="M48.1561 39.9502C49.0884 39.9502 49.8442 39.1954 49.8442 38.2642C49.8442 37.3329 49.0884 36.5781 48.1561 36.5781C47.2236 36.5781 46.4678 37.3329 46.4678 38.2642C46.4678 39.1954 47.2236 39.9502 48.1561 39.9502Z" stroke="#FEFEFE" stroke-miterlimit="10" stroke-linecap="round" stroke-linejoin="round"/>
<path d="M56.4563 34.752H51.3213V42.0584H56.4563V34.752Z" stroke="#FEFEFE" stroke-miterlimit="10" stroke-linecap="round" stroke-linejoin="round"/>
<path d="M51.5322 35.5957H56.4211" stroke="#FEFEFE" stroke-miterlimit="10" stroke-linecap="round" stroke-linejoin="round"/>
<path d="M51.5322 41.2852H56.4211" stroke="#FEFEFE" stroke-miterlimit="10" stroke-linecap="round" stroke-linejoin="round"/>
<path d="M53.8541 39.9502C54.7866 39.9502 55.5425 39.1954 55.5425 38.2642C55.5425 37.3329 54.7866 36.5781 53.8541 36.5781C52.9219 36.5781 52.166 37.3329 52.166 38.2642C52.166 39.1954 52.9219 39.9502 53.8541 39.9502Z" stroke="#FEFEFE" stroke-miterlimit="10" stroke-linecap="round" stroke-linejoin="round"/>
<path d="M62.1897 34.752H57.0547V42.0584H62.1897V34.752Z" stroke="#FEFEFE" stroke-miterlimit="10" stroke-linecap="round" stroke-linejoin="round"/>
<path d="M57.2305 35.5957H62.1193" stroke="#FEFEFE" stroke-miterlimit="10" stroke-linecap="round" stroke-linejoin="round"/>
<path d="M57.2305 41.2852H62.1193" stroke="#FEFEFE" stroke-miterlimit="10" stroke-linecap="round" stroke-linejoin="round"/>
<path d="M59.5867 39.9502C60.519 39.9502 61.2749 39.1954 61.2749 38.2642C61.2749 37.3329 60.519 36.5781 59.5867 36.5781C58.6543 36.5781 57.8984 37.3329 57.8984 38.2642C57.8984 39.1954 58.6543 39.9502 59.5867 39.9502Z" stroke="#FEFEFE" stroke-miterlimit="10" stroke-linecap="round" stroke-linejoin="round"/>
<path d="M67.8879 34.752H62.7529V42.0584H67.8879V34.752Z" stroke="#FEFEFE" stroke-miterlimit="10" stroke-linecap="round" stroke-linejoin="round"/>
<path d="M62.9639 35.5957H67.8527" stroke="#FEFEFE" stroke-miterlimit="10" stroke-linecap="round" stroke-linejoin="round"/>
<path d="M62.9639 41.2852H67.8527" stroke="#FEFEFE" stroke-miterlimit="10" stroke-linecap="round" stroke-linejoin="round"/>
<path d="M65.285 39.9502C66.2174 39.9502 66.9733 39.1954 66.9733 38.2642C66.9733 37.3329 66.2174 36.5781 65.285 36.5781C64.3525 36.5781 63.5967 37.3329 63.5967 38.2642C63.5967 39.1954 64.3525 39.9502 65.285 39.9502Z" stroke="#FEFEFE" stroke-miterlimit="10" stroke-linecap="round" stroke-linejoin="round"/>
<path d="M76.7502 42.1641H71.6152V49.4703H76.7502V42.1641Z" stroke="#FEFEFE" stroke-miterlimit="10" stroke-linecap="round" stroke-linejoin="round"/>
<path d="M71.8262 43.0078H76.715" stroke="#FEFEFE" stroke-miterlimit="10" stroke-linecap="round" stroke-linejoin="round"/>
<path d="M71.8262 48.7324H76.715" stroke="#FEFEFE" stroke-miterlimit="10" stroke-linecap="round" stroke-linejoin="round"/>
<path d="M74.1834 47.3623C75.1157 47.3623 75.8715 46.6075 75.8715 45.6764C75.8715 44.745 75.1157 43.9902 74.1834 43.9902C73.251 43.9902 72.4951 44.745 72.4951 45.6764C72.4951 46.6075 73.251 47.3623 74.1834 47.3623Z" stroke="#FEFEFE" stroke-miterlimit="10" stroke-linecap="round" stroke-linejoin="round"/>
<path d="M82.4836 42.1641H77.3486V49.4703H82.4836V42.1641Z" stroke="#FEFEFE" stroke-miterlimit="10" stroke-linecap="round" stroke-linejoin="round"/>
<path d="M77.5244 43.0078H82.4132" stroke="#FEFEFE" stroke-miterlimit="10" stroke-linecap="round" stroke-linejoin="round"/>
<path d="M77.5244 48.7324H82.4132" stroke="#FEFEFE" stroke-miterlimit="10" stroke-linecap="round" stroke-linejoin="round"/>
<path d="M79.8807 47.3623C80.8131 47.3623 81.5688 46.6075 81.5688 45.6764C81.5688 44.745 80.8131 43.9902 79.8807 43.9902C78.9482 43.9902 78.1924 44.745 78.1924 45.6764C78.1924 46.6075 78.9482 47.3623 79.8807 47.3623Z" stroke="#FEFEFE" stroke-miterlimit="10" stroke-linecap="round" stroke-linejoin="round"/>
<path d="M88.1809 42.1641H83.0459V49.4703H88.1809V42.1641Z" stroke="#FEFEFE" stroke-miterlimit="10" stroke-linecap="round" stroke-linejoin="round"/>
<path d="M83.2578 43.0078H88.1466" stroke="#FEFEFE" stroke-miterlimit="10" stroke-linecap="round" stroke-linejoin="round"/>
<path d="M83.2578 48.7324H88.1466" stroke="#FEFEFE" stroke-miterlimit="10" stroke-linecap="round" stroke-linejoin="round"/>
<path d="M85.6139 47.3623C86.5464 47.3623 87.3022 46.6075 87.3022 45.6764C87.3022 44.745 86.5464 43.9902 85.6139 43.9902C84.6816 43.9902 83.9258 44.745 83.9258 45.6764C83.9258 46.6075 84.6816 47.3623 85.6139 47.3623Z" stroke="#FEFEFE" stroke-miterlimit="10" stroke-linecap="round" stroke-linejoin="round"/>
<path d="M93.9145 42.1641H88.7793V49.4703H93.9145V42.1641Z" stroke="#FEFEFE" stroke-miterlimit="10" stroke-linecap="round" stroke-linejoin="round"/>
<path d="M88.9551 43.0078H93.8439" stroke="#FEFEFE" stroke-miterlimit="10" stroke-linecap="round" stroke-linejoin="round"/>
<path d="M88.9551 48.7324H93.8439" stroke="#FEFEFE" stroke-miterlimit="10" stroke-linecap="round" stroke-linejoin="round"/>
<path d="M91.3114 47.3623C92.2436 47.3623 92.9995 46.6075 92.9995 45.6764C92.9995 44.745 92.2436 43.9902 91.3114 43.9902C90.3789 43.9902 89.623 44.745 89.623 45.6764C89.623 46.6075 90.3789 47.3623 91.3114 47.3623Z" stroke="#FEFEFE" stroke-miterlimit="10" stroke-linecap="round" stroke-linejoin="round"/>
<path d="M99.6116 42.1641H94.4766V49.4703H99.6116V42.1641Z" stroke="#FEFEFE" stroke-miterlimit="10" stroke-linecap="round" stroke-linejoin="round"/>
<path d="M94.6875 43.0078H99.5763" stroke="#FEFEFE" stroke-miterlimit="10" stroke-linecap="round" stroke-linejoin="round"/>
<path d="M94.6875 48.7324H99.5763" stroke="#FEFEFE" stroke-miterlimit="10" stroke-linecap="round" stroke-linejoin="round"/>
<path d="M97.0446 47.3623C97.977 47.3623 98.7329 46.6075 98.7329 45.6764C98.7329 44.745 97.977 43.9902 97.0446 43.9902C96.1121 43.9902 95.3564 44.745 95.3564 45.6764C95.3564 46.6075 96.1121 47.3623 97.0446 47.3623Z" stroke="#FEFEFE" stroke-miterlimit="10" stroke-linecap="round" stroke-linejoin="round"/>
<path d="M105.345 42.1641H100.21V49.4703H105.345V42.1641Z" stroke="#FEFEFE" stroke-miterlimit="10" stroke-linecap="round" stroke-linejoin="round"/>
<path d="M100.386 43.0078H105.275" stroke="#FEFEFE" stroke-miterlimit="10" stroke-linecap="round" stroke-linejoin="round"/>
<path d="M100.386 48.7324H105.275" stroke="#FEFEFE" stroke-miterlimit="10" stroke-linecap="round" stroke-linejoin="round"/>
<path d="M102.742 47.3623C103.674 47.3623 104.43 46.6075 104.43 45.6764C104.43 44.745 103.674 43.9902 102.742 43.9902C101.81 43.9902 101.054 44.745 101.054 45.6764C101.054 46.6075 101.81 47.3623 102.742 47.3623Z" stroke="#FEFEFE" stroke-miterlimit="10" stroke-linecap="round" stroke-linejoin="round"/>
<path d="M73.5149 34.752H68.3799V42.0584H73.5149V34.752Z" stroke="#FEFEFE" stroke-miterlimit="10" stroke-linecap="round" stroke-linejoin="round"/>
<path d="M68.5908 35.5957H73.4796" stroke="#FEFEFE" stroke-miterlimit="10" stroke-linecap="round" stroke-linejoin="round"/>
<path d="M68.5908 41.2852H73.4796" stroke="#FEFEFE" stroke-miterlimit="10" stroke-linecap="round" stroke-linejoin="round"/>
<path d="M70.9118 39.9502C71.8442 39.9502 72.6001 39.1954 72.6001 38.2642C72.6001 37.3329 71.8442 36.5781 70.9118 36.5781C69.9795 36.5781 69.2236 37.3329 69.2236 38.2642C69.2236 39.1954 69.9795 39.9502 70.9118 39.9502Z" stroke="#FEFEFE" stroke-miterlimit="10" stroke-linecap="round" stroke-linejoin="round"/>
<path d="M79.2473 34.752H74.1123V42.0584H79.2473V34.752Z" stroke="#FEFEFE" stroke-miterlimit="10" stroke-linecap="round" stroke-linejoin="round"/>
<path d="M74.2881 35.5957H79.1769" stroke="#FEFEFE" stroke-miterlimit="10" stroke-linecap="round" stroke-linejoin="round"/>
<path d="M74.2881 41.2852H79.1769" stroke="#FEFEFE" stroke-miterlimit="10" stroke-linecap="round" stroke-linejoin="round"/>
<path d="M76.6453 39.9502C77.5776 39.9502 78.3335 39.1954 78.3335 38.2642C78.3335 37.3329 77.5776 36.5781 76.6453 36.5781C75.7129 36.5781 74.957 37.3329 74.957 38.2642C74.957 39.1954 75.7129 39.9502 76.6453 39.9502Z" stroke="#FEFEFE" stroke-miterlimit="10" stroke-linecap="round" stroke-linejoin="round"/>
<path d="M84.9455 34.752H79.8105V42.0584H84.9455V34.752Z" stroke="#FEFEFE" stroke-miterlimit="10" stroke-linecap="round" stroke-linejoin="round"/>
<path d="M80.0215 35.5957H84.9103" stroke="#FEFEFE" stroke-miterlimit="10" stroke-linecap="round" stroke-linejoin="round"/>
<path d="M80.0215 41.2852H84.9103" stroke="#FEFEFE" stroke-miterlimit="10" stroke-linecap="round" stroke-linejoin="round"/>
<path d="M82.3424 39.9502C83.2749 39.9502 84.0307 39.1954 84.0307 38.2642C84.0307 37.3329 83.2749 36.5781 82.3424 36.5781C81.4102 36.5781 80.6543 37.3329 80.6543 38.2642C80.6543 39.1954 81.4102 39.9502 82.3424 39.9502Z" stroke="#FEFEFE" stroke-miterlimit="10" stroke-linecap="round" stroke-linejoin="round"/>
<path d="M90.6791 34.752H85.5439V42.0584H90.6791V34.752Z" stroke="#FEFEFE" stroke-miterlimit="10" stroke-linecap="round" stroke-linejoin="round"/>
<path d="M85.7197 35.5957H90.6086" stroke="#FEFEFE" stroke-miterlimit="10" stroke-linecap="round" stroke-linejoin="round"/>
<path d="M85.7197 41.2852H90.6086" stroke="#FEFEFE" stroke-miterlimit="10" stroke-linecap="round" stroke-linejoin="round"/>
<path d="M88.076 39.9502C89.0083 39.9502 89.7641 39.1954 89.7641 38.2642C89.7641 37.3329 89.0083 36.5781 88.076 36.5781C87.1435 36.5781 86.3877 37.3329 86.3877 38.2642C86.3877 39.1954 87.1435 39.9502 88.076 39.9502Z" stroke="#FEFEFE" stroke-miterlimit="10" stroke-linecap="round" stroke-linejoin="round"/>
<path d="M96.3762 34.752H91.2412V42.0584H96.3762V34.752Z" stroke="#FEFEFE" stroke-miterlimit="10" stroke-linecap="round" stroke-linejoin="round"/>
<path d="M91.4521 35.5957H96.341" stroke="#FEFEFE" stroke-miterlimit="10" stroke-linecap="round" stroke-linejoin="round"/>
<path d="M91.4521 41.2852H96.341" stroke="#FEFEFE" stroke-miterlimit="10" stroke-linecap="round" stroke-linejoin="round"/>
<path d="M93.7731 39.9502C94.7055 39.9502 95.4614 39.1954 95.4614 38.2642C95.4614 37.3329 94.7055 36.5781 93.7731 36.5781C92.8406 36.5781 92.085 37.3329 92.085 38.2642C92.085 39.1954 92.8406 39.9502 93.7731 39.9502Z" stroke="#FEFEFE" stroke-miterlimit="10" stroke-linecap="round" stroke-linejoin="round"/>
<path d="M102.11 34.752H96.9746V42.0584H102.11V34.752Z" stroke="#FEFEFE" stroke-miterlimit="10" stroke-linecap="round" stroke-linejoin="round"/>
<path d="M97.1504 35.5957H102.039" stroke="#FEFEFE" stroke-miterlimit="10" stroke-linecap="round" stroke-linejoin="round"/>
<path d="M97.1504 41.2852H102.039" stroke="#FEFEFE" stroke-miterlimit="10" stroke-linecap="round" stroke-linejoin="round"/>
<path d="M99.5065 39.9502C100.439 39.9502 101.195 39.1954 101.195 38.2642C101.195 37.3329 100.439 36.5781 99.5065 36.5781C98.5742 36.5781 97.8184 37.3329 97.8184 38.2642C97.8184 39.1954 98.5742 39.9502 99.5065 39.9502Z" stroke="#FEFEFE" stroke-miterlimit="10" stroke-linecap="round" stroke-linejoin="round"/>
<path d="M110.973 42.1641H105.838V49.4703H110.973V42.1641Z" stroke="#FEFEFE" stroke-miterlimit="10" stroke-linecap="round" stroke-linejoin="round"/>
<path d="M106.014 43.0078H110.903" stroke="#FEFEFE" stroke-miterlimit="10" stroke-linecap="round" stroke-linejoin="round"/>
<path d="M106.014 48.7324H110.903" stroke="#FEFEFE" stroke-miterlimit="10" stroke-linecap="round" stroke-linejoin="round"/>
<path d="M108.37 47.3623C109.302 47.3623 110.058 46.6075 110.058 45.6764C110.058 44.745 109.302 43.9902 108.37 43.9902C107.438 43.9902 106.682 44.745 106.682 45.6764C106.682 46.6075 107.438 47.3623 108.37 47.3623Z" stroke="#FEFEFE" stroke-miterlimit="10" stroke-linecap="round" stroke-linejoin="round"/>
<path d="M116.67 42.1641H111.535V49.4703H116.67V42.1641Z" stroke="#FEFEFE" stroke-miterlimit="10" stroke-linecap="round" stroke-linejoin="round"/>
<path d="M111.746 43.0078H116.635" stroke="#FEFEFE" stroke-miterlimit="10" stroke-linecap="round" stroke-linejoin="round"/>
<path d="M111.746 48.7324H116.635" stroke="#FEFEFE" stroke-miterlimit="10" stroke-linecap="round" stroke-linejoin="round"/>
<path d="M114.103 47.3623C115.036 47.3623 115.791 46.6075 115.791 45.6764C115.791 44.745 115.036 43.9902 114.103 43.9902C113.171 43.9902 112.415 44.745 112.415 45.6764C112.415 46.6075 113.171 47.3623 114.103 47.3623Z" stroke="#FEFEFE" stroke-miterlimit="10" stroke-linecap="round" stroke-linejoin="round"/>
<path d="M122.403 42.1641H117.268V49.4703H122.403V42.1641Z" stroke="#FEFEFE" stroke-miterlimit="10" stroke-linecap="round" stroke-linejoin="round"/>
<path d="M117.444 43.0078H122.333" stroke="#FEFEFE" stroke-miterlimit="10" stroke-linecap="round" stroke-linejoin="round"/>
<path d="M117.444 48.7324H122.333" stroke="#FEFEFE" stroke-miterlimit="10" stroke-linecap="round" stroke-linejoin="round"/>
<path d="M119.801 47.3623C120.733 47.3623 121.489 46.6075 121.489 45.6764C121.489 44.745 120.733 43.9902 119.801 43.9902C118.868 43.9902 118.112 44.745 118.112 45.6764C118.112 46.6075 118.868 47.3623 119.801 47.3623Z" stroke="#FEFEFE" stroke-miterlimit="10" stroke-linecap="round" stroke-linejoin="round"/>
<path d="M128.101 42.1641H122.966V49.4703H128.101V42.1641Z" stroke="#FEFEFE" stroke-miterlimit="10" stroke-linecap="round" stroke-linejoin="round"/>
<path d="M107.737 34.752H102.602V42.0584H107.737V34.752Z" stroke="#FEFEFE" stroke-miterlimit="10" stroke-linecap="round" stroke-linejoin="round"/>
<path d="M102.777 35.5957H107.666" stroke="#FEFEFE" stroke-miterlimit="10" stroke-linecap="round" stroke-linejoin="round"/>
<path d="M102.777 41.2852H107.666" stroke="#FEFEFE" stroke-miterlimit="10" stroke-linecap="round" stroke-linejoin="round"/>
<path d="M105.134 39.9502C106.066 39.9502 106.822 39.1954 106.822 38.2642C106.822 37.3329 106.066 36.5781 105.134 36.5781C104.201 36.5781 103.445 37.3329 103.445 38.2642C103.445 39.1954 104.201 39.9502 105.134 39.9502Z" stroke="#FEFEFE" stroke-miterlimit="10" stroke-linecap="round" stroke-linejoin="round"/>
<path d="M113.435 34.752H108.3V42.0584H113.435V34.752Z" stroke="#FEFEFE" stroke-miterlimit="10" stroke-linecap="round" stroke-linejoin="round"/>
<path d="M108.511 35.5957H113.4" stroke="#FEFEFE" stroke-miterlimit="10" stroke-linecap="round" stroke-linejoin="round"/>
<path d="M108.511 41.2852H113.4" stroke="#FEFEFE" stroke-miterlimit="10" stroke-linecap="round" stroke-linejoin="round"/>
<path d="M110.832 39.9502C111.764 39.9502 112.52 39.1954 112.52 38.2642C112.52 37.3329 111.764 36.5781 110.832 36.5781C109.899 36.5781 109.144 37.3329 109.144 38.2642C109.144 39.1954 109.899 39.9502 110.832 39.9502Z" stroke="#FEFEFE" stroke-miterlimit="10" stroke-linecap="round" stroke-linejoin="round"/>
<path d="M119.167 34.752H114.032V42.0584H119.167V34.752Z" stroke="#FEFEFE" stroke-miterlimit="10" stroke-linecap="round" stroke-linejoin="round"/>
<path d="M114.208 35.5957H119.097" stroke="#FEFEFE" stroke-miterlimit="10" stroke-linecap="round" stroke-linejoin="round"/>
<path d="M114.208 41.2852H119.097" stroke="#FEFEFE" stroke-miterlimit="10" stroke-linecap="round" stroke-linejoin="round"/>
<path d="M116.565 39.9502C117.498 39.9502 118.253 39.1954 118.253 38.2642C118.253 37.3329 117.498 36.5781 116.565 36.5781C115.633 36.5781 114.877 37.3329 114.877 38.2642C114.877 39.1954 115.633 39.9502 116.565 39.9502Z" stroke="#FEFEFE" stroke-miterlimit="10" stroke-linecap="round" stroke-linejoin="round"/>
<path d="M124.865 34.752H119.73V42.0584H124.865V34.752Z" stroke="#FEFEFE" stroke-miterlimit="10" stroke-linecap="round" stroke-linejoin="round"/>
<path d="M119.941 35.5957H124.83" stroke="#FEFEFE" stroke-miterlimit="10" stroke-linecap="round" stroke-linejoin="round"/>
<path d="M119.941 41.2852H124.83" stroke="#FEFEFE" stroke-miterlimit="10" stroke-linecap="round" stroke-linejoin="round"/>
<path d="M122.262 39.9502C123.195 39.9502 123.951 39.1954 123.951 38.2642C123.951 37.3329 123.195 36.5781 122.262 36.5781C121.33 36.5781 120.574 37.3329 120.574 38.2642C120.574 39.1954 121.33 39.9502 122.262 39.9502Z" stroke="#FEFEFE" stroke-miterlimit="10" stroke-linecap="round" stroke-linejoin="round"/>
<path d="M37.1122 18.1719H30.5V31.8011H37.1122V18.1719Z" stroke="#FEFEFE" stroke-miterlimit="10" stroke-linecap="round" stroke-linejoin="round"/>
<path d="M35.354 19.0156H31.9424V28.0431H35.354V19.0156Z" stroke="#FEFEFE" stroke-miterlimit="10" stroke-linecap="round" stroke-linejoin="round"/>
<path d="M31.9072 29.2363H35.4244" stroke="#FEFEFE" stroke-miterlimit="10" stroke-linecap="round" stroke-linejoin="round"/>
<path d="M31.9072 30.3613H35.4244" stroke="#FEFEFE" stroke-miterlimit="10" stroke-linecap="round" stroke-linejoin="round"/>
<path d="M44.2176 18.1719H37.6055V31.8011H44.2176V18.1719Z" stroke="#FEFEFE" stroke-miterlimit="10" stroke-linecap="round" stroke-linejoin="round"/>
<path d="M42.4585 19.0156H39.0469V28.0431H42.4585V19.0156Z" stroke="#FEFEFE" stroke-miterlimit="10" stroke-linecap="round" stroke-linejoin="round"/>
<path d="M38.9766 29.2363H42.5289" stroke="#FEFEFE" stroke-miterlimit="10" stroke-linecap="round" stroke-linejoin="round"/>
<path d="M38.9766 30.3613H42.5289" stroke="#FEFEFE" stroke-miterlimit="10" stroke-linecap="round" stroke-linejoin="round"/>
<path d="M51.3221 18.1719H44.71V31.8011H51.3221V18.1719Z" stroke="#FEFEFE" stroke-miterlimit="10" stroke-linecap="round" stroke-linejoin="round"/>
<path d="M49.563 19.0156H46.1514V28.0431H49.563V19.0156Z" stroke="#FEFEFE" stroke-miterlimit="10" stroke-linecap="round" stroke-linejoin="round"/>
<path d="M46.0811 29.2363H49.6334" stroke="#FEFEFE" stroke-miterlimit="10" stroke-linecap="round" stroke-linejoin="round"/>
<path d="M46.0811 30.3613H49.6334" stroke="#FEFEFE" stroke-miterlimit="10" stroke-linecap="round" stroke-linejoin="round"/>
<path d="M58.3915 18.1719H51.7793V31.8011H58.3915V18.1719Z" stroke="#FEFEFE" stroke-miterlimit="10" stroke-linecap="round" stroke-linejoin="round"/>
<path d="M56.6675 19.0156H53.2559V28.0431H56.6675V19.0156Z" stroke="#FEFEFE" stroke-miterlimit="10" stroke-linecap="round" stroke-linejoin="round"/>
<path d="M53.1855 29.2363H56.7379" stroke="#FEFEFE" stroke-miterlimit="10" stroke-linecap="round" stroke-linejoin="round"/>
<path d="M53.1855 30.3613H56.7379" stroke="#FEFEFE" stroke-miterlimit="10" stroke-linecap="round" stroke-linejoin="round"/>
<path d="M65.496 18.1719H58.8838V31.8011H65.496V18.1719Z" stroke="#FEFEFE" stroke-miterlimit="10" stroke-linecap="round" stroke-linejoin="round"/>
<path d="M63.7368 19.0156H60.3252V28.0431H63.7368V19.0156Z" stroke="#FEFEFE" stroke-miterlimit="10" stroke-linecap="round" stroke-linejoin="round"/>
<path d="M60.2549 29.2363H63.8072" stroke="#FEFEFE" stroke-miterlimit="10" stroke-linecap="round" stroke-linejoin="round"/>
<path d="M60.2549 30.3613H63.8072" stroke="#FEFEFE" stroke-miterlimit="10" stroke-linecap="round" stroke-linejoin="round"/>
<path d="M72.6005 18.1719H65.9883V31.8011H72.6005V18.1719Z" stroke="#FEFEFE" stroke-miterlimit="10" stroke-linecap="round" stroke-linejoin="round"/>
<path d="M70.8413 19.0156H67.4297V28.0431H70.8413V19.0156Z" stroke="#FEFEFE" stroke-miterlimit="10" stroke-linecap="round" stroke-linejoin="round"/>
<path d="M67.3594 29.2363H70.9117" stroke="#FEFEFE" stroke-miterlimit="10" stroke-linecap="round" stroke-linejoin="round"/>
<path d="M67.3594 30.3613H70.9117" stroke="#FEFEFE" stroke-miterlimit="10" stroke-linecap="round" stroke-linejoin="round"/>
<path d="M79.6698 18.1719H73.0576V31.8011H79.6698V18.1719Z" stroke="#FEFEFE" stroke-miterlimit="10" stroke-linecap="round" stroke-linejoin="round"/>
<path d="M77.9468 19.0156H74.5352V28.0431H77.9468V19.0156Z" stroke="#FEFEFE" stroke-miterlimit="10" stroke-linecap="round" stroke-linejoin="round"/>
<path d="M74.4648 29.2363H78.0172" stroke="#FEFEFE" stroke-miterlimit="10" stroke-linecap="round" stroke-linejoin="round"/>
<path d="M74.4648 30.3613H78.0172" stroke="#FEFEFE" stroke-miterlimit="10" stroke-linecap="round" stroke-linejoin="round"/>
<path d="M86.7743 18.1719H80.1621V31.8011H86.7743V18.1719Z" stroke="#FEFEFE" stroke-miterlimit="10" stroke-linecap="round" stroke-linejoin="round"/>
<path d="M85.0161 19.0156H81.6045V28.0431H85.0161V19.0156Z" stroke="#FEFEFE" stroke-miterlimit="10" stroke-linecap="round" stroke-linejoin="round"/>
<path d="M81.5342 29.2363H85.0865" stroke="#FEFEFE" stroke-miterlimit="10" stroke-linecap="round" stroke-linejoin="round"/>
<path d="M81.5342 30.3613H85.0865" stroke="#FEFEFE" stroke-miterlimit="10" stroke-linecap="round" stroke-linejoin="round"/>
<path d="M93.8788 18.1719H87.2666V31.8011H93.8788V18.1719Z" stroke="#FEFEFE" stroke-miterlimit="10" stroke-linecap="round" stroke-linejoin="round"/>
<path d="M92.1206 19.0156H88.709V28.0431H92.1206V19.0156Z" stroke="#FEFEFE" stroke-miterlimit="10" stroke-linecap="round" stroke-linejoin="round"/>
<path d="M88.6387 29.2363H92.191" stroke="#FEFEFE" stroke-miterlimit="10" stroke-linecap="round" stroke-linejoin="round"/>
<path d="M88.6387 30.3613H92.191" stroke="#FEFEFE" stroke-miterlimit="10" stroke-linecap="round" stroke-linejoin="round"/>
<path d="M100.984 18.1719H94.3721V31.8011H100.984V18.1719Z" stroke="#FEFEFE" stroke-miterlimit="10" stroke-linecap="round" stroke-linejoin="round"/>
<path d="M99.2251 19.0156H95.8135V28.0431H99.2251V19.0156Z" stroke="#FEFEFE" stroke-miterlimit="10" stroke-linecap="round" stroke-linejoin="round"/>
<path d="M95.7432 29.2363H99.2955" stroke="#FEFEFE" stroke-miterlimit="10" stroke-linecap="round" stroke-linejoin="round"/>
<path d="M95.7432 30.3613H99.2955" stroke="#FEFEFE" stroke-miterlimit="10" stroke-linecap="round" stroke-linejoin="round"/>
<path d="M108.054 18.1719H101.441V31.8011H108.054V18.1719Z" stroke="#FEFEFE" stroke-miterlimit="10" stroke-linecap="round" stroke-linejoin="round"/>
<path d="M106.294 19.0156H102.883V28.0431H106.294V19.0156Z" stroke="#FEFEFE" stroke-miterlimit="10" stroke-linecap="round" stroke-linejoin="round"/>
<path d="M102.848 29.2363H106.365" stroke="#FEFEFE" stroke-miterlimit="10" stroke-linecap="round" stroke-linejoin="round"/>
<path d="M102.848 30.3613H106.365" stroke="#FEFEFE" stroke-miterlimit="10" stroke-linecap="round" stroke-linejoin="round"/>
<path d="M115.158 18.1719H108.546V31.8011H115.158V18.1719Z" stroke="#FEFEFE" stroke-miterlimit="10" stroke-linecap="round" stroke-linejoin="round"/>
<path d="M113.4 19.0156H109.988V28.0431H113.4V19.0156Z" stroke="#FEFEFE" stroke-miterlimit="10" stroke-linecap="round" stroke-linejoin="round"/>
<path d="M109.917 29.2363H113.469" stroke="#FEFEFE" stroke-miterlimit="10" stroke-linecap="round" stroke-linejoin="round"/>
<path d="M109.917 30.3613H113.469" stroke="#FEFEFE" stroke-miterlimit="10" stroke-linecap="round" stroke-linejoin="round"/>
<path d="M122.263 18.1719H115.65V31.8011H122.263V18.1719Z" stroke="#FEFEFE" stroke-miterlimit="10" stroke-linecap="round" stroke-linejoin="round"/>
<path d="M120.504 19.0156H117.093V28.0431H120.504V19.0156Z" stroke="#FEFEFE" stroke-miterlimit="10" stroke-linecap="round" stroke-linejoin="round"/>
<path d="M117.022 29.2363H120.575" stroke="#FEFEFE" stroke-miterlimit="10" stroke-linecap="round" stroke-linejoin="round"/>
<path d="M117.022 30.3613H120.575" stroke="#FEFEFE" stroke-miterlimit="10" stroke-linecap="round" stroke-linejoin="round"/>
<path d="M129.332 18.1719H122.72V31.8011H129.332V18.1719Z" stroke="#FEFEFE" stroke-miterlimit="10" stroke-linecap="round" stroke-linejoin="round"/>
<path d="M37.2531 0.671875H34.4395V2.32284H37.2531V0.671875Z" stroke="#FEFEFE" stroke-miterlimit="10" stroke-linecap="round" stroke-linejoin="round"/>
<path d="M38.6948 4.42984C38.6597 4.32446 38.5893 4.25421 38.5541 4.18397L37.8156 3.0599L37.4638 2.6735L37.1824 2.28711H34.4391L33.9819 3.0599L33.1729 4.28934C33.1025 4.35959 33.0322 4.46498 33.0322 4.6406V13.1062C33.0322 13.8087 33.595 14.3708 34.2985 14.3708H37.4638C38.1672 14.3708 38.73 13.8087 38.73 13.1062V4.60548C38.73 4.53523 38.6948 4.50011 38.6948 4.42984Z" stroke="#FEFEFE" stroke-miterlimit="10" stroke-linecap="round" stroke-linejoin="round"/>
<path d="M43.9709 0.671875H41.1572V2.32284H43.9709V0.671875Z" stroke="#FEFEFE" stroke-miterlimit="10" stroke-linecap="round" stroke-linejoin="round"/>
<path d="M45.3774 4.42984C45.3423 4.32446 45.2719 4.25421 45.2367 4.18397L44.4982 3.0599L44.1464 2.6735L43.8652 2.28711H41.1218L40.6645 3.0599L39.8555 4.28934C39.7853 4.35959 39.7148 4.46498 39.7148 4.6406V13.1062C39.7148 13.8087 40.2776 14.3708 40.9811 14.3708H44.1464C44.8498 14.3708 45.4126 13.8087 45.4126 13.1062V4.60548C45.4126 4.53523 45.3774 4.50011 45.3774 4.42984Z" stroke="#FEFEFE" stroke-miterlimit="10" stroke-linecap="round" stroke-linejoin="round"/>
<path d="M50.6535 0.671875H47.8398V2.32284H50.6535V0.671875Z" stroke="#FEFEFE" stroke-miterlimit="10" stroke-linecap="round" stroke-linejoin="round"/>
<path d="M52.0601 4.42987C52.0249 4.3245 51.9546 4.25423 51.9194 4.18398L51.1808 3.05992L50.8643 2.67353V2.70865L50.5829 2.32227H47.8395L47.3822 3.09504L46.5733 4.3245C46.503 4.39475 46.4326 4.50012 46.4326 4.67576V13.1413C46.4326 13.8439 46.9954 14.4059 47.6988 14.4059H50.8643C51.5676 14.4059 52.1304 13.8439 52.1304 13.1413V4.60551C52.0953 4.53524 52.0953 4.50012 52.0601 4.42987Z" stroke="#FEFEFE" stroke-miterlimit="10" stroke-linecap="round" stroke-linejoin="round"/>
<path d="M57.3361 0.671875H54.5225V2.32284H57.3361V0.671875Z" stroke="#FEFEFE" stroke-miterlimit="10" stroke-linecap="round" stroke-linejoin="round"/>
<path d="M58.7427 4.42987C58.7075 4.3245 58.6373 4.25423 58.602 4.18398L57.8634 3.05992L57.5469 2.67353V2.70865L57.2656 2.32227H54.5222L54.0649 3.09504L53.2559 4.3245C53.1857 4.39475 53.1152 4.50012 53.1152 4.67576V13.1413C53.1152 13.8439 53.678 14.4059 54.3815 14.4059H57.5469C58.2504 14.4059 58.813 13.8439 58.813 13.1413V4.60551C58.778 4.53524 58.778 4.50012 58.7427 4.42987Z" stroke="#FEFEFE" stroke-miterlimit="10" stroke-linecap="round" stroke-linejoin="round"/>
<path d="M64.0539 0.671875H61.2402V2.32284H64.0539V0.671875Z" stroke="#FEFEFE" stroke-miterlimit="10" stroke-linecap="round" stroke-linejoin="round"/>
<path d="M65.4606 4.42987C65.4254 4.3245 65.3551 4.25423 65.3199 4.18398L64.5462 3.05992L64.2296 2.67353V2.70865L63.9482 2.32227H61.2048L60.7475 3.09504L59.9385 4.3245C59.8683 4.39475 59.7979 4.50012 59.7979 4.67576V13.1413C59.7979 13.8439 60.3606 14.4059 61.0641 14.4059H64.2296C64.933 14.4059 65.4958 13.8439 65.4958 13.1413V4.60551C65.4958 4.53524 65.4606 4.50012 65.4606 4.42987Z" stroke="#FEFEFE" stroke-miterlimit="10" stroke-linecap="round" stroke-linejoin="round"/>
<path d="M70.7367 0.671875H67.9229V2.32284H70.7367V0.671875Z" stroke="#FEFEFE" stroke-miterlimit="10" stroke-linecap="round" stroke-linejoin="round"/>
<path d="M72.143 4.42987C72.1077 4.3245 72.0375 4.25423 72.0023 4.18398L71.2638 3.05992L70.9472 2.67353V2.70865L70.6658 2.32227H67.9224L67.4653 3.09504L66.6563 4.3245C66.5859 4.39475 66.5156 4.50012 66.5156 4.67576V13.1413C66.5156 13.8439 67.0782 14.4059 67.7817 14.4059H70.9472C71.6506 14.4059 72.2134 13.8439 72.2134 13.1413V4.60551C72.1782 4.53524 72.1782 4.50012 72.143 4.42987Z" stroke="#FEFEFE" stroke-miterlimit="10" stroke-linecap="round" stroke-linejoin="round"/>
<path d="M77.4193 0.671875H74.6055V2.32284H77.4193V0.671875Z" stroke="#FEFEFE" stroke-miterlimit="10" stroke-linecap="round" stroke-linejoin="round"/>
<path d="M78.8256 4.42987C78.7905 4.3245 78.7201 4.25423 78.6849 4.18398L77.9464 3.05992L77.6298 2.67353V2.70865L77.3484 2.32227H74.605L74.1479 3.09504L73.3389 4.3245C73.2685 4.39475 73.1982 4.50012 73.1982 4.67576V13.1413C73.1982 13.8439 73.761 14.4059 74.4643 14.4059H77.6298C78.3332 14.4059 78.896 13.8439 78.896 13.1413V4.60551C78.8608 4.53524 78.8608 4.50012 78.8256 4.42987Z" stroke="#FEFEFE" stroke-miterlimit="10" stroke-linecap="round" stroke-linejoin="round"/>
<path d="M84.1369 0.671875H81.3232V2.32284H84.1369V0.671875Z" stroke="#FEFEFE" stroke-miterlimit="10" stroke-linecap="round" stroke-linejoin="round"/>
<path d="M85.5434 4.42987C85.5082 4.3245 85.4379 4.25423 85.4027 4.18398L84.6642 3.05992L84.3124 2.67353V2.70865L84.031 2.32227H81.2878L80.8305 3.09504L80.0215 4.3245C79.9511 4.39475 79.8809 4.50012 79.8809 4.67576V13.1413C79.8809 13.8439 80.4436 14.4059 81.1471 14.4059H84.3124C85.0159 14.4059 85.5786 13.8439 85.5786 13.1413V4.60551C85.5786 4.53524 85.5434 4.50012 85.5434 4.42987Z" stroke="#FEFEFE" stroke-miterlimit="10" stroke-linecap="round" stroke-linejoin="round"/>
<path d="M90.8195 0.671875H88.0059V2.32284H90.8195V0.671875Z" stroke="#FEFEFE" stroke-miterlimit="10" stroke-linecap="round" stroke-linejoin="round"/>
<path d="M92.2261 4.42987C92.1909 4.3245 92.1205 4.25423 92.0854 4.18398L91.3468 3.05992L91.0302 2.67353V2.70865L90.7488 2.32227H88.0056L87.5483 3.09504L86.7393 4.3245C86.6691 4.39475 86.5986 4.50012 86.5986 4.67576V13.1413C86.5986 13.8439 87.1614 14.4059 87.8649 14.4059H91.0302C91.7336 14.4059 92.2964 13.8439 92.2964 13.1413V4.60551C92.2612 4.53524 92.2612 4.50012 92.2261 4.42987Z" stroke="#FEFEFE" stroke-miterlimit="10" stroke-linecap="round" stroke-linejoin="round"/>
<path d="M97.5021 0.671875H94.6885V2.32284H97.5021V0.671875Z" stroke="#FEFEFE" stroke-miterlimit="10" stroke-linecap="round" stroke-linejoin="round"/>
<path d="M98.9088 4.42987C98.8735 4.3245 98.8033 4.25423 98.7681 4.18398L98.0294 3.05992L97.713 2.67353V2.70865L97.4316 2.32227H94.6882L94.2309 3.09504L93.4219 4.3245C93.3517 4.39475 93.2812 4.50012 93.2812 4.67576V13.1413C93.2812 13.8439 93.844 14.4059 94.5475 14.4059H97.713C98.4162 14.4059 98.979 13.8439 98.979 13.1413V4.60551C98.9438 4.53524 98.9438 4.50012 98.9088 4.42987Z" stroke="#FEFEFE" stroke-miterlimit="10" stroke-linecap="round" stroke-linejoin="round"/>
<path d="M104.22 0.671875H101.406V2.32284H104.22V0.671875Z" stroke="#FEFEFE" stroke-miterlimit="10" stroke-linecap="round" stroke-linejoin="round"/>
<path d="M105.627 4.42987C105.591 4.3245 105.521 4.25423 105.486 4.18398L104.747 3.05992L104.396 2.67353V2.70865L104.114 2.32227H101.371L100.913 3.09504L100.105 4.3245C100.034 4.39475 99.9639 4.50012 99.9639 4.67576V13.1413C99.9639 13.8439 100.527 14.4059 101.23 14.4059H104.396C105.099 14.4059 105.662 13.8439 105.662 13.1413V4.60551C105.662 4.53524 105.627 4.50012 105.627 4.42987Z" stroke="#FEFEFE" stroke-miterlimit="10" stroke-linecap="round" stroke-linejoin="round"/>
<path d="M110.903 0.671875H108.089V2.32284H110.903V0.671875Z" stroke="#FEFEFE" stroke-miterlimit="10" stroke-linecap="round" stroke-linejoin="round"/>
<path d="M112.309 4.42987C112.274 4.3245 112.204 4.25423 112.168 4.18398L111.43 3.05992L111.113 2.67353V2.70865L110.832 2.32227H108.089L107.631 3.09504L106.822 4.3245C106.752 4.39475 106.682 4.50012 106.682 4.67576V13.1413C106.682 13.8439 107.244 14.4059 107.948 14.4059H111.113C111.817 14.4059 112.379 13.8439 112.379 13.1413V4.60551C112.344 4.53524 112.344 4.50012 112.309 4.42987Z" stroke="#FEFEFE" stroke-miterlimit="10" stroke-linecap="round" stroke-linejoin="round"/>
<path d="M117.584 0.671875H114.771V2.32284H117.584V0.671875Z" stroke="#FEFEFE" stroke-miterlimit="10" stroke-linecap="round" stroke-linejoin="round"/>
<path d="M118.992 4.42987C118.956 4.3245 118.886 4.25423 118.851 4.18398L118.112 3.05992L117.796 2.67353V2.70865L117.514 2.32227H114.771L114.314 3.09504L113.505 4.3245C113.435 4.39475 113.364 4.50012 113.364 4.67576V13.1413C113.364 13.8439 113.927 14.4059 114.63 14.4059H117.796C118.499 14.4059 119.062 13.8439 119.062 13.1413V4.60551C119.027 4.53524 119.027 4.50012 118.992 4.42987Z" stroke="#FEFEFE" stroke-miterlimit="10" stroke-linecap="round" stroke-linejoin="round"/>
<path d="M124.302 0.671875H121.488V2.32284H124.302V0.671875Z" stroke="#FEFEFE" stroke-miterlimit="10" stroke-linecap="round" stroke-linejoin="round"/>
<path d="M125.709 4.42987C125.674 4.3245 125.604 4.25423 125.569 4.18398L124.83 3.05992L124.478 2.67353V2.70865L124.197 2.32227H121.454L120.997 3.09504L120.188 4.3245C120.117 4.39475 120.047 4.50012 120.047 4.67576V13.1413C120.047 13.8439 120.61 14.4059 121.313 14.4059H124.478C125.182 14.4059 125.745 13.8439 125.745 13.1413V4.60551C125.745 4.53524 125.709 4.50012 125.709 4.42987Z" stroke="#FEFEFE" stroke-miterlimit="10" stroke-linecap="round" stroke-linejoin="round"/>
</g>
</svg>
