<svg width="119" height="48" viewBox="0 0 119 48" fill="none" xmlns="http://www.w3.org/2000/svg">
<path d="M82.7266 7.40351C62.3325 3.92982 43.0668 5.04691 23.141 10.5287C18.0314 11.929 12.8707 13.9099 8.4783 17.8035C4.59814 21.236 0.295394 28.5109 2.69008 35.0002C3.47123 37.1177 5.12318 38.3814 6.73671 39.3207C16.3155 44.922 27.3925 44.6658 37.6371 44.9903C57.9343 45.6563 78.4364 47.7226 98.4135 42.8727C102.601 41.8652 106.84 40.499 110.425 37.408C114.011 34.3171 116.841 29.2452 116.995 23.5756C117.148 17.2741 113.947 11.5021 109.913 8.20618C104.125 3.50997 97.2994 1.58026 90.5635 2.0755C84.6344 2.50242 75.9393 4.51752 71.6237 10.4774" stroke="#E3E3E3" stroke-width="4" stroke-miterlimit="10" stroke-linecap="round" stroke-linejoin="round"/>
</svg>
