<svg width="193" height="65" viewBox="0 0 193 65" fill="none" xmlns="http://www.w3.org/2000/svg">
<g clip-path="url(#clip0_3421_28303)">
<path d="M1.80014 29.7997C0.500139 38.1997 1.60014 47.6997 5.80014 54.0997C11.4001 62.5997 20.8001 63.3997 29.1001 63.3997C41.6001 63.3997 54.1001 62.8997 66.6001 62.3997C102.2 60.9997 137.8 59.5997 173.4 58.2997C177.3 58.0997 181.4 57.8997 184.6 54.7997C188.1 51.2997 189.6 45.1997 190.5 39.3997C191.9 30.5997 192 19.8997 186.9 14.3997C184 11.1997 180 10.5997 176.3 10.1997C151.7 7.19973 127.1 4.09973 102.5 2.49973C77.7001 0.899728 52.8001 0.699728 28.0001 3.49973C23.1001 3.89973 13.0001 2.79973 9.40014 6.99973C5.50014 11.3997 2.70014 23.2997 1.80014 29.7997Z" stroke="black" stroke-width="2.5" stroke-miterlimit="9.999" stroke-linecap="round" stroke-linejoin="round"/>
<path d="M45.3996 24.5L38.9996 35.3V42.7H34.8996V35.3L28.5996 24.5H32.7996L36.9996 31.8L41.1996 24.5H45.3996Z" fill="black"/>
<path d="M58.8992 35.5992C58.8992 35.9992 58.8992 36.2992 58.7992 36.6992H48.1992C48.3992 37.6992 48.6992 38.3992 49.2992 38.8992C49.8992 39.3992 50.6992 39.6992 51.5992 39.6992C52.1992 39.6992 52.7992 39.5992 53.2992 39.2992C53.7992 38.9992 54.1992 38.5992 54.4992 38.0992H58.4992C57.9992 39.5992 57.0992 40.7992 55.7992 41.6992C54.4992 42.5992 53.0992 43.0992 51.4992 43.0992C49.3992 43.0992 47.6992 42.3992 46.2992 40.9992C44.8992 39.5992 44.1992 37.7992 44.1992 35.6992C44.1992 34.8992 44.2992 34.0992 44.5992 33.2992C44.7992 32.4992 45.1992 31.8992 45.5992 31.1992C45.9992 30.4992 46.5992 30.0992 47.0992 29.5992C47.5992 29.0992 48.3992 28.7992 49.0992 28.5992C49.7992 28.3992 50.5992 28.1992 51.4992 28.1992C52.8992 28.1992 54.1992 28.4992 55.2992 29.1992C56.3992 29.8992 57.2992 30.7992 57.8992 31.8992C58.5992 32.9992 58.8992 34.2992 58.8992 35.5992ZM51.5992 31.4992C50.7992 31.4992 49.9992 31.6992 49.4992 32.1992C48.8992 32.6992 48.4992 33.2992 48.2992 34.0992H55.0992C54.8992 33.4992 54.6992 32.9992 54.2992 32.6992C53.9992 32.2992 53.5992 31.9992 53.0992 31.7992C52.6992 31.5992 52.1992 31.4992 51.5992 31.4992Z" fill="black"/>
<path d="M69.2996 28.3008C71.3996 28.3008 73.1996 29.0008 74.5996 30.4008C75.9996 31.8008 76.6996 33.6008 76.6996 35.7008C76.6996 37.8008 75.9996 39.6008 74.5996 41.0008C73.1996 42.4008 71.3996 43.1008 69.2996 43.1008C67.8996 43.1008 66.5996 42.7008 65.3996 41.9008V47.7008H61.5996V28.6008H64.0996L64.7996 29.9008C65.9996 28.8008 67.4996 28.3008 69.2996 28.3008ZM66.1996 38.4008C66.8996 39.1008 67.7996 39.5008 68.8996 39.5008C69.9996 39.5008 70.8996 39.1008 71.5996 38.4008C72.2996 37.7008 72.6996 36.8008 72.6996 35.6008C72.6996 34.9008 72.4996 34.2008 72.1996 33.6008C71.8996 33.0008 71.3996 32.6008 70.7996 32.2008C70.1996 31.9008 69.5996 31.7008 68.7996 31.7008C68.0996 31.7008 67.3996 31.9008 66.7996 32.2008C66.1996 32.5008 65.7996 33.0008 65.3996 33.6008C65.0996 34.2008 64.8996 34.8008 64.8996 35.6008C65.0996 36.8008 65.4996 37.7008 66.1996 38.4008Z" fill="black"/>
<path d="M79.5 42.7V38.6H83.5V42.7H79.5ZM79.6 36.8V24H83.4V36.8H79.6Z" fill="black"/>
</g>
<defs>
<clipPath id="clip0_3421_28303">
<rect width="192.4" height="64.7" fill="white"/>
</clipPath>
</defs>
</svg>
