<svg width="125" height="48" viewBox="0 0 125 48" fill="none" xmlns="http://www.w3.org/2000/svg">
<g clip-path="url(#clip0_3388_34416)">
<path d="M37.3266 31.1908H44.3749V24.628H37.3266V16.9361H44.8065V10.0205H28.8398V46.9273H45.4538V40.0117H37.3266V31.1908Z" fill="#1A1F35"/>
<path d="M61.2048 23.5692C59.5506 22.6518 58.6156 21.8756 58.256 21.1699C57.8299 20.2399 57.6328 19.2246 57.6806 18.2061C57.6074 17.3979 57.7827 16.5867 58.1841 15.8773C58.3568 15.6034 58.6016 15.3801 58.8927 15.2311C59.1838 15.0821 59.5104 15.0128 59.8383 15.0305C60.1212 15.005 60.4059 15.0575 60.66 15.1822C60.9142 15.3068 61.1278 15.4987 61.2767 15.7362C61.5644 16.1596 61.7082 17.0064 61.7082 18.4178V19.6174H70.3388V19.688C70.3388 16.7947 70.0512 14.6777 69.4758 13.478C68.7231 12.117 67.4983 11.0656 66.0235 10.5142C63.9743 9.67741 61.7697 9.26884 59.5506 9.31456C57.5227 9.24526 55.5055 9.63145 53.653 10.4436C52.2034 11.0354 50.9909 12.0763 50.2008 13.4075C49.4815 14.6777 49.1219 16.7241 49.1219 19.5468C49.0775 21.1808 49.3458 22.8085 49.9131 24.3454C50.336 25.438 50.999 26.4259 51.855 27.2387C53.4003 28.5027 55.0346 29.6582 56.7456 30.6965C58.4218 31.6871 59.9885 32.8459 61.4205 34.1543C62.0678 34.9306 62.4275 36.4125 62.4275 38.6706C62.4859 39.5005 62.3118 40.3302 61.924 41.0699C61.7579 41.3705 61.5062 41.6173 61.1998 41.7801C60.8933 41.943 60.5453 42.015 60.1979 41.9873C59.8774 42.0082 59.5569 41.9477 59.2671 41.8118C58.9774 41.6758 58.7283 41.4689 58.5437 41.2111C58.256 40.7877 58.1121 39.8703 58.1121 38.3178V35.2834H49.4815V36.2008C49.3936 38.374 49.6855 40.5459 50.3446 42.6224C51.0128 44.2164 52.2722 45.5025 53.8688 46.2214C55.9411 47.2383 58.2422 47.7239 60.5575 47.6327C62.7141 47.6769 64.853 47.2427 66.8147 46.3625C68.5408 45.5157 69.7635 44.5277 70.3388 43.3281C71.0503 41.4822 71.3685 39.5128 71.2738 37.5416C71.2738 33.9426 70.6985 31.3316 69.6196 29.7086C68.325 28.2266 65.5201 26.1096 61.2048 23.5692Z" fill="#1A1F35"/>
<path d="M75.373 10.0205V46.9273H83.0687V28.0858L88.7505 46.9273H96.9496V10.0205H89.2539V28.5798L83.1406 10.0205H75.373Z" fill="#1A1F35"/>
<path d="M119.318 10.0205H105.581L99.9707 46.9273H108.961L109.896 40.2234H115.002L116.009 46.9273H124.999L119.318 10.0205ZM112.773 19.4766L115.002 34.1546H109.968C109.968 34.1546 111.262 26.3216 112.197 19.4766H112.773Z" fill="#1A1F35"/>
<path d="M7.98331 10.0205H0L5.68182 46.9273H19.4189L25.0288 10.0205H16.9735L12.7301 37.4713H12.2267L7.98331 10.0205Z" fill="#1A1F35"/>
<path d="M114.428 8.2564L117.808 0H113.205L112.055 8.2564H114.428Z" fill="#1A1F35"/>
</g>
<defs>
<clipPath id="clip0_3388_34416">
<rect width="125" height="48" fill="white"/>
</clipPath>
</defs>
</svg>
