<svg width="398" height="396" viewBox="0 0 398 396" fill="none" xmlns="http://www.w3.org/2000/svg">
<path d="M7.43272 247.682C6.88806 245.78 6.88806 244.014 7.29655 242.248C7.70505 240.481 8.52203 238.987 9.8156 237.696C11.0411 236.406 12.607 235.523 14.4452 235.047C17.2366 234.3 19.8237 234.572 22.1385 235.998C24.5214 237.357 26.0873 239.53 26.9043 242.383L28.5383 248.429L38.5464 245.712L39.908 250.535L10.4283 258.551L7.43272 247.682ZM22.3428 243.878C22.1385 243.131 21.7981 242.383 21.3896 241.84C20.9811 241.229 20.4365 240.753 19.8918 240.414C19.3471 240.074 18.6663 239.87 17.9855 239.734C17.2366 239.666 16.5558 239.734 15.8069 239.938C14.8537 240.21 14.0367 240.685 13.3559 241.365C12.7431 242.044 12.2666 242.859 12.0623 243.742C11.8581 244.693 11.8581 245.644 12.1304 246.663L13.6963 252.437L23.9767 249.652L22.3428 243.878Z" fill="#FEFEFE"/>
<path d="M31.9425 198.84C32.0106 203.46 30.5128 207.332 27.5171 210.388C24.5215 213.445 20.777 215.008 16.2155 215.076C11.6539 215.143 7.9094 213.649 4.84569 210.592C1.78198 207.603 0.28417 203.731 0.216088 199.112C0.148006 194.493 1.64582 190.621 4.64144 187.564C7.63707 184.507 11.3816 182.945 15.9431 182.877C18.9388 182.877 21.594 183.488 24.0449 184.847C26.4959 186.205 28.4022 188.108 29.7639 190.553C31.1936 192.998 31.9425 195.784 31.9425 198.84ZM24.0449 206.72C26.1555 204.614 27.1767 201.965 27.1086 198.84C27.1086 195.716 26.0193 193.066 23.8407 191.028C21.7301 188.991 19.0749 187.972 15.9431 187.972C12.8113 187.972 10.1561 189.059 8.11365 191.164C6.00309 193.27 4.98186 195.851 5.04994 199.044C5.04994 202.169 6.13926 204.818 8.31789 206.856C10.4284 208.894 13.0837 209.913 16.2155 209.913C19.3472 209.913 22.0025 208.826 24.0449 206.72Z" fill="#FEFEFE"/>
<path d="M36.9128 156.52C36.3681 158.762 35.483 160.596 34.2575 162.09C33.0321 163.585 31.6023 164.603 29.9003 165.147C28.1982 165.69 26.36 165.758 24.3856 165.215L25.6111 160.324C27.177 160.732 28.6067 160.46 29.8322 159.509C31.0577 158.558 31.8747 157.199 32.3512 155.433C32.7597 153.803 32.6916 152.308 32.2151 151.018C31.6704 149.727 30.7853 148.844 29.4918 148.572C29.0152 148.436 28.5386 148.436 28.1301 148.504C27.7216 148.572 27.3131 148.708 26.9046 148.98C26.5642 149.251 26.2238 149.523 25.8834 149.795C25.6111 150.067 25.2707 150.474 24.9302 151.086C24.5898 151.697 24.3175 152.172 24.1133 152.512C23.909 152.852 23.6367 153.463 23.2282 154.21C22.8197 155.025 22.4793 155.637 22.275 156.044C22.0027 156.452 21.6623 157.063 21.1857 157.743C20.7091 158.49 20.3006 159.033 19.9602 159.441C19.6198 159.78 19.1432 160.256 18.5305 160.732C17.9178 161.207 17.3731 161.547 16.7604 161.683C16.2157 161.886 15.5349 161.954 14.786 162.022C14.0371 162.09 13.2201 161.954 12.335 161.75C9.67979 161.071 7.84156 159.645 6.82032 157.403C5.79909 155.161 5.66292 152.444 6.47991 149.319C7.2969 146.127 8.72663 143.817 10.8372 142.391C12.9477 140.964 15.3306 140.624 18.122 141.372L16.8965 146.195C15.4668 145.855 14.2413 146.059 13.2201 146.874C12.1308 147.689 11.4499 148.912 11.0414 150.542C10.6329 152.104 10.6329 153.463 11.0414 154.686C11.4499 155.909 12.2669 156.588 13.4243 156.927C13.969 157.063 14.4456 157.063 14.9221 156.927C15.3987 156.792 15.8072 156.588 16.2157 156.316C16.5561 156.044 16.9646 155.637 17.3731 155.025C17.7816 154.414 18.122 153.871 18.3943 153.463C18.6667 153.055 19.0071 152.376 19.4156 151.561C19.756 150.882 20.0283 150.406 20.1645 150.067C20.3687 149.727 20.6411 149.251 20.9815 148.64C21.39 148.029 21.6623 147.553 21.9346 147.214C22.2069 146.874 22.5474 146.466 22.9559 145.991C23.3644 145.515 23.7728 145.108 24.1133 144.904C24.4537 144.7 24.9302 144.428 25.4068 144.157C25.9515 143.885 26.4281 143.681 26.9727 143.613C27.5174 143.545 28.062 143.477 28.7429 143.477C29.3556 143.477 30.0364 143.545 30.7173 143.749C33.5767 144.496 35.5511 146.059 36.6404 148.436C37.5255 150.678 37.7297 153.395 36.9128 156.52Z" fill="#FEFEFE"/>
<path d="M27.3128 98.3051L29.6957 93.8896L56.6564 108.155L54.2735 112.57L42.4952 106.389L35.9593 118.684L47.7376 124.933L45.3547 129.349L18.394 115.084L20.7769 110.668L31.8063 116.51L38.3422 104.215L27.3128 98.3051Z" fill="#FEFEFE"/>
<path d="M64.5539 84.1078C63.7369 85.0588 62.7157 85.6022 61.4902 85.7381C60.2647 85.874 59.1754 85.4664 58.1542 84.6512C57.1329 83.8361 56.5883 82.8171 56.5202 81.5944C56.4521 80.3717 56.7925 79.2848 57.6095 78.3338C58.4265 77.3148 59.4477 76.7714 60.6732 76.7035C61.8987 76.5676 62.988 76.9752 64.0093 77.7903C64.9624 78.6055 65.5071 79.6244 65.6432 80.8472C65.7113 82.002 65.3709 83.0888 64.5539 84.1078Z" fill="#FEFEFE"/>
<path d="M84.5022 41.176L74.6984 49.1237L80.145 55.7808L89.0638 48.5803L91.9913 52.1126L83.0725 59.3132L91.0382 69.095L87.1575 72.2877L67.8901 48.6482L81.5747 37.5078L84.5022 41.176Z" fill="#FEFEFE"/>
<path d="M147.138 36.9644L142.509 39.0703L130.118 20.4576L130.049 44.165L128.892 44.7084L110.918 29.1526L116.773 50.6862L112.144 52.792L104.042 22.971L108.535 20.9331L125.556 36.0134L125.488 13.325L130.049 11.2871L147.138 36.9644Z" fill="#FEFEFE"/>
<path d="M177.094 31.8018C172.601 32.4132 168.72 31.4621 165.316 28.9487C161.98 26.4354 159.938 22.903 159.325 18.3518C158.712 13.8005 159.665 9.92851 162.184 6.53203C164.703 3.20349 168.244 1.16561 172.669 0.554245C175.052 0.214597 177.299 0.418386 179.409 1.02975C181.52 1.64112 183.426 2.72799 184.992 4.22243C186.626 5.71688 187.783 7.55098 188.668 9.72472L183.63 10.404C182.609 8.50199 181.247 7.07547 179.409 6.19239C177.571 5.30931 175.528 4.96966 173.282 5.3093C170.286 5.71688 167.903 7.07547 166.201 9.38507C164.499 11.6947 163.886 14.4118 164.295 17.6045C164.703 20.7293 166.065 23.1747 168.38 24.9409C170.627 26.7071 173.282 27.3864 176.345 26.9788C178.66 26.6391 180.567 25.7561 182.064 24.3295C183.63 22.903 184.583 21.0689 184.924 18.8273L189.962 18.148C189.69 21.8162 188.328 24.873 186.013 27.3184C183.766 29.8318 180.771 31.2584 177.094 31.8018Z" fill="#FEFEFE"/>
<path d="M223.254 15.9738L239.39 18.2155C238.709 22.8347 236.734 26.4349 233.466 29.0162C230.198 31.5976 226.386 32.6165 221.961 32.0051C217.467 31.3938 213.995 29.4238 211.476 26.0273C208.957 22.6309 208.004 18.691 208.616 14.2076C209.229 9.72427 211.203 6.19194 214.54 3.61062C217.876 1.02931 221.756 0.078294 226.182 0.689659C229.858 1.16517 232.99 2.65961 235.441 5.173C237.96 7.61846 239.322 10.5394 239.526 13.9359L234.351 13.2566C234.011 11.2187 232.99 9.52049 231.356 8.09397C229.722 6.66745 227.816 5.8523 225.501 5.51265C223.458 5.24093 221.62 5.44472 219.918 6.12401C218.216 6.80331 216.786 7.89018 215.697 9.45256C214.54 11.0149 213.859 12.7811 213.586 14.8869C213.178 18.0796 213.723 20.8647 215.425 23.1064C217.059 25.348 219.441 26.7746 222.573 27.1821C224.956 27.5218 227.135 27.1821 229.109 26.1632C231.084 25.1443 232.513 23.6498 233.33 21.7478L222.573 20.2533L223.254 15.9738Z" fill="#FEFEFE"/>
<path d="M261.176 32.8889C259.95 32.4134 259.133 31.6662 258.589 30.5114C258.044 29.4245 258.044 28.2018 258.521 27.047C258.997 25.8242 259.746 24.9412 260.904 24.4657C261.993 23.9901 263.15 23.9222 264.376 24.3977C265.601 24.8732 266.486 25.6205 266.963 26.7073C267.44 27.7942 267.508 28.949 267.031 30.1717C266.554 31.3945 265.806 32.2096 264.716 32.753C263.559 33.3644 262.401 33.3644 261.176 32.8889Z" fill="#FEFEFE"/>
<path d="M305.498 30.3069C307.132 31.3258 308.425 32.6165 309.31 34.1789C310.196 35.7412 310.604 37.4395 310.536 39.2056C310.468 40.9718 309.991 42.67 308.97 44.3004C307.472 46.7458 305.362 48.2403 302.638 48.8516C299.915 49.463 297.328 48.9196 294.809 47.3572L289.498 44.0286L283.984 52.8595L279.763 50.2102L295.898 24.3291L305.498 30.3069ZM297.124 43.2135C297.805 43.6211 298.485 43.8928 299.234 44.0966C299.983 44.2324 300.664 44.2324 301.277 44.0966C301.958 43.9607 302.57 43.689 303.183 43.2814C303.796 42.8738 304.272 42.3304 304.681 41.719C305.226 40.836 305.498 39.9529 305.498 39.0019C305.498 38.0508 305.294 37.1678 304.817 36.3526C304.34 35.5375 303.66 34.7902 302.706 34.2468L297.6 31.0541L291.949 40.0887L297.124 43.2135Z" fill="#FEFEFE"/>
<path d="M324.629 85.7376L327.42 79.2164L317.82 69.5704L311.285 72.4234L307.54 68.6873L337.837 55.8486L341.173 59.1772L328.441 89.5416L324.629 85.7376ZM334.841 62.0981L322.246 67.6684L329.394 74.8009L334.841 62.0981Z" fill="#FEFEFE"/>
<path d="M343.624 113.317C341.377 109.445 340.764 105.437 341.785 101.362C342.875 97.2858 345.326 94.0931 349.274 91.7835C353.223 89.4739 357.24 88.8626 361.325 89.9494C365.41 91.0363 368.61 93.4818 370.857 97.3537C372.082 99.3916 372.763 101.565 373.035 103.739C373.239 105.981 372.967 108.087 372.218 110.124C371.401 112.162 370.176 113.996 368.474 115.627L365.887 111.279C367.248 109.649 368.065 107.747 368.201 105.777C368.338 103.739 367.861 101.769 366.704 99.7992C365.138 97.15 362.959 95.5196 360.168 94.8404C357.376 94.1611 354.585 94.6366 351.862 96.1989C349.138 97.8292 347.368 100.003 346.619 102.788C345.87 105.573 346.279 108.222 347.777 110.872C348.934 112.842 350.5 114.268 352.474 115.151C354.381 116.034 356.491 116.17 358.67 115.695L361.257 120.11C357.785 121.197 354.449 121.197 351.249 119.974C348.049 118.684 345.53 116.51 343.624 113.317Z" fill="#FEFEFE"/>
<path d="M362.619 159.169L372.899 146.33L371.946 142.934L359.078 146.602L357.717 141.779L387.06 133.424L388.422 138.247L376.439 141.643L377.393 145.04L391.758 149.999L393.46 155.908L376.439 149.931L364.389 165.147L362.619 159.169Z" fill="#FEFEFE"/>
<path d="M367.044 202.576L373.58 199.791L373.24 186.205L366.568 183.759L366.432 178.461L397.273 190.009L397.409 194.696L367.181 208.01L367.044 202.576ZM390.737 192.522L377.733 187.835L377.938 197.957L390.737 192.522Z" fill="#FEFEFE"/>
<path d="M377.597 238.375L373.853 254.203C369.291 253.048 365.887 250.738 363.64 247.274C361.393 243.809 360.781 239.869 361.802 235.59C362.823 231.242 365.138 227.914 368.746 225.74C372.355 223.566 376.372 222.955 380.797 224.042C385.222 225.061 388.558 227.37 390.737 230.903C392.984 234.435 393.596 238.375 392.575 242.722C391.69 246.323 389.92 249.244 387.265 251.553C384.541 253.795 381.546 254.882 378.142 254.814L379.367 249.787C381.41 249.583 383.18 248.768 384.746 247.342C386.312 245.847 387.333 244.013 387.877 241.771C388.354 239.801 388.354 237.899 387.809 236.133C387.265 234.367 386.312 232.873 384.882 231.582C383.452 230.291 381.75 229.476 379.64 228.933C376.44 228.186 373.648 228.525 371.265 229.952C368.814 231.378 367.249 233.62 366.568 236.677C366.023 239.054 366.159 241.228 366.976 243.334C367.793 245.372 369.155 246.934 370.993 247.953L373.512 237.424L377.597 238.375Z" fill="#FEFEFE"/>
<path d="M351.589 266.77L379.163 279.88L376.984 284.363L349.411 271.253L351.589 266.77Z" fill="#FEFEFE"/>
<path d="M352.338 322.879L349.343 326.819L325.037 308.41L327.624 305.082L354.585 305.625L337.224 292.447L340.219 288.507L364.525 306.916L361.802 310.516L335.318 309.905L352.338 322.879Z" fill="#FEFEFE"/>
<path d="M310.876 342.036L297.872 351.885C295.081 348.149 293.924 344.209 294.4 340.066C294.877 335.922 296.851 332.526 300.391 329.808C304 327.091 307.88 326.004 312.033 326.616C316.187 327.227 319.659 329.265 322.45 332.933C325.173 336.533 326.331 340.405 325.786 344.549C325.241 348.693 323.199 352.157 319.659 354.806C316.731 357.048 313.463 358.203 309.923 358.203C306.383 358.203 303.387 357.116 300.8 354.942L304.953 351.817C306.655 352.972 308.561 353.516 310.672 353.312C312.782 353.108 314.757 352.429 316.595 351.002C318.229 349.78 319.386 348.285 320.067 346.587C320.816 344.889 321.02 343.123 320.68 341.22C320.408 339.318 319.591 337.552 318.297 335.854C316.323 333.273 313.94 331.778 311.148 331.303C308.357 330.895 305.702 331.574 303.251 333.477C301.345 334.971 300.051 336.737 299.37 338.843C298.689 340.949 298.757 342.987 299.574 344.957L308.221 338.367L310.876 342.036Z" fill="#FEFEFE"/>
<path d="M272.137 356.844C273.295 356.301 274.452 356.301 275.61 356.708C276.767 357.116 277.584 357.931 278.129 359.086C278.673 360.309 278.741 361.464 278.265 362.618C277.856 363.773 277.039 364.588 275.882 365.132C274.656 365.675 273.499 365.743 272.41 365.336C271.252 364.928 270.435 364.113 269.891 362.89C269.346 361.735 269.278 360.58 269.686 359.426C270.163 358.271 270.912 357.388 272.137 356.844Z" fill="#FEFEFE"/>
<path d="M242.862 390.129C238.505 391.08 234.556 390.469 231.084 388.295C227.612 386.121 225.365 382.861 224.412 378.581C223.459 374.302 224.139 370.43 226.318 366.965C228.497 363.501 231.833 361.327 236.258 360.376L246.811 358.066L253.347 387.819L242.862 390.129ZM237.415 364.859C234.42 365.539 232.173 367.033 230.743 369.411C229.246 371.788 228.837 374.437 229.518 377.426C229.858 378.921 230.403 380.279 231.22 381.434C231.969 382.589 232.922 383.54 234.011 384.287C235.101 384.966 236.326 385.442 237.756 385.714C239.117 385.917 240.615 385.917 242.045 385.578L247.56 384.355L242.998 363.705L237.415 364.859Z" fill="#FEFEFE"/>
<path d="M198.744 369.343L185.536 369.071L185.604 364.316L203.851 364.724L203.238 395.156L185.468 394.749L185.536 390.062L198.268 390.333L198.404 382.386L186.762 382.114L186.83 377.495L198.472 377.766L198.744 369.343Z" fill="#FEFEFE"/>
<path d="M159.12 359.154C161.367 359.697 163.205 360.58 164.703 361.803C166.201 363.026 167.222 364.452 167.767 366.151C168.312 367.849 168.38 369.683 167.903 371.653L163.001 370.43C163.41 368.868 163.137 367.441 162.184 366.286C161.231 365.064 159.869 364.248 158.031 363.773C156.397 363.365 154.899 363.433 153.606 363.977C152.312 364.52 151.495 365.403 151.155 366.694C151.019 367.169 151.019 367.645 151.087 368.053C151.155 368.46 151.291 368.868 151.631 369.275C151.904 369.615 152.176 369.955 152.448 370.294C152.721 370.566 153.129 370.906 153.742 371.245C154.355 371.585 154.831 371.857 155.172 372.06C155.58 372.264 156.125 372.536 156.874 372.943C157.691 373.351 158.303 373.691 158.712 373.894C159.12 374.166 159.733 374.506 160.482 374.981C161.231 375.457 161.776 375.864 162.184 376.204C162.593 376.544 163.001 377.019 163.478 377.631C163.954 378.174 164.295 378.785 164.499 379.329C164.703 379.872 164.771 380.552 164.839 381.299C164.907 382.046 164.839 382.861 164.567 383.744C163.886 386.393 162.457 388.228 160.21 389.247C157.963 390.265 155.24 390.401 152.108 389.654C148.908 388.839 146.593 387.412 145.164 385.375C143.734 383.337 143.393 380.891 144.074 378.106L148.908 379.261C148.568 380.687 148.772 381.91 149.657 382.997C150.474 384.016 151.699 384.763 153.333 385.171C154.899 385.578 156.261 385.51 157.486 385.103C158.712 384.695 159.393 383.88 159.733 382.725C159.869 382.182 159.869 381.706 159.665 381.231C159.529 380.755 159.325 380.348 159.052 380.008C158.78 379.668 158.372 379.261 157.691 378.853C157.078 378.446 156.533 378.106 156.125 377.834C155.716 377.631 155.036 377.223 154.219 376.815C153.538 376.476 153.061 376.204 152.721 376.068C152.38 375.864 151.904 375.593 151.291 375.253C150.678 374.845 150.202 374.574 149.861 374.302C149.521 374.03 149.112 373.691 148.636 373.283C148.159 372.876 147.751 372.468 147.546 372.128C147.342 371.789 147.07 371.313 146.798 370.838C146.525 370.362 146.321 369.819 146.253 369.275C146.185 368.8 146.117 368.188 146.117 367.577C146.117 366.966 146.185 366.286 146.389 365.607C147.07 362.754 148.636 360.784 151.087 359.629C153.197 358.542 155.989 358.407 159.12 359.154Z" fill="#FEFEFE"/>
<path d="M131.547 350.323L118.815 378.038L114.254 375.932L126.985 348.217L131.547 350.323Z" fill="#FEFEFE"/>
<path d="M89.9485 343.938L76.8766 334.224C79.7361 330.488 83.2083 328.314 87.2933 327.635C91.3782 326.955 95.2589 327.906 98.7992 330.555C102.408 333.273 104.518 336.669 105.063 340.813C105.675 344.957 104.586 348.896 101.863 352.565C99.1396 356.165 95.7355 358.339 91.5824 358.95C87.4294 359.561 83.5487 358.542 80.0084 355.893C77.0128 353.651 75.0384 350.866 74.0172 347.538C72.9959 344.141 73.2002 340.949 74.6299 337.892L78.7829 341.017C78.1021 342.987 78.1702 344.957 78.9191 346.926C79.668 348.964 80.9616 350.663 82.7998 352.021C84.4338 353.244 86.1358 353.923 87.9741 354.195C89.8123 354.399 91.5824 354.127 93.2845 353.312C94.9866 352.497 96.4844 351.274 97.7779 349.576C99.7523 346.994 100.501 344.277 100.161 341.492C99.8204 338.707 98.3907 336.397 95.8716 334.495C93.9653 333.069 91.8548 332.322 89.608 332.186C87.3613 332.118 85.455 332.729 83.753 334.02L92.4675 340.541L89.9485 343.938Z" fill="#FEFEFE"/>
<path d="M37.7974 312.418L34.8018 308.546L58.971 289.865L61.5581 293.194L54.001 319.007L71.2258 305.693L74.2215 309.565L50.0522 328.245L47.2608 324.645L54.7499 299.307L37.7974 312.418Z" fill="#FEFEFE"/>
<path d="M40.2483 272.68C40.793 273.834 40.8611 274.989 40.4526 276.144C40.0441 277.299 39.2271 278.182 38.1378 278.725C36.9804 279.269 35.7549 279.337 34.6656 278.929C33.5082 278.522 32.6912 277.706 32.1465 276.552C31.6019 275.397 31.5338 274.242 31.9423 273.087C32.3508 271.932 33.1678 271.117 34.3252 270.506C35.4826 269.962 36.64 269.894 37.7974 270.302C38.8186 270.71 39.7037 271.525 40.2483 272.68Z" fill="#FEFEFE"/>
</svg>
