<svg width="307" height="304" viewBox="0 0 307 304" fill="none" xmlns="http://www.w3.org/2000/svg">
<path d="M5.88377 190.397C5.46435 188.932 5.46435 187.573 5.77892 186.213C6.09348 184.853 6.72262 183.702 7.71875 182.709C8.66246 181.715 9.8683 181.035 11.2839 180.669C13.4334 180.094 15.4257 180.303 17.2082 181.401C19.0432 182.447 20.2491 184.121 20.8782 186.317L22.1365 190.972L29.8434 188.88L30.892 192.594L8.19061 198.765L5.88377 190.397ZM17.3655 187.468C17.2082 186.893 16.9461 186.317 16.6315 185.899C16.317 185.428 15.8975 185.062 15.4781 184.801C15.0587 184.539 14.5344 184.382 14.0101 184.278C13.4334 184.225 12.9091 184.278 12.3324 184.435C11.5984 184.644 10.9693 185.01 10.445 185.533C9.97316 186.056 9.60616 186.684 9.44888 187.363C9.2916 188.096 9.2916 188.828 9.50131 189.612L10.7072 194.058L18.6238 191.914L17.3655 187.468Z" fill="#1A1F35"/>
<path d="M24.7574 152.791C24.8098 156.347 23.6564 159.328 21.3496 161.682C19.0427 164.036 16.1592 165.238 12.6465 165.291C9.13384 165.343 6.2503 164.192 3.89104 161.839C1.53177 159.538 0.378357 156.556 0.325929 153C0.273501 149.443 1.42692 146.462 3.73375 144.109C6.04059 141.755 8.92413 140.552 12.4368 140.5C14.7436 140.5 16.7883 140.971 18.6758 142.017C20.5632 143.063 22.0311 144.527 23.0797 146.41C24.1807 148.293 24.7574 150.437 24.7574 152.791ZM18.6758 158.858C20.301 157.236 21.0874 155.197 21.035 152.791C21.035 150.385 20.1962 148.345 18.5185 146.776C16.8932 145.207 14.8485 144.423 12.4368 144.423C10.0251 144.423 7.98043 145.259 6.40758 146.881C4.78231 148.502 3.99589 150.49 4.04832 152.948C4.04832 155.354 4.88717 157.393 6.56487 158.962C8.19014 160.531 10.2348 161.316 12.6465 161.316C15.0582 161.316 17.1029 160.479 18.6758 158.858Z" fill="#1A1F35"/>
<path d="M28.5862 120.208C28.1668 121.934 27.4852 123.346 26.5415 124.497C25.5978 125.647 24.4968 126.432 23.1861 126.85C21.8754 127.269 20.4599 127.321 18.9394 126.902L19.8831 123.137C21.089 123.451 22.19 123.241 23.1337 122.509C24.0774 121.777 24.7065 120.731 25.0735 119.371C25.3881 118.116 25.3357 116.965 24.9687 115.971C24.5492 114.978 23.8677 114.298 22.8715 114.089C22.5045 113.984 22.1376 113.984 21.823 114.036C21.5084 114.089 21.1938 114.193 20.8793 114.402C20.6171 114.612 20.355 114.821 20.0929 115.03C19.8831 115.239 19.621 115.553 19.3589 116.024C19.0967 116.494 18.887 116.861 18.7297 117.122C18.5724 117.384 18.3627 117.854 18.0482 118.43C17.7336 119.057 17.4715 119.528 17.3142 119.842C17.1045 120.156 16.8423 120.626 16.4753 121.149C16.1083 121.725 15.7938 122.143 15.5316 122.457C15.2695 122.718 14.9025 123.084 14.4306 123.451C13.9588 123.817 13.5393 124.078 13.0675 124.183C12.6481 124.34 12.1238 124.392 11.5471 124.444C10.9704 124.497 10.3412 124.392 9.65967 124.235C7.61498 123.712 6.19942 122.614 5.413 120.888C4.62658 119.162 4.52172 117.07 5.15086 114.664C5.77999 112.206 6.88098 110.428 8.50625 109.329C10.1315 108.231 11.9665 107.969 14.1161 108.545L13.1724 112.258C12.0714 111.997 11.1277 112.153 10.3412 112.781C9.50239 113.409 8.97811 114.35 8.66354 115.605C8.34897 116.808 8.34897 117.854 8.66354 118.796C8.97811 119.737 9.60724 120.26 10.4985 120.522C10.9179 120.626 11.2849 120.626 11.6519 120.522C12.0189 120.417 12.3335 120.26 12.6481 120.051C12.9102 119.842 13.2248 119.528 13.5393 119.057C13.8539 118.587 14.1161 118.168 14.3258 117.854C14.5355 117.54 14.7976 117.017 15.1122 116.39C15.3743 115.867 15.584 115.501 15.6889 115.239C15.8462 114.978 16.0559 114.612 16.318 114.141C16.6326 113.67 16.8423 113.304 17.052 113.043C17.2617 112.781 17.5239 112.467 17.8385 112.101C18.153 111.735 18.4676 111.421 18.7297 111.264C18.9919 111.107 19.3589 110.898 19.7259 110.689C20.1453 110.48 20.5123 110.323 20.9317 110.271C21.3511 110.218 21.7706 110.166 22.2948 110.166C22.7667 110.166 23.291 110.218 23.8153 110.375C26.0172 110.951 27.5376 112.153 28.3765 113.984C29.0581 115.71 29.2153 117.802 28.5862 120.208Z" fill="#1A1F35"/>
<path d="M21.1923 75.3879L23.0273 71.9883L43.7888 82.9715L41.9538 86.3711L32.8838 81.6117L27.8507 91.0782L36.9207 95.8899L35.0857 99.2895L14.3242 88.3062L16.1592 84.9067L24.6525 89.4046L29.6856 79.9381L21.1923 75.3879Z" fill="#1A1F35"/>
<path d="M49.8688 64.457C49.2397 65.1892 48.4533 65.6076 47.5096 65.7122C46.5658 65.8168 45.727 65.503 44.9406 64.8754C44.1542 64.2478 43.7347 63.4633 43.6823 62.5218C43.6299 61.5804 43.892 60.7436 44.5212 60.0114C45.1503 59.2269 45.9367 58.8085 46.8804 58.7562C47.8241 58.6515 48.663 58.9654 49.4494 59.593C50.1834 60.2206 50.6028 61.0051 50.7077 61.9465C50.7601 62.8356 50.498 63.6725 49.8688 64.457Z" fill="#1A1F35"/>
<path d="M65.2299 31.4024L57.6803 37.5216L61.8746 42.6471L68.7426 37.1032L70.997 39.8229L64.129 45.3668L70.263 52.8982L67.2746 55.3563L52.4375 37.1555L62.9755 28.5781L65.2299 31.4024Z" fill="#1A1F35"/>
<path d="M113.464 28.1605L109.899 29.7818L100.357 15.4513L100.305 33.7044L99.4136 34.1228L85.5726 22.1458L90.0814 38.7253L86.5163 40.3466L80.2773 17.3864L83.7376 15.8174L96.8446 27.4282L96.7922 9.95966L100.305 8.39062L113.464 28.1605Z" fill="#1A1F35"/>
<path d="M136.533 24.1845C133.073 24.6552 130.084 23.923 127.463 21.9879C124.894 20.0527 123.321 17.3331 122.849 13.8289C122.378 10.3247 123.112 7.34353 125.051 4.72848C126.991 2.16572 129.717 0.596687 133.125 0.125976C134.96 -0.13553 136.69 0.0213739 138.316 0.492084C139.941 0.962795 141.409 1.79961 142.615 2.95024C143.873 4.10086 144.764 5.51299 145.446 7.18663L141.566 7.70964C140.78 6.24521 139.731 5.14689 138.316 4.46697C136.9 3.78706 135.327 3.52555 133.597 3.78706C131.29 4.10086 129.455 5.14689 128.145 6.92513C126.834 8.70336 126.362 10.7954 126.677 13.2536C126.991 15.6594 128.04 17.5423 129.822 18.9021C131.552 20.2619 133.597 20.7849 135.956 20.4711C137.739 20.2096 139.207 19.5297 140.36 18.4314C141.566 17.3331 142.3 15.9209 142.562 14.195L146.442 13.672C146.232 16.4962 145.184 18.8498 143.401 20.7326C141.671 22.6678 139.364 23.7661 136.533 24.1845Z" fill="#1A1F35"/>
<path d="M172.078 11.9993L184.504 13.7252C183.98 17.2817 182.459 20.0536 179.943 22.0411C177.426 24.0285 174.49 24.813 171.082 24.3423C167.622 23.8716 164.948 22.3549 163.008 19.7398C161.069 17.1248 160.335 14.0913 160.806 10.6394C161.278 7.18756 162.799 4.4679 165.368 2.48045C167.937 0.49301 170.925 -0.239206 174.333 0.231504C177.164 0.597612 179.576 1.74824 181.463 3.68338C183.403 5.56622 184.452 7.81517 184.609 10.4302L180.624 9.90722C180.362 8.33818 179.576 7.03065 178.317 5.93233C177.059 4.83401 175.591 4.20639 173.809 3.94489C172.236 3.73568 170.82 3.89258 169.51 4.4156C168.199 4.93861 167.098 5.77543 166.259 6.97835C165.368 8.18128 164.843 9.54111 164.634 11.1624C164.319 13.6206 164.739 15.7649 166.049 17.4909C167.308 19.2168 169.143 20.3151 171.554 20.629C173.389 20.8905 175.067 20.629 176.587 19.8444C178.108 19.0599 179.209 17.9093 179.838 16.4449L171.554 15.2942L172.078 11.9993Z" fill="#1A1F35"/>
<path d="M201.282 25.0218C200.339 24.6557 199.71 24.0804 199.29 23.1913C198.871 22.3545 198.871 21.4131 199.238 20.5239C199.605 19.5825 200.181 18.9026 201.073 18.5365C201.912 18.1704 202.803 18.1181 203.747 18.4842C204.69 18.8503 205.372 19.4256 205.739 20.2624C206.106 21.0993 206.158 21.9884 205.791 22.9298C205.424 23.8712 204.848 24.4988 204.009 24.9172C203.117 25.388 202.226 25.388 201.282 25.0218Z" fill="#1A1F35"/>
<path d="M235.415 23.0361C236.674 23.8206 237.67 24.8143 238.351 26.0173C239.033 27.2202 239.348 28.5277 239.295 29.8875C239.243 31.2474 238.876 32.5549 238.089 33.8101C236.936 35.693 235.311 36.8436 233.213 37.3143C231.116 37.785 229.124 37.3666 227.184 36.1637L223.095 33.6009L218.848 40.4001L215.598 38.3603L228.023 18.4336L235.415 23.0361ZM228.967 32.9733C229.491 33.2871 230.015 33.4963 230.592 33.6532C231.169 33.7578 231.693 33.7578 232.165 33.6532C232.689 33.5486 233.161 33.3394 233.633 33.0256C234.105 32.7118 234.472 32.2934 234.786 31.8227C235.206 31.1428 235.415 30.4629 235.415 29.7306C235.415 28.9984 235.258 28.3185 234.891 27.6909C234.524 27.0633 234 26.488 233.266 26.0696L229.334 23.6114L224.982 30.5675L228.967 32.9733Z" fill="#1A1F35"/>
<path d="M250.144 65.7137L252.293 60.6928L244.901 53.266L239.868 55.4627L236.984 52.5861L260.315 42.7012L262.884 45.2639L253.08 68.6425L250.144 65.7137ZM258.008 47.5129L248.309 51.8016L253.814 57.2932L258.008 47.5129Z" fill="#1A1F35"/>
<path d="M264.776 86.948C263.046 83.9668 262.574 80.881 263.361 77.743C264.2 74.6049 266.087 72.1467 269.128 70.3685C272.169 68.5903 275.262 68.1195 278.408 68.9564C281.553 69.7932 284.017 71.676 285.748 74.6572C286.691 76.2262 287.216 77.8999 287.425 79.5735C287.583 81.2994 287.373 82.9208 286.796 84.4898C286.167 86.0588 285.223 87.471 283.913 88.7262L281.92 85.3789C282.969 84.1237 283.598 82.6593 283.703 81.1425C283.808 79.5735 283.441 78.0568 282.549 76.54C281.344 74.5003 279.666 73.2451 277.516 72.722C275.367 72.199 273.217 72.5651 271.12 73.7681C269.023 75.0233 267.66 76.6969 267.083 78.8413C266.507 80.9856 266.821 83.0254 267.974 85.0651C268.866 86.5818 270.072 87.6802 271.592 88.3601C273.06 89.04 274.685 89.1446 276.363 88.7785L278.355 92.1781C275.681 93.0149 273.112 93.0149 270.648 92.0735C268.184 91.0797 266.244 89.4061 264.776 86.948Z" fill="#1A1F35"/>
<path d="M279.396 122.248L287.313 112.363L286.579 109.748L276.67 112.572L275.621 108.859L298.218 102.426L299.266 106.139L290.039 108.754L290.773 111.369L301.835 115.187L303.146 119.737L290.039 115.135L280.759 126.85L279.396 122.248Z" fill="#1A1F35"/>
<path d="M282.804 155.67L287.837 153.526L287.575 143.066L282.437 141.183L282.332 137.104L306.082 145.995L306.187 149.603L282.909 159.855L282.804 155.67ZM301.049 147.93L291.035 144.321L291.192 152.114L301.049 147.93Z" fill="#1A1F35"/>
<path d="M290.934 183.232L288.051 195.418C284.538 194.529 281.917 192.751 280.187 190.083C278.456 187.416 277.985 184.382 278.771 181.087C279.557 177.74 281.34 175.177 284.119 173.504C286.897 171.83 289.991 171.359 293.398 172.196C296.806 172.981 299.375 174.759 301.053 177.479C302.783 180.198 303.255 183.232 302.468 186.579C301.787 189.351 300.424 191.6 298.379 193.378C296.282 195.104 293.975 195.941 291.354 195.889L292.297 192.018C293.87 191.861 295.233 191.234 296.439 190.135C297.645 188.985 298.431 187.573 298.851 185.847C299.218 184.33 299.218 182.866 298.799 181.506C298.379 180.146 297.645 178.995 296.544 178.002C295.443 177.008 294.132 176.38 292.507 175.962C290.043 175.387 287.893 175.648 286.058 176.746C284.171 177.845 282.965 179.571 282.441 181.924C282.022 183.755 282.126 185.428 282.755 187.05C283.385 188.619 284.433 189.822 285.849 190.606L287.789 182.5L290.934 183.232Z" fill="#1A1F35"/>
<path d="M270.904 205.096L292.138 215.19L290.46 218.642L269.227 208.548L270.904 205.096Z" fill="#1A1F35"/>
<path d="M271.481 248.294L269.174 251.328L250.457 237.154L252.449 234.592L273.211 235.01L259.842 224.864L262.148 221.83L280.865 236.004L278.768 238.776L258.374 238.305L271.481 248.294Z" fill="#1A1F35"/>
<path d="M239.553 263.045L229.539 270.628C227.39 267.752 226.498 264.718 226.865 261.528C227.232 258.338 228.753 255.723 231.479 253.63C234.258 251.538 237.246 250.702 240.444 251.172C243.642 251.643 246.316 253.212 248.466 256.036C250.563 258.808 251.454 261.789 251.035 264.98C250.615 268.17 249.043 270.838 246.316 272.877C244.062 274.603 241.545 275.492 238.819 275.492C236.093 275.492 233.786 274.656 231.794 272.982L234.992 270.576C236.302 271.465 237.77 271.884 239.396 271.727C241.021 271.57 242.541 271.047 243.957 269.948C245.215 269.007 246.107 267.856 246.631 266.549C247.208 265.241 247.365 263.882 247.103 262.417C246.893 260.953 246.264 259.593 245.268 258.285C243.747 256.298 241.912 255.147 239.763 254.781C237.613 254.467 235.568 254.99 233.681 256.455C232.213 257.605 231.217 258.965 230.693 260.587C230.168 262.208 230.221 263.777 230.85 265.294L237.508 260.22L239.553 263.045Z" fill="#1A1F35"/>
<path d="M209.722 274.447C210.614 274.029 211.505 274.029 212.396 274.343C213.288 274.657 213.917 275.284 214.336 276.173C214.756 277.115 214.808 278.004 214.441 278.893C214.126 279.782 213.497 280.41 212.606 280.828C211.662 281.247 210.771 281.299 209.932 280.985C209.041 280.671 208.412 280.044 207.992 279.102C207.573 278.213 207.52 277.324 207.835 276.435C208.202 275.546 208.779 274.866 209.722 274.447Z" fill="#1A1F35"/>
<path d="M187.176 300.075C183.821 300.807 180.78 300.336 178.106 298.663C175.432 296.989 173.702 294.479 172.968 291.184C172.234 287.889 172.759 284.907 174.436 282.24C176.114 279.573 178.683 277.899 182.091 277.167L190.217 275.389L195.25 298.297L187.176 300.075ZM182.982 280.619C180.675 281.142 178.945 282.292 177.844 284.123C176.691 285.954 176.376 287.993 176.9 290.294C177.163 291.445 177.582 292.491 178.211 293.38C178.788 294.269 179.522 295.002 180.361 295.577C181.199 296.1 182.143 296.466 183.244 296.675C184.293 296.832 185.446 296.832 186.547 296.571L190.794 295.629L187.281 279.73L182.982 280.619Z" fill="#1A1F35"/>
<path d="M153.208 284.068L143.037 283.858L143.089 280.197L157.14 280.511L156.668 303.942L142.984 303.628L143.037 300.019L152.841 300.229L152.946 294.109L143.981 293.9L144.033 290.344L152.998 290.553L153.208 284.068Z" fill="#1A1F35"/>
<path d="M122.694 276.223C124.425 276.641 125.84 277.321 126.994 278.262C128.147 279.204 128.933 280.302 129.353 281.61C129.772 282.917 129.825 284.329 129.458 285.846L125.683 284.905C125.997 283.702 125.788 282.603 125.054 281.714C124.32 280.773 123.271 280.145 121.856 279.779C120.597 279.465 119.444 279.518 118.448 279.936C117.452 280.354 116.823 281.034 116.56 282.028C116.456 282.394 116.456 282.76 116.508 283.074C116.56 283.388 116.665 283.702 116.927 284.015C117.137 284.277 117.347 284.538 117.557 284.8C117.766 285.009 118.081 285.271 118.553 285.532C119.025 285.794 119.392 286.003 119.654 286.16C119.968 286.317 120.388 286.526 120.964 286.84C121.593 287.154 122.065 287.415 122.38 287.572C122.694 287.781 123.166 288.043 123.743 288.409C124.32 288.775 124.739 289.089 125.054 289.35C125.368 289.612 125.683 289.978 126.05 290.448C126.417 290.867 126.679 291.338 126.836 291.756C126.994 292.174 127.046 292.697 127.098 293.273C127.151 293.848 127.098 294.476 126.889 295.156C126.364 297.195 125.263 298.607 123.533 299.392C121.803 300.177 119.706 300.281 117.294 299.706C114.83 299.078 113.048 297.98 111.947 296.411C110.846 294.842 110.584 292.959 111.108 290.815L114.83 291.704C114.568 292.802 114.725 293.743 115.407 294.58C116.036 295.365 116.98 295.94 118.238 296.254C119.444 296.568 120.493 296.515 121.436 296.202C122.38 295.888 122.904 295.26 123.166 294.371C123.271 293.953 123.271 293.587 123.114 293.22C123.009 292.854 122.852 292.541 122.642 292.279C122.432 292.018 122.118 291.704 121.593 291.39C121.122 291.076 120.702 290.815 120.388 290.605C120.073 290.448 119.549 290.135 118.92 289.821C118.395 289.559 118.028 289.35 117.766 289.246C117.504 289.089 117.137 288.879 116.665 288.618C116.193 288.304 115.826 288.095 115.564 287.886C115.302 287.677 114.988 287.415 114.621 287.101C114.254 286.787 113.939 286.474 113.782 286.212C113.624 285.951 113.415 285.584 113.205 285.218C112.995 284.852 112.838 284.434 112.786 284.015C112.733 283.649 112.681 283.179 112.681 282.708C112.681 282.237 112.733 281.714 112.89 281.191C113.415 278.995 114.621 277.478 116.508 276.589C118.133 275.752 120.283 275.647 122.694 276.223Z" fill="#1A1F35"/>
<path d="M101.461 269.424L91.6572 290.763L88.1445 289.142L97.9486 267.803L101.461 269.424Z" fill="#1A1F35"/>
<path d="M69.4276 264.508L59.3615 257.029C61.5634 254.153 64.2373 252.479 67.383 251.956C70.5286 251.433 73.517 252.165 76.2433 254.205C79.022 256.297 80.6473 258.912 81.0667 262.102C81.5385 265.293 80.6997 268.326 78.6026 271.15C76.5054 273.922 73.884 275.596 70.6859 276.067C67.4878 276.537 64.4994 275.753 61.7732 273.713C59.4663 271.987 57.9459 269.843 57.1595 267.28C56.3731 264.665 56.5303 262.207 57.6313 259.853L60.8294 262.259C60.3052 263.776 60.3576 265.293 60.9343 266.809C61.511 268.378 62.5071 269.686 63.9227 270.732C65.181 271.673 66.4917 272.196 67.9072 272.406C69.3228 272.563 70.6859 272.353 71.9966 271.726C73.3073 271.098 74.4607 270.157 75.4569 268.849C76.9773 266.862 77.554 264.77 77.2919 262.625C77.0297 260.481 75.9287 258.703 73.9889 257.238C72.5209 256.14 70.8956 255.565 69.1655 255.46C67.4354 255.408 65.9674 255.879 64.6567 256.872L71.3675 261.893L69.4276 264.508Z" fill="#1A1F35"/>
<path d="M29.2678 240.241L26.9609 237.26L45.5729 222.877L47.5652 225.44L41.7457 245.314L55.01 235.063L57.3168 238.044L38.7048 252.427L36.5553 249.655L42.3224 230.147L29.2678 240.241Z" fill="#1A1F35"/>
<path d="M31.157 209.644C31.5765 210.533 31.6289 211.422 31.3143 212.311C30.9998 213.2 30.3706 213.88 29.5318 214.298C28.6405 214.717 27.6968 214.769 26.8579 214.455C25.9667 214.142 25.3375 213.514 24.9181 212.625C24.4987 211.736 24.4462 210.847 24.7608 209.957C25.0754 209.068 25.7045 208.441 26.5958 207.97C27.4871 207.552 28.3784 207.499 29.2696 207.813C30.0561 208.127 30.7376 208.754 31.157 209.644Z" fill="#1A1F35"/>
</svg>
