<svg width="35" height="35" viewBox="0 0 35 35" fill="none" xmlns="http://www.w3.org/2000/svg">
<g clip-path="url(#clip0_58_31420)">
<path d="M17.5 35C27.165 35 35 27.165 35 17.5C35 7.83502 27.165 0 17.5 0C7.83502 0 0 7.83502 0 17.5C0 27.165 7.83502 35 17.5 35Z" fill="url(#paint0_linear_58_31420)"/>
<path d="M11.8457 18.7791L13.9219 24.5258C13.9219 24.5258 14.1815 25.0635 14.4595 25.0635C14.7374 25.0635 18.8717 20.7626 18.8717 20.7626L23.4691 11.8828L11.9198 17.2957L11.8457 18.7791Z" fill="#C8DAEA"/>
<path d="M14.5989 20.2539L14.2003 24.4898C14.2003 24.4898 14.0335 25.7877 15.3311 24.4898C16.6288 23.1919 17.8708 22.191 17.8708 22.191" fill="#A9C6D8"/>
<path d="M11.8834 18.9834L7.61256 17.5919C7.61256 17.5919 7.10214 17.3848 7.26649 16.9152C7.30033 16.8184 7.36858 16.736 7.57274 16.5944C8.51906 15.9348 25.0882 9.9794 25.0882 9.9794C25.0882 9.9794 25.556 9.82176 25.832 9.92661C25.9002 9.94774 25.9616 9.98662 26.0099 10.0393C26.0582 10.0919 26.0917 10.1565 26.1068 10.2263C26.1367 10.3496 26.1491 10.4765 26.1439 10.6033C26.1426 10.7129 26.1293 10.8146 26.1192 10.974C26.0183 12.6022 22.9984 24.7542 22.9984 24.7542C22.9984 24.7542 22.8177 25.4653 22.1704 25.4897C22.0113 25.4948 21.8528 25.4678 21.7043 25.4104C21.5559 25.353 21.4205 25.2663 21.3063 25.1554C20.036 24.0627 15.6452 21.1119 14.675 20.4629C14.6531 20.448 14.6347 20.4286 14.6209 20.4059C14.6072 20.3833 14.5985 20.358 14.5953 20.3317C14.5818 20.2633 14.6562 20.1785 14.6562 20.1785C14.6562 20.1785 22.3016 13.3827 22.5051 12.6693C22.5208 12.614 22.4613 12.5868 22.3814 12.611C21.8736 12.7978 13.0708 18.3568 12.0993 18.9703C12.0293 18.9915 11.9554 18.996 11.8834 18.9834Z" fill="white"/>
</g>
<defs>
<linearGradient id="paint0_linear_58_31420" x1="17.5" y1="35" x2="17.5" y2="0" gradientUnits="userSpaceOnUse">
<stop stop-color="#1D93D2"/>
<stop offset="1" stop-color="#38B0E3"/>
</linearGradient>
<clipPath id="clip0_58_31420">
<rect width="35" height="35" fill="white"/>
</clipPath>
</defs>
</svg>
