<svg width="82" height="82" viewBox="0 0 82 82" fill="none" xmlns="http://www.w3.org/2000/svg">
<path d="M40.9998 7.38754C51.9472 7.38754 53.2438 7.42936 57.5675 7.62662C61.565 7.80906 63.7357 8.47682 65.1806 9.03831C66.9614 9.69558 68.5723 10.7436 69.8948 12.1053C71.2565 13.4278 72.3045 15.0387 72.9618 16.8195C73.5232 18.2643 74.1912 20.4352 74.3734 24.4326C74.5707 28.7561 74.6125 30.0527 74.6125 41.0006C74.6125 51.9484 74.5707 53.2447 74.3734 57.5685C74.191 61.566 73.5231 63.7367 72.9618 65.1816C72.2797 66.9498 71.2349 68.5557 69.8948 69.8958C68.5547 71.236 66.9488 72.2807 65.1806 72.9628C63.7359 73.5243 61.565 74.1922 57.5675 74.3745C53.2449 74.5718 51.9483 74.6136 40.9998 74.6136C30.0512 74.6136 28.7551 74.5718 24.432 74.3745C20.4345 74.1921 18.2638 73.5242 16.8189 72.9628C15.0381 72.3056 13.4272 71.2575 12.1047 69.8958C10.743 68.5733 9.69502 66.9624 9.03775 65.1816C8.47627 63.7369 7.80835 61.566 7.62607 57.5685C7.42882 53.2452 7.38699 51.9484 7.38699 41.0006C7.38699 30.0527 7.42882 28.7564 7.62607 24.4326C7.80851 20.4352 8.47627 18.2644 9.03775 16.8195C9.69508 15.0386 10.7432 13.4277 12.1051 12.1052C13.4276 10.7434 15.0384 9.69542 16.8192 9.03814C18.264 8.47666 20.4349 7.80873 24.4323 7.62645C28.7557 7.4292 30.0523 7.38737 41.0001 7.38737M41.0001 0C29.8652 0 28.4685 0.0471974 24.0961 0.246729C19.732 0.445934 16.7517 1.13892 14.1438 2.15253C11.4081 3.18202 8.9299 4.79588 6.88198 6.88155C4.79586 8.92935 3.18157 11.4076 2.1517 14.1434C1.13891 16.7515 0.445931 19.7318 0.24754 24.0959C0.0471971 28.4684 0 29.8651 0 41.0001C0 52.1351 0.0471971 53.5318 0.24754 57.9042C0.446745 62.2684 1.13973 65.2487 2.15332 67.8566C3.18282 70.5923 4.79666 73.0705 6.88231 75.1184C8.93022 77.2041 11.4084 78.818 14.1441 79.8475C16.7522 80.8611 19.7324 81.5541 24.0964 81.7533C28.4694 81.9528 29.8656 82 41.0004 82C52.1352 82 53.532 81.9528 57.9044 81.7533C62.2685 81.5541 65.2488 80.8611 67.8567 79.8475C70.5802 78.7941 73.0537 77.1834 75.1185 75.1185C77.1834 73.0536 78.7941 70.5801 79.8475 67.8566C80.8611 65.2485 81.5541 62.2682 81.7533 57.9042C81.9528 53.5312 82 52.1349 82 41.0001C82 29.8652 81.9528 28.4684 81.7533 24.0959C81.5541 19.7318 80.8611 16.7515 79.8475 14.1436C78.818 11.4079 77.2042 8.92964 75.1185 6.88171C73.0705 4.79562 70.5922 3.18143 67.8562 2.15171C65.2481 1.13892 62.2679 0.445934 57.9038 0.247542C53.5314 0.0471974 52.1347 0 40.9998 0H41.0001Z" fill="#FEFEFE"/>
<path d="M41 20C36.8466 20 32.7865 21.2316 29.333 23.5391C25.8796 25.8466 23.188 29.1264 21.5985 32.9636C20.0091 36.8009 19.5932 41.0233 20.4035 45.0969C21.2138 49.1705 23.2139 52.9123 26.1508 55.8492C29.0877 58.7861 32.8295 60.7862 36.9031 61.5965C40.9767 62.4068 45.1991 61.9909 49.0364 60.4015C52.8736 58.812 56.1534 56.1204 58.4609 52.667C60.7684 49.2135 62 45.1534 62 41C62 35.4304 59.7875 30.089 55.8492 26.1508C51.911 22.2125 46.5695 20 41 20ZM41 54.6314C38.304 54.6314 35.6685 53.8319 33.4268 52.3341C31.1852 50.8362 29.438 48.7072 28.4063 46.2164C27.3746 43.7256 27.1047 40.9848 27.6307 38.3405C28.1567 35.6963 29.4549 33.2674 31.3613 31.361C33.2677 29.4547 35.6966 28.1564 38.3409 27.6305C40.9851 27.1045 43.7259 27.3745 46.2167 28.4062C48.7075 29.4379 50.8365 31.1851 52.3343 33.4268C53.8321 35.6685 54.6316 38.304 54.6316 41C54.6316 44.6153 53.1954 48.0825 50.639 50.6389C48.0825 53.1953 44.6153 54.6314 41 54.6314Z" fill="#FEFEFE"/>
<path d="M63 24C65.7614 24 68 21.7614 68 19C68 16.2386 65.7614 14 63 14C60.2386 14 58 16.2386 58 19C58 21.7614 60.2386 24 63 24Z" fill="#FEFEFE"/>
</svg>
